<?xml version="1.0" encoding="utf-8"?>
<!-- Generator: Adobe Illustrator 23.0.1, SVG Export Plug-In . SVG Version: 6.00 Build 0)  -->
<svg version="1.1" id="Слой_1" xmlns="http://www.w3.org/2000/svg" xmlns:xlink="http://www.w3.org/1999/xlink" x="0px" y="0px"
	 viewBox="0 0 186 116" style="enable-background:new 0 0 186 116;" xml:space="preserve">
<style type="text/css">
	.st0{fill:#FFFFFF;}
</style>
<g>
	<path class="st0" d="M5.9,92.8H0.6c-0.1,0-0.3,0-0.4-0.1c-0.1,0-0.3-0.1-0.3-0.3c0-0.1,0-0.3,0.1-0.3C0.3,92,0.4,92,0.5,92h1.7
		V81.5H0.6c-0.1,0-0.3,0-0.4-0.1C0.1,81.1,0,81.1,0,81c0-0.1,0-0.3,0.1-0.4c0.1-0.1,0.3-0.1,0.4-0.1h4.7c0.1,0,0.3,0,0.4,0.1
		c0.1,0.1,0.1,0.3,0.1,0.4c0,0.1,0,0.3-0.1,0.3c-0.1,0.1-0.3,0.1-0.4,0.1H3.3v5.5l6-5.5l0.1-0.1c0,0-0.1,0-0.3,0H8.3
		c-0.1,0-0.3,0-0.4-0.1C7.8,81,7.8,81,7.8,80.9s0-0.3,0.1-0.3c0.1-0.1,0.3-0.1,0.4-0.1h3.8c0.1,0,0.3,0,0.4,0.1
		c0.1,0.1,0.1,0.3,0.1,0.4c0,0.1,0,0.3-0.1,0.4c-0.1,0.1-0.3,0.1-0.4,0.1h-1.5L6,85.9l5.5,6h1.4c0.1,0,0.3,0,0.4,0.1
		c0.1,0.1,0.1,0.3,0.1,0.3c0,0.1,0,0.3-0.1,0.4c-0.1,0.1-0.3,0.1-0.4,0.1H8.6c-0.1,0-0.3,0-0.4-0.1c-0.1-0.1-0.1-0.3-0.1-0.4
		s0-0.3,0.1-0.3c0.1-0.1,0.3-0.1,0.4-0.1h1.7l-5-5.6l-1.9,1.7v4h2.6c0.1,0,0.3,0,0.4,0.1s0.1,0.3,0.1,0.4c0,0.1,0,0.3-0.1,0.4
		C6.2,92.8,6,92.8,5.9,92.8z"/>
	<path class="st0" d="M29.6,86.7c0,1.2-0.3,2.2-0.6,3.1c-0.4,1-1,1.8-1.8,2.3c-0.8,0.5-1.8,0.9-2.9,0.9S22,92.7,21.3,92
		c-0.8-0.6-1.4-1.4-1.8-2.3c-0.4-1-0.6-2.1-0.6-3.1c0-1.2,0.3-2.2,0.6-3.1c0.4-1,1-1.8,1.8-2.3c0.8-0.6,1.8-0.9,2.9-0.9
		s2.2,0.3,2.9,0.9c0.8,0.6,1.4,1.4,1.8,2.3C29.5,84.6,29.6,85.6,29.6,86.7z M28.6,86.7c0-0.9-0.1-1.8-0.5-2.7
		c-0.4-0.8-0.9-1.5-1.5-2.1c-0.6-0.5-1.4-0.8-2.4-0.8c-1,0-1.7,0.3-2.4,0.8c-0.6,0.5-1.2,1.2-1.5,2.1c-0.4,0.8-0.5,1.7-0.5,2.7
		c0,0.9,0.1,1.8,0.5,2.7c0.4,0.8,0.8,1.5,1.5,2.1c0.6,0.5,1.4,0.8,2.4,0.8c1,0,1.8-0.3,2.4-0.8c0.6-0.5,1.2-1.2,1.5-2.1
		C28.5,88.6,28.6,87.7,28.6,86.7z"/>
	<path class="st0" d="M48.3,92.8h-3.7c-0.1,0-0.3,0-0.4-0.1c-0.1-0.1-0.1-0.3-0.1-0.4c0-0.1,0-0.3,0.1-0.3c0.1-0.1,0.3-0.1,0.4-0.1
		H46v-9.5l-2.7,6.3c-0.1,0.1-0.1,0.3-0.3,0.4c-0.1,0.1-0.3,0.1-0.4,0.1s-0.3,0-0.4-0.1C42.2,89,42,89,42,88.7l-2.8-6.3v9.4h1.3
		c0.1,0,0.3,0,0.4,0.1C41,92,41,92,41,92.2c0,0.1,0,0.3-0.1,0.4c-0.1,0.1-0.3,0.1-0.4,0.1h-3.7c-0.1,0-0.3,0-0.4-0.1
		c-0.1-0.1-0.1-0.3-0.1-0.4c0-0.1,0-0.3,0.1-0.3c0.1-0.1,0.3-0.1,0.4-0.1h1.4V81.3h-1.3c-0.1,0-0.3,0-0.4-0.1
		c-0.1-0.1-0.1-0.1-0.1-0.3s0-0.3,0.1-0.4c0.1-0.1,0.3-0.1,0.4-0.1H39c0.3,0,0.4,0.1,0.5,0.4l3.2,7.1l3.1-7.1c0-0.1,0.1-0.1,0.1-0.3
		c0.1,0,0.1-0.1,0.3-0.1h2.1c0.1,0,0.3,0,0.4,0.1c0.1,0.3,0.1,0.4,0.1,0.5c0,0.1,0,0.3-0.1,0.3c-0.1,0.1-0.3,0.1-0.4,0.1H47v10.5
		h1.4c0.1,0,0.3,0,0.4,0.1c0.1,0.1,0.1,0.1,0.1,0.3c0,0.1,0,0.3-0.1,0.4C48.6,92.8,48.5,92.8,48.3,92.8z"/>
	<path class="st0" d="M63.8,92.8h-7.2c-0.1,0-0.3,0-0.4-0.1c-0.1-0.1-0.1-0.3-0.1-0.4c0-0.1,0-0.3,0.1-0.3c0.1-0.1,0.3-0.1,0.4-0.1
		h3.2V81.4h-3.2c-0.1,0-0.3,0-0.4-0.1c-0.1-0.1-0.1-0.1-0.1-0.3s0-0.3,0.1-0.4c0.1-0.1,0.3-0.1,0.4-0.1h7.2c0.1,0,0.3,0,0.4,0.1
		c0.1,0.1,0.1,0.3,0.1,0.4c0,0.1,0,0.3-0.1,0.3c-0.1,0.1-0.3,0.1-0.4,0.1h-3.1v10.5h3.1c0.1,0,0.3,0,0.4,0.1
		c0.1,0.1,0.1,0.3,0.1,0.3c0,0.1,0,0.3-0.1,0.4C64.2,92.8,64.1,92.8,63.8,92.8z"/>
	<path class="st0" d="M79.6,82.8c0-0.4-0.3-0.6-0.5-0.9c-0.3-0.3-0.6-0.4-1-0.5c-0.4-0.1-0.9-0.1-1.3-0.1c-0.9,0-1.7,0.3-2.1,0.6
		c-0.5,0.4-0.8,0.9-0.8,1.7c0,0.5,0.1,0.9,0.3,1.2c0.1,0.3,0.4,0.5,0.8,0.6c0.3,0.1,0.8,0.4,1.5,0.6l1.4,0.5
		c0.8,0.3,1.3,0.5,1.8,0.8c0.5,0.3,0.8,0.6,1,1s0.4,0.9,0.4,1.5c0,0.8-0.1,1.4-0.5,1.9c-0.4,0.5-0.8,0.9-1.4,1.2
		c-0.6,0.3-1.3,0.4-1.9,0.4s-1.3-0.1-1.9-0.4c-0.6-0.3-1.2-0.5-1.5-0.9c0,0.4,0,0.8-0.1,0.9c-0.1,0.3-0.3,0.4-0.4,0.4
		c-0.1,0-0.3,0-0.4-0.1c-0.1-0.1-0.1-0.3-0.1-0.6v-3.3c0-0.1,0-0.3,0.1-0.4c0.1-0.1,0.3-0.1,0.4-0.1c0.1,0,0.3,0,0.4,0.1
		c0.1,0.1,0.1,0.3,0.1,0.4v1.3c0,0.3,0.1,0.6,0.5,0.9c0.4,0.3,0.8,0.5,1.3,0.8c0.5,0.1,1.2,0.3,1.7,0.3c0.9,0,1.5-0.3,2.1-0.6
		c0.5-0.4,0.8-1,0.8-1.9c0-0.4-0.1-0.8-0.3-1c-0.1-0.3-0.4-0.5-0.8-0.8c-0.4-0.1-0.8-0.4-1.4-0.6L76,86.8c-0.6-0.3-1.2-0.5-1.7-0.6
		c-0.4-0.3-0.8-0.5-1-0.9c-0.3-0.4-0.4-0.9-0.4-1.5s0.1-1.3,0.5-1.8c0.4-0.5,0.8-0.9,1.3-1.2c0.5-0.3,1.2-0.4,1.8-0.4
		s1.2,0.1,1.8,0.3c0.5,0.1,1,0.4,1.3,0.8c0-0.4,0-0.5,0.1-0.8c0.1-0.1,0.3-0.3,0.4-0.3c0.1,0,0.3,0,0.4,0.1c0.1,0.1,0.1,0.3,0.1,0.5
		v2.7c0,0.1,0,0.4-0.1,0.4c-0.1,0.1-0.3,0.1-0.4,0.1c-0.1,0-0.3,0-0.4-0.1c-0.1-0.1-0.1-0.3-0.1-0.4C79.6,83.7,79.6,82.8,79.6,82.8z
		"/>
	<path class="st0" d="M96.5,82.8c0-0.4-0.3-0.6-0.5-0.9c-0.3-0.3-0.6-0.4-1-0.5c-0.4-0.1-0.9-0.1-1.3-0.1c-0.9,0-1.7,0.3-2.1,0.6
		c-0.5,0.4-0.8,0.9-0.8,1.7c0,0.5,0.1,0.9,0.3,1.2c0.1,0.3,0.4,0.5,0.8,0.6c0.3,0.1,0.8,0.4,1.5,0.6l1.4,0.5
		c0.8,0.3,1.3,0.5,1.8,0.8c0.5,0.3,0.8,0.6,1,1c0.3,0.4,0.4,0.9,0.4,1.5c0,0.8-0.1,1.4-0.5,1.9c-0.4,0.5-0.8,0.9-1.4,1.2
		c-0.6,0.3-1.3,0.4-1.9,0.4c-0.6,0-1.3-0.1-1.9-0.4c-0.6-0.3-1.2-0.5-1.5-0.9c0,0.4,0,0.8-0.1,0.9c-0.1,0.3-0.3,0.4-0.4,0.4
		c-0.1,0-0.3,0-0.4-0.1c-0.1-0.1-0.1-0.3-0.1-0.6v-3.3c0-0.1,0-0.3,0.1-0.4c0.1-0.1,0.3-0.1,0.4-0.1s0.3,0,0.4,0.1
		c0.1,0.1,0.1,0.3,0.1,0.4v1.3c0,0.3,0.1,0.6,0.5,0.9s0.8,0.5,1.3,0.8c0.5,0.1,1.2,0.3,1.7,0.3c0.9,0,1.5-0.3,2.1-0.6
		c0.5-0.4,0.8-1,0.8-1.9c0-0.4-0.1-0.8-0.3-1c-0.1-0.3-0.4-0.5-0.8-0.8c-0.4-0.1-0.8-0.4-1.4-0.6l-1.7-0.6c-0.6-0.3-1.2-0.5-1.7-0.6
		c-0.4-0.3-0.8-0.5-1-0.9c-0.3-0.4-0.4-0.9-0.4-1.5s0.1-1.3,0.5-1.8c0.4-0.5,0.8-0.9,1.3-1.2c0.5-0.3,1.2-0.4,1.8-0.4
		s1.2,0.1,1.8,0.3c0.5,0.1,1,0.4,1.3,0.8c0-0.4,0-0.5,0.1-0.8c0.1-0.1,0.3-0.3,0.4-0.3c0.1,0,0.3,0,0.4,0.1c0.1,0.1,0.1,0.3,0.1,0.5
		v2.7c0,0.1,0,0.4-0.1,0.4c-0.1,0.1-0.3,0.1-0.4,0.1s-0.3,0-0.4-0.1c-0.1-0.1-0.1-0.3-0.1-0.4V82.8z"/>
	<path class="st0" d="M113.3,92.8h-7.2c-0.1,0-0.3,0-0.4-0.1c-0.1-0.1-0.1-0.3-0.1-0.4c0-0.1,0-0.3,0.1-0.3c0.1-0.1,0.3-0.1,0.4-0.1
		h3.2V81.4h-3.2c-0.1,0-0.3,0-0.4-0.1c-0.1-0.1-0.1-0.1-0.1-0.3s0-0.3,0.1-0.4c0.1-0.1,0.3-0.1,0.4-0.1h7.2c0.1,0,0.3,0,0.4,0.1
		c0.1,0.1,0.1,0.3,0.1,0.4c0,0.1,0,0.3-0.1,0.3c-0.1,0.1-0.3,0.1-0.4,0.1h-3.1v10.5h3.1c0.1,0,0.3,0,0.4,0.1
		c0.1,0.1,0.1,0.3,0.1,0.3c0,0.1,0,0.3-0.1,0.4C113.7,92.8,113.6,92.8,113.3,92.8z"/>
	<path class="st0" d="M130.9,86.7c0,1.2-0.3,2.2-0.6,3.1c-0.4,1-1,1.8-1.8,2.3c-0.8,0.6-1.8,0.9-2.9,0.9s-2.2-0.3-2.9-0.9
		s-1.4-1.4-1.8-2.3c-0.4-1-0.6-2.1-0.6-3.1c0-1.2,0.3-2.2,0.6-3.1c0.4-1,1-1.8,1.8-2.3c0.8-0.6,1.8-0.9,2.9-0.9s2.2,0.3,2.9,0.9
		c0.8,0.6,1.4,1.4,1.8,2.3C130.6,84.6,130.9,85.6,130.9,86.7z M129.9,86.7c0-0.9-0.1-1.8-0.5-2.7c-0.4-0.8-0.9-1.5-1.5-2.1
		c-0.6-0.5-1.4-0.8-2.4-0.8s-1.7,0.3-2.4,0.8c-0.6,0.5-1.2,1.2-1.5,2.1c-0.4,0.8-0.5,1.7-0.5,2.7c0,0.9,0.1,1.8,0.5,2.7
		c0.4,0.8,0.8,1.5,1.5,2.1c0.6,0.5,1.4,0.8,2.4,0.8c0.9,0,1.8-0.3,2.4-0.8c0.6-0.5,1.2-1.2,1.5-2.1
		C129.6,88.6,129.9,87.7,129.9,86.7z"/>
	<path class="st0" d="M139.3,81.4h-1.7c-0.1,0-0.3,0-0.4-0.1c-0.1-0.1-0.1-0.1-0.1-0.3s0-0.3,0.1-0.4c0.1-0.1,0.3-0.1,0.4-0.1h3.1
		c0.1,0,0.3,0,0.3,0s0.1,0.1,0.1,0.3l5.1,10v-9.4h-1.5c-0.1,0-0.3,0-0.4-0.1c-0.1-0.1-0.1-0.1-0.1-0.3s0-0.3,0.1-0.4
		c0.1-0.1,0.3-0.1,0.4-0.1h3.6c0.1,0,0.3,0,0.4,0.1c0.1,0.1,0.1,0.3,0.1,0.4c0,0.1,0,0.3-0.1,0.3c-0.1,0-0.3,0.1-0.4,0.1h-1v10.9
		c0,0.3,0,0.4-0.1,0.5c-0.1,0.1-0.3,0.1-0.4,0.1s-0.3,0-0.4-0.1c-0.1-0.1-0.3-0.1-0.3-0.3l-5.8-11.2v10.5h1.4c0.1,0,0.3,0,0.4,0.1
		c0.1,0.1,0.1,0.3,0.1,0.3c0,0.1,0,0.3-0.1,0.4c-0.1,0.1-0.3,0.1-0.4,0.1h-3.7c-0.1,0-0.3,0-0.4-0.1c-0.1-0.1-0.1-0.3-0.1-0.4
		c0-0.1,0-0.3,0.1-0.3c0.1-0.1,0.3-0.1,0.4-0.1h1.3C139.3,91.9,139.3,81.4,139.3,81.4z"/>
	<path class="st0" d="M161.1,92.8h-5.3c-0.1,0-0.3,0-0.4-0.1c-0.1-0.1-0.1-0.3-0.1-0.4c0-0.1,0-0.3,0.1-0.3c0.1-0.1,0.3-0.1,0.4-0.1
		h1.7V81.4h-1.7c-0.1,0-0.3,0-0.4-0.1c-0.1-0.1-0.1-0.3-0.1-0.4s0-0.3,0.1-0.4c0.1-0.1,0.3-0.1,0.4-0.1h4.7c0.1,0,0.3,0,0.4,0.1
		c0.1,0.1,0.1,0.3,0.1,0.4s0,0.3-0.1,0.3c-0.1,0.1-0.3,0.1-0.4,0.1h-2.1v5.5l6-5.5l0.1-0.1c0,0-0.1,0-0.3,0h-0.9
		c-0.1,0-0.3,0-0.4-0.1c-0.1-0.1-0.1-0.1-0.1-0.3c0-0.1,0-0.3,0.1-0.3c0.1-0.1,0.3-0.1,0.4-0.1h3.8c0.1,0,0.3,0,0.4,0.1
		c0.1,0.1,0.1,0.3,0.1,0.4s0,0.3-0.1,0.4c-0.1,0.1-0.3,0.1-0.4,0.1H166l-4.6,4.4l5.5,6.3h1.4c0.1,0,0.3,0,0.4,0.1
		c0.1,0.1,0.1,0.3,0.1,0.3c0,0.1,0,0.3-0.1,0.4c-0.1,0.1-0.3,0.1-0.4,0.1H164c-0.1,0-0.3,0-0.4-0.1c-0.1-0.1-0.1-0.3-0.1-0.4
		c0-0.1,0-0.3,0.1-0.3c0.1-0.1,0.3-0.1,0.4-0.1h1.8l-5-5.6l-1.9,1.7v4h2.6c0.1,0,0.3,0,0.4,0.1c0.1,0.1,0.1,0.3,0.1,0.3
		c0,0.1,0,0.3-0.1,0.4C161.4,92.8,161.3,92.8,161.1,92.8z"/>
	<path class="st0" d="M177.8,92.8h-3.7c-0.1,0-0.3,0-0.4-0.1c-0.1-0.1-0.1-0.3-0.1-0.4c0-0.1,0-0.3,0.1-0.3c0.1-0.1,0.3-0.1,0.4-0.1
		h0.9l4.1-10.5h-2.3c-0.1,0-0.3,0-0.4-0.1c-0.1-0.1-0.1-0.3-0.1-0.4s0-0.3,0.1-0.3c0.1,0,0.3-0.1,0.4-0.1h3.2c0.4,0,0.6,0.3,0.9,0.6
		l3.8,10.8h0.8c0.1,0,0.3,0,0.4,0.1c0.1,0.1,0.1,0.1,0.1,0.3c0,0.1,0,0.3-0.1,0.4c-0.1,0.1-0.3,0.1-0.4,0.1h-3.8
		c-0.1,0-0.3,0-0.4-0.1c-0.1-0.1-0.1-0.3-0.1-0.4c0-0.1,0-0.3,0.1-0.3c0.1-0.1,0.3-0.1,0.4-0.1h1.9l-1.2-3.2h-5.1l-1.2,3.2h1.7
		c0.1,0,0.3,0,0.4,0.1c0.1,0.1,0.1,0.3,0.1,0.3c0,0.1,0,0.3-0.1,0.4C178.1,92.8,177.9,92.8,177.8,92.8z M177.7,87.8h4.5l-2.1-6.3
		L177.7,87.8z"/>
</g>
<g>
	<path class="st0" d="M101.5,41.7C101.4,41.7,101.4,41.7,101.5,41.7l-0.1-0.1l0.1-0.1l0,0h0.1c0.1,0,0.1,0,0.3,0.1
		c0.1,0,0.1,0.1,0.3,0.1c1.8,0,3.5,0,5.3,0c1,0,2.2,0,3.2,0c0.6,0,1.3,0,1.9,0c0.3,0,0.4,0,0.4,0.4c0,0.3,1.2,5.9,1.8,9.2l0.3,1.3
		c0.1,0.5,0.3,1.2,0.3,1.7c0,0.3,0.1,0.5,0.1,0.8l0,0l0,0h-5.1l0,0c0,0,0,0,0-0.1c0,0,0,0,0-0.1c0-0.5-0.1-1-0.1-1.5
		c-0.1-1.3-0.1-2.4-0.3-3.7c0-0.3,0-0.4,0-0.6c-0.1,0-0.1,0-0.3,0.1c-0.1,0-0.3,0.1-0.3,0.1c0,0.1,0,0.4,0,0.6
		c0.1,1.3,0.3,2.6,0.3,3.8c0,0.5,0.1,1,0.1,1.4l0,0l0,0c-0.1,0-0.1,0-0.1,0.1c0,0.3,0.1,0.4,0.3,0.4h0.1c0.1-0.1,0.4-0.1,0.5-0.1
		l0,0c1.5,0,3.2,0.1,4.9,0.3c0.4,0,0.5,0,0.6-0.1c0.1-0.1,0.1-0.3,0-0.5c-0.1-1.2-0.4-2.3-0.6-3.6s-0.8-4.1-1.3-6.4
		c-0.3-1.5-0.5-2.7-0.6-3.2c-0.1-0.4-0.3-0.6-0.8-0.5c-0.1,0-0.1,0-0.3,0c-0.3,0-0.6,0-0.9,0c-2.1,0-3.8,0-5.5,0
		c-5.9,0-11.8,0-17.7,0h-6.9l0,0l0,0l0.1-2.9l0,0c0,0,0,0,0.1,0h0.1c0.6,0,1-0.1,1.4-0.5c0.4-0.4,0.5-0.9,0.4-1.5
		c0-0.5-0.1-1-0.3-1.5c0-0.4-0.1-0.6-0.1-1c0-0.3-0.1-0.4-0.3-0.4c-0.1,0-0.4,0-0.5,0c-0.5,0-1,0-1.4,0c-0.3,0-0.5,0-0.8,0.4
		c-0.5,0.9-0.8,1.7-1,2.6c-0.3,0.9,0.1,1.5,1.2,1.8c0.1,0,0.4,0.1,0.5,0.1s0.1,0,0.3,0l0,0v2.9l0,0H81c-0.1,0-0.1,0-0.3,0H79
		c-1.9,0-3.8,0-5.8,0c-0.3,0-0.4,0.1-0.4,0.3c0,0.1-0.1,0.4-0.1,0.5c-0.1,0.4-0.3,0.8-0.3,1.2c-0.4,1.9-0.8,4-1.2,6.3
		c-0.3,1.2-0.4,2.4-0.6,3.6c-0.1,0.5-0.1,1-0.3,1.5l0,0c0,0,0,0,0,0.1l0,0l0,0l-0.1,0.1l0.1,0.1l0,0h0.1c1.5,0,3.1,0,4.6,0
		c0.3,0,0.5,0,0.8,0h0.4c0-0.1,0-0.1,0-0.3c0-0.1,0-0.4,0.1-0.5c0-1.5,0.1-3.1,0.1-4.5v-0.9c0-0.8,0-1.7,0-2.4c0-0.3,0-0.4-0.1-0.6
		c0-0.1,0-0.1,0-0.3h-0.1c0,0.1,0,0.1,0,0.3c0,0.1-0.1,0.4-0.1,0.5c-0.1,2.1-0.1,4.2-0.3,6.5c0,0.4,0,0.9,0,1.3c0,0.3,0,0.4,0,0.5
		l0,0l0,0l-5-0.1l0,0l0,0c0.3-1.5,0.5-2.9,0.8-4.5c0.5-2.8,1-5.9,1.7-8.7l0,0h8.8c5.9,0,11.9,0,17.9,0l0,0c0-0.1,0.1-0.1,0.1-0.3
		c0,0,0,0,0-0.1l0,0h0.1l0,0c0,0,0,0,0,0.1V41C100.9,41.8,101.1,41.8,101.5,41.7C101.5,41.8,101.5,41.8,101.5,41.7z M80.1,37.6
		c-0.5-0.3-0.8-0.6-0.5-1.2c0.3-0.6,0.5-1.3,0.8-1.9c0.1-0.1,0.1-0.3,0.3-0.5c0-0.1,0.1-0.1,0.3-0.1c0.5,0,1.2-0.1,1.7-0.1h0.5l0,0
		c0,0.3,0.1,0.5,0.1,0.8c0.1,0.9,0.3,1.7,0.1,2.6c-0.1,0.4-0.4,0.6-0.8,0.8c-0.3,0-0.5,0-0.6,0C81.1,37.9,80.6,37.8,80.1,37.6z"/>
</g>
<g>
	<path class="st0" d="M115.5,51.4c-0.3-1.3-0.8-4.1-1.3-6.4c-0.3-1.5-0.5-2.7-0.6-3.2c-0.1-0.5-0.4-0.6-0.9-0.6c-0.1,0-0.1,0-0.3,0
		c-0.3,0-0.6,0-0.9,0c-1.9,0-3.7,0-5.4,0H106c-5.9,0-11.8,0-17.7,0h-6.9l0,0l0.1-2.9l0,0h0.1c0.6,0,1.2-0.1,1.4-0.5
		c0.4-0.4,0.5-0.9,0.4-1.5c0-0.5-0.1-1-0.3-1.5c0-0.4-0.1-0.6-0.1-1c0-0.3-0.1-0.4-0.4-0.4c-0.1,0-0.4,0-0.5,0c-0.5,0-1,0-1.4,0
		c-0.3,0-0.6,0-0.8,0.4c-0.5,0.9-0.9,1.8-1,2.7c-0.3,1,0.3,1.7,1.2,1.9c0.1,0,0.4,0.1,0.5,0.1s0.1,0,0.3,0v2.9l0,0
		c-0.1,0-0.1,0-0.3,0h-1.8c-1.9,0-3.8,0-5.8,0c-0.3,0-0.4,0.1-0.5,0.4c0,0.1-0.1,0.4-0.1,0.5c-0.1,0.4-0.3,0.8-0.3,1.2
		c-0.4,1.9-0.8,4-1.2,6.3c-0.3,1.2-0.4,2.4-0.6,3.6c-0.1,0.5-0.1,1-0.3,1.5l0,0l0,0l0,0l0,0C70,54.9,70,54.9,70,55
		c0,0.1,0.1,0.1,0.3,0.3l0,0c0,0,0.1,0,0.3,0c1.5,0,3.1,0,4.6,0c0.3,0,0.5,0,0.8,0h0.4l0,0c0-0.1,0-0.1,0-0.3c0-0.1,0-0.4,0.1-0.5
		c0-1.5,0.1-3.1,0.1-4.5v-0.9c0-0.8,0-1.7,0-2.4c0-0.3,0-0.4-0.1-0.6c0-0.1,0-0.1,0-0.3l0,0h-0.1l0,0l0,0c0,0.1,0,0.1,0,0.3
		c0,0.1-0.1,0.4-0.1,0.5c-0.1,2.1-0.1,4.2-0.3,6.5c0,0.4,0,0.9,0,1.3c0,0.1,0,0.4,0,0.5L71,54.7c0.3-1.4,0.5-2.9,0.8-4.4
		c0.5-2.8,1-5.8,1.7-8.7h8.7c5.9,0,11.9,0,17.9,0l0,0c-8.7,0-17.3,0-26,0c-0.3,0-0.5,0-0.8,0c-1,4.4-1.7,8.7-2.6,13.2
		c1.7,0,3.3,0.1,5,0.1c0-0.6,0-1.3,0-1.9c0.1-2.2,0.1-4.4,0.3-6.5c0-0.3,0.1-0.5,0.1-0.8h0.1c0,0.3,0.1,0.5,0.1,0.9c0,1,0,2.1,0,3.1
		c0,1.7-0.1,3.2-0.1,4.9c0,0.3-0.1,0.5-0.1,0.8c-0.4,0-0.8,0-1.2,0c-1.5,0-3.1,0-4.6,0c-0.1,0-0.1,0-0.1,0c-0.1,0-0.3-0.1-0.3-0.1
		c0-0.1,0.1-0.1,0.1-0.3c0,0,0.1,0,0-0.1c0.3-1.7,0.6-3.5,0.9-5.1c0.4-2.1,0.8-4.2,1.2-6.3c0.1-0.6,0.3-1.2,0.4-1.7
		c0-0.3,0.3-0.4,0.4-0.4c2.6,0,5.1,0,7.7,0c0.1,0,0.3,0,0.4,0c0-1,0-1.9,0-2.9c-0.3,0-0.5-0.1-0.8-0.1c-0.9-0.3-1.3-0.9-1.2-1.8
		c0.3-0.9,0.5-1.8,1-2.6c0.3-0.5,0.6-0.5,0.9-0.5c0.6,0,1.3,0,1.9,0c0.3,0,0.3,0.1,0.4,0.4c0.1,0.8,0.3,1.7,0.4,2.4
		c0.1,1.2-0.5,2.1-1.8,2.1c0,0-0.1,0-0.3,0c0,1-0.1,1.9-0.1,2.9c0.1,0,0.1,0,0.3,0c8.1,0,16.3,0,24.4,0c1.8,0,3.6,0,5.5,0
		c0.4,0,0.8,0,1.2,0c0.5,0,0.8,0.1,0.8,0.6C113.8,42.9,115.1,49.4,115.5,51.4c0.1,1.2,0.4,2.4,0.5,3.6c0.1,0.6-0.1,0.8-0.6,0.6
		c-1.7-0.1-3.3-0.1-4.9-0.3c-0.1,0-0.4,0.1-0.6,0.3c-0.1-0.1-0.3-0.1-0.3-0.5c0-0.1,0-0.1,0.1-0.3c-0.1-1.8-0.3-3.6-0.4-5.3
		c0-0.3,0-0.4,0-0.6l0,0c0,0.1,0,0.4,0,0.6c0.1,1.3,0.3,2.6,0.3,3.8c0,0.5,0.1,1,0.1,1.4l0,0c-0.1,0-0.1,0.1-0.1,0.3
		c0,0.3,0.1,0.4,0.3,0.5l0,0l0,0h0.1c0.1-0.1,0.4-0.1,0.4-0.1l0,0c1.5,0,3.2,0.1,4.9,0.3c0.4,0,0.5,0,0.6-0.1
		c0.1-0.1,0.1-0.3,0.1-0.6C115.9,53.8,115.8,52.7,115.5,51.4z"/>
</g>
<g>
	<path class="st0" d="M100.6,41.8L100.6,41.8L100.6,41.8c0.3,0,0.6,0,1,0l0,0C101.3,41.8,100.9,41.8,100.6,41.8z"/>
</g>
<g>
	<path class="st0" d="M109.9,49.6c0.1,1.8,0.3,3.6,0.4,5.3c0,0,0,0,0,0.1c1.7,0,3.5,0,5.1,0c-0.1-0.8-0.3-1.5-0.5-2.4
		c-0.6-3.2-2.1-10.3-2.1-10.5s-0.1-0.3-0.4-0.3c-1.7,0-3.5,0-5.1,0c-1.8,0-3.5,0-5.3,0l0,0c1.7,0,3.5,0,5.1,0c1,0,2.2,0,3.2,0
		c0.6,0,1.3,0,1.9,0c0.3,0,0.3,0,0.3,0.3s1.2,5.6,1.8,9.2l0.3,1.3c0.1,0.5,0.3,1.2,0.3,1.7c0,0.3,0.1,0.5,0.1,0.6h-5l0,0l0,0
		c0-0.5-0.1-1-0.1-1.5C110.1,52.2,110,50.9,109.9,49.6c0-0.3,0-0.4,0-0.6l0,0l0,0C109.9,49.2,109.9,49.5,109.9,49.6z"/>
</g>
<g>
	<path class="st0" d="M82.4,37.8c0.4,0,0.6-0.3,0.8-0.6c0.3-1.2,0-2.2-0.3-3.3c-0.8,0-1.4,0.1-2.2,0.1c-0.1,0-0.1,0.1-0.1,0.1
		c-0.3,0.8-0.6,1.5-0.9,2.3c-0.1,0.5,0,0.9,0.5,1.2C80.9,37.9,81.7,37.9,82.4,37.8z M80.2,37.6c-0.5-0.3-0.6-0.6-0.5-1
		c0.3-0.6,0.5-1.3,0.8-1.9c0.1-0.1,0.1-0.3,0.3-0.5l0.1-0.1c0.5,0,1.2-0.1,1.7-0.1h0.4c0,0.3,0.1,0.5,0.1,0.8
		c0.1,0.9,0.3,1.7,0.1,2.6c-0.1,0.4-0.4,0.6-0.6,0.6C81.5,37.9,80.8,37.8,80.2,37.6z"/>
</g>
<g>
	<path class="st0" d="M101.5,41.8c-0.3,0-0.6,0-0.9,0l0,0C100.9,41.8,101.3,41.8,101.5,41.8L101.5,41.8z"/>
</g>
<g>
	<path class="st0" d="M109.9,49.6c0.1,1.3,0.3,2.4,0.3,3.7c0,0.5,0.1,1,0.1,1.5c0,0,0,0,0,0.1c0,0,0,0,0,0.1l0,0h5.1l0,0l0,0
		c0-0.3-0.1-0.5-0.1-0.8c-0.1-0.5-0.3-1.2-0.3-1.7l-0.3-1.3c-0.6-3.3-1.8-9-1.8-9.2c0-0.3-0.1-0.4-0.4-0.4c-0.6,0-1.3,0-1.9,0
		c-1,0-2.2,0-3.2,0c-1.8,0-3.5,0-5.3,0l0,0c1.8,0,3.5,0,5.3,0c1.7,0,3.5,0,5.1,0c0.3,0,0.3,0,0.4,0.3c0,0.4,1.4,7.3,2.1,10.5
		c0.1,0.8,0.3,1.7,0.5,2.4c-1.7,0-3.5,0-5.1,0c0-0.1,0-0.1,0-0.1C110.1,53.2,110,51.4,109.9,49.6c0-0.3,0-0.4,0-0.6l0,0
		C109.9,49.2,109.9,49.5,109.9,49.6z"/>
</g>
<g>
	<path class="st0" d="M82.2,41.8h-8.8l0,0c-0.8,2.8-1.3,5.9-1.7,8.7c-0.3,1.4-0.5,2.9-0.8,4.5l0,0l0,0l5,0.1l0,0l0,0
		c0-0.1,0-0.4,0-0.5c0-0.4,0-0.9,0-1.3c0.1-2.2,0.1-4.4,0.3-6.5c0-0.1,0-0.4,0.1-0.5c0-0.1,0-0.1,0-0.3h0.1c0,0.1,0,0.1,0,0.3
		c0,0.1,0.1,0.4,0.1,0.6c0,0.8,0,1.7,0,2.4v0.9c0,1.5-0.1,3.1-0.1,4.5c0,0.1,0,0.4-0.1,0.5c0,0.1,0,0.1,0,0.3h-0.4
		c-0.3,0-0.5,0-0.8,0c-1.5,0-3.1,0-4.6,0h-0.1l0,0c-0.1,0-0.1-0.1-0.1-0.1s0-0.1,0.1-0.1l0,0l0,0c0,0,0,0,0-0.1l0,0
		c0.1-0.5,0.1-1,0.3-1.5c0.3-1.2,0.4-2.4,0.6-3.6c0.4-2.3,0.8-4.5,1.2-6.3c0.1-0.4,0.1-0.8,0.3-1.2c0-0.1,0.1-0.4,0.1-0.5
		c0-0.3,0.1-0.3,0.4-0.3c1.9,0,3.8,0,5.8,0h1.8c0.1,0,0.1,0,0.3,0h0.1l0,0v-2.9l0,0c-0.1,0-0.3,0-0.3,0c-0.1,0-0.4-0.1-0.5-0.1
		c-0.9-0.3-1.3-0.9-1.2-1.8c0.1-0.9,0.5-1.8,1-2.6c0.3-0.9,0.5-0.9,0.8-0.9c0.5,0,1,0,1.4,0c0.1,0,0.4,0,0.5,0
		c0.1,0,0.3,0.1,0.3,0.4c0,0.4,0.1,0.6,0.1,1c0.1,0.5,0.1,1,0.3,1.5c0,0.6-0.1,1.2-0.4,1.5c-0.3,0.4-0.8,0.5-1.4,0.5h-0.1
		c0,0,0,0-0.1,0l0,0l-0.1,2.9l0,0l0,0h6.9c5.9,0,11.8,0,17.7,0c1.7,0,3.5,0,5.5,0c0.3,0,0.6,0,0.9,0c0.1,0,0.1,0,0.3,0
		c0.5,0,0.6,0.1,0.8,0.5c0.1,0.4,0.4,1.7,0.6,3.2c0.4,2.3,1,5.1,1.3,6.4c0.3,1.2,0.4,2.4,0.6,3.6c0,0.3,0,0.4,0,0.5
		c-0.1,0.1-0.3,0.1-0.6,0.1c-1.7-0.1-3.3-0.1-4.9-0.3l0,0c-0.1,0-0.3,0.1-0.5,0.1h-0.1c-0.1-0.1-0.3-0.1-0.3-0.4
		c0-0.1,0-0.1,0.1-0.1l0,0l0,0c0-0.5-0.1-1-0.1-1.4c-0.1-1.3-0.3-2.6-0.3-3.8c0-0.3,0-0.4,0-0.6l0,0c0,0.3,0,0.4,0,0.6
		c0.1,1.8,0.3,3.5,0.4,5.3c-0.1,0.1-0.1,0.1-0.1,0.3c0,0.3,0.1,0.4,0.3,0.5c0.1-0.1,0.5-0.3,0.6-0.3c1.7,0,3.3,0.1,4.9,0.3
		c0.6,0,0.8-0.1,0.6-0.6c-0.1-1.2-0.4-2.4-0.6-3.6c-0.4-2.1-1.7-8.5-1.9-9.6c-0.1-0.5-0.4-0.6-0.8-0.6c-0.4,0-0.8,0-1.2,0
		c-1.8,0-3.6,0-5.5,0c-8.1,0-16.3,0-24.4,0c-0.1,0-0.3,0-0.3,0c0-1,0.1-1.9,0.1-2.9c0.1,0,0.1,0,0.3,0c1.4,0,1.9-0.9,1.8-2.1
		c-0.1-0.8-0.3-1.7-0.4-2.4c0-0.3-0.1-0.4-0.4-0.4c-0.6,0-1.3,0-1.9,0c-0.3,0-0.6,0-0.8,0.4c-0.5,0.8-0.8,1.7-1,2.6
		c-0.3,0.9,0.3,1.5,1.2,1.8c0.3,0.1,0.5,0.1,0.8,0.1c0,1,0,1.9,0,2.9c-0.1,0-0.3,0-0.4,0c-2.6,0-5.1,0-7.7,0c-0.3,0-0.4,0.1-0.4,0.4
		c-0.1,0.5-0.4,1.2-0.4,1.7c-0.4,2.1-0.8,4.2-1.2,6.3c-0.3,1.7-0.6,3.5-0.9,5.1V55C70,55.1,70,55.1,70,55.2s0.1,0.1,0.3,0.1h0.1
		c1.5,0,3.1,0,4.6,0c0.4,0,0.8,0,1.2,0c0-0.3,0.1-0.5,0.1-0.8c0-1.7,0.1-3.2,0.1-4.9c0-1,0-2.1,0-3.1c0-0.3-0.1-0.5-0.1-0.9h-0.1
		c0,0.3-0.1,0.5-0.1,0.8c-0.1,2.2-0.1,4.4-0.3,6.5c0,0.6,0,1.3,0,1.9c-1.7,0-3.3-0.1-5-0.1c0.9-4.4,1.4-8.8,2.6-13.2
		c0.3,0,0.5,0,0.8,0c8.7,0,17.3,0,26,0l0,0C94.1,41.8,88.1,41.8,82.2,41.8z"/>
</g>
<g>
	<path class="st0" d="M82.4,37.9c0.4,0,0.6-0.3,0.8-0.8c0.3-0.9,0-1.8-0.1-2.6c0-0.3-0.1-0.5-0.1-0.8l0,0h-0.5
		c-0.6,0-1.2,0.1-1.7,0.1c-0.1,0-0.1,0.1-0.3,0.1c-0.1,0.1-0.1,0.3-0.3,0.5c-0.3,0.6-0.5,1.3-0.8,1.9c-0.1,0.5,0,0.9,0.5,1.2
		c0.5,0.3,0.9,0.4,1.5,0.4C81.9,37.9,82.2,37.9,82.4,37.9z M79.7,36.4c0.3-0.8,0.6-1.5,0.9-2.3l0.1-0.1c0.8,0,1.4-0.1,2.2-0.1
		c0.1,1.2,0.5,2.2,0.3,3.3c-0.1,0.4-0.4,0.6-0.8,0.6c-0.8,0.1-1.5,0-2.2-0.3C79.7,37.3,79.5,36.9,79.7,36.4z"/>
</g>
<g>
	<path class="st0" d="M107.3,49.9c0,1.8,0,3.5,0.1,5.1c0,0.1,0,0.3,0,0.3v0.1l0,0h-5.6l0,0v-0.1c0-0.1,0-0.1,0-0.3v-1.9
		c0-0.5,0-0.9,0-1.4c-0.1,0-0.4,0.1-0.5,0.1v0.1c0,0.5,0,1,0,1.5c0,0.3,0,0.5,0,0.6l0,0l-0.8,0.1l0,0l0,0v-0.1c0-0.1,0-0.3,0-0.3
		c0-0.4,0-0.8,0-1.2c0-0.1,0-0.4,0-0.5c-0.1,0-0.3,0.1-0.4,0.1l-0.3,3.2l0,0l-11.7,0.1l0,0l0,0l0,0c0-0.1,0-0.3,0-0.4
		c0-0.3,0-0.6,0-0.9c0-0.5,0-1,0-1.4c0-0.6,0-1.3,0-2.1c0-0.6,0-1.3,0-1.9c0-0.9,0-1.8,0-2.6c0-0.1,0-0.4-0.1-0.5c0-0.1,0-0.1,0-0.3
		l0,0v0.1c0,0.1-0.1,0.3-0.1,0.3c0,0.3-0.1,0.5-0.1,0.9v0.5c0,1.7,0.1,3.5,0.1,5.1c0,0.8,0.1,1.4,0.1,2.2c0,0.4,0,0.9,0.1,1.3
		c0,0.3,0.1,0.3,0.3,0.3l0,0c0.3,0,0.4,0,0.6,0s0.4,0,0.6,0s0.8,0,1.3,0c2.1,0,3.8,0,4,0l0,0l0,0v0.1c0,0.8,0.4,1.5,1.2,2.1
		c1.3,0.9,2.7,1.5,4.2,1.7c0.1,0,0.3,0,0.4,0c0.1,0,0.1,0,0.3,0l0,0l0,0l-12.6,0.1l0,0l0,0l0,0l0,0c0.3-0.1,0.5-0.1,0.6-0.1
		c0.5-0.1,1-0.3,1.5-0.4c1.4-0.5,2.2-1.2,2.8-2.4c0,0,0,0,0-0.1l0,0h-0.3c-0.3,0.5-0.6,0.9-1.2,1.3c-1,0.8-2.2,1.2-3.5,1.4
		c-0.4,0.1-0.8,0.1-1.2,0.3c-0.4,0.1-0.8,0.1-1.2,0.3c0,0,0,0.1,0,0.3c0,0.1,0,0.3,0.1,0.3c0.1,0,0.3,0,0.5,0c0.8,0,1.5,0.1,2.3,0.1
		c1.4,0,2.8,0,4.2,0c1.3,0,2.6,0,3.8,0c0.8,0,1.5,0,2.2,0s1.2,0,1.8,0l0,0c0.4,0,0.8,0,1.2-0.1c0.1,0,0.3-0.1,0.4-0.3
		c0-0.1,0.1-0.1,0.1-0.3c0-0.3-0.3-0.3-0.4-0.3h-0.1h-0.3c-0.6,0-1.2-0.1-1.8-0.3c-1.5-0.3-2.8-0.8-3.7-1.7c-0.5-0.5-0.8-1-0.9-1.8
		l0,0l0,0c0.1,0,0.4,0,0.5,0c0.4,0,0.8,0,1,0c0.5,0,1,0,1.5-0.1c0.5,0,1,0,1.5-0.1c0.5,0,0.5-0.1,0.5-0.5v-0.1c0-0.1,0-0.1,0-0.3
		c0,0,0-0.1,0.1-0.1c0.1,0,0.4-0.1,0.5-0.1c0.1,0,0.1,0,0.3,0l0,0l0,0c0,0.1,0,0.1,0,0.3c0,0.1,0,0.3,0,0.4c0.1,0.5,0.1,0.5,0.6,0.5
		h0.9c1.5,0,3.1,0,4.6-0.1c0.1,0,0.3-0.1,0.4-0.1h0.1l0,0l0,0c0-0.1-0.1-0.6-0.1-0.8c0-0.5,0-0.9,0-1.2c0-0.3,0-0.5,0-0.9
		c0-1.2,0-2.2,0.1-3.2C107.8,49.7,107.7,49.7,107.3,49.9C107.4,49.9,107.4,49.9,107.3,49.9z"/>
</g>
<g>
	<path class="st0" d="M107.3,55c0,0.1,0,0.3,0,0.3v0.1h-5.5l0,0c0-0.1,0-0.1,0-0.3v-1.9c0-0.5,0-0.9,0-1.4l0,0c0,1.2,0,2.2,0,3.3
		c0,0.1,0,0.3,0,0.4h5.6C107.4,55.2,107.4,55.1,107.3,55c0-1.7,0-3.3,0-5.1l0,0C107.3,51.7,107.3,53.3,107.3,55z"/>
</g>
<g>
	<path class="st0" d="M101.1,52.2c0,0.5,0,1,0,1.5c0,0.3,0,0.4,0,0.6l-0.6,0.1v-0.1c0-0.1,0-0.3,0-0.3c0-0.4,0-0.8,0-1.2
		c0-0.1,0-0.4,0-0.5l0,0c0,0.5,0,1.2,0,1.7c0,0.1,0,0.3,0,0.5c0.3,0,0.5-0.1,0.8-0.1C101.1,53.6,101.1,52.8,101.1,52.2V52l0,0
		C101.1,52,101.1,52,101.1,52.2z"/>
</g>
<g>
	<path class="st0" d="M107.9,52.8c0,0.8,0,1.3-0.1,2.1c0,0.1,0.1,0.6,0.1,0.8h0.1c-0.1,0.1-0.4,0.3-0.5,0.3c-1.8,0-3.7,0.1-5.5,0.1
		c-0.5,0-0.5,0-0.6-0.5c0-0.3,0-0.4-0.1-0.6c-0.3,0-0.5,0.1-0.8,0.1l-0.1,0.1c0,0.1,0,0.3,0,0.3c0,0.5-0.1,0.5-0.6,0.6
		c-1,0-2.1,0.1-3.1,0.1c-0.5,0-1,0-1.5,0c0.1,0.8,0.4,1.3,0.9,1.8c1,0.9,2.3,1.4,3.7,1.7c0.6,0.1,1.4,0.1,2.1,0.3
		c0.3,0,0.5,0,0.6,0.3c0,0.3-0.3,0.5-0.5,0.6c-0.4,0.1-0.8,0.1-1.2,0.1c-1.3,0-2.7,0-4,0c-2.7,0-5.4,0.1-8.1,0.1
		c-0.9,0-1.8-0.1-2.7-0.1c-0.1,0-0.1-0.5,0-0.5c0.8-0.3,1.5-0.4,2.4-0.5c1.2-0.3,2.4-0.6,3.5-1.4c0.5-0.4,0.9-0.8,1.2-1.3h0.4
		l-0.1,0.3c-0.8,1.3-1.4,1.9-2.8,2.4c-0.8,0.3-1.4,0.4-2.2,0.6c0,0,0,0,0,0.1c4.2,0,8.3-0.1,12.6-0.1c-0.3,0-0.4-0.1-0.6-0.1
		c-1.5-0.3-3.1-0.8-4.4-1.7c-0.6-0.5-1.2-1.2-1.2-2.1c0-0.1,0-0.1,0-0.3c-0.1,0-4,0-5.3,0c-0.4,0-0.8,0-1.2,0
		c-0.3,0-0.3-0.1-0.3-0.3c0-1.2-0.1-2.3-0.1-3.5c0-1.9-0.1-3.7-0.1-5.6c0-0.3,0-0.5,0.1-0.9c0-0.1,0.1-0.3,0.1-0.4h0.1
		c0,0.3,0.1,0.5,0.1,0.8c0,1.5,0,3.1,0,4.6c0,1.2,0,2.3,0.1,3.5c0,0.5,0,0.9,0,1.3c4,0,7.8-0.1,11.7-0.1c0.1-1,0.1-2.2,0.3-3.2l0,0
		l-0.3,3.2l-11.7,0.1c0-0.1,0-0.3,0-0.4c0-0.3,0-0.6,0-0.9c0-0.5,0-1,0-1.4c0-0.6,0-1.3,0-2.1c0-0.6,0-1.3,0-1.9c0-0.9,0-1.8,0-2.6
		c0-0.1,0-0.4-0.1-0.5c0-0.1,0-0.1,0-0.3l0,0l0,0h-0.1l0,0V46c0,0.1-0.1,0.3-0.1,0.3c0,0.3-0.1,0.5-0.1,0.9v0.5
		c0,1.7,0.1,3.5,0.1,5.1c0,0.8,0.1,1.4,0.1,2.2c0,0.4,0,0.9,0.1,1.3c0,0.3,0.1,0.4,0.4,0.4l0,0c0.1,0,0.4,0,0.5,0c0.3,0,0.4,0,0.6,0
		s0.8,0,1.3,0c1.4,0,3.7,0,4,0l0,0v0.1c0,0.9,0.4,1.5,1.3,2.2c1.3,0.9,2.7,1.5,4.4,1.7h0.1L89,60.8c0.3,0,0.4-0.1,0.6-0.1
		c0.5-0.1,1-0.3,1.5-0.4c1.4-0.5,2.2-1.2,2.8-2.4c0,0,0,0,0-0.1l0.1-0.1l0,0l0,0h-0.4l0,0c-0.3,0.5-0.6,0.9-1.2,1.3
		c-1,0.8-2.2,1-3.5,1.4c-0.4,0.1-0.8,0.1-1.2,0.3c-0.4,0.1-0.8,0.1-1.2,0.3c-0.9-0.4-0.9-0.3-0.9-0.1s0,0.3,0.1,0.3
		c0.1,0,0.3,0,0.5,0c0.8,0,1.4,0.1,2.2,0.1h0.1c1.4,0,2.8,0,4.2,0c1.3,0,2.6,0,3.8,0c0.8,0,1.5,0,2.2,0c0.6,0,1.2,0,1.8,0l0,0
		c0.4,0,0.8,0,1.2-0.1c0.1,0,0.4-0.1,0.4-0.3c0.1-0.3,0.1-0.3,0.1-0.4c-0.1-0.3-0.3-0.3-0.5-0.3h-0.1h-0.3c-0.6,0-1.2-0.1-1.8-0.3
		c-1.5-0.3-2.8-0.8-3.7-1.7c-0.5-0.4-0.8-1-0.9-1.7c0.1,0,0.3,0,0.5,0c0.4,0,0.8,0,1,0c0.5,0,1,0,1.5-0.1c0.5,0,1,0,1.5-0.1
		c0.5,0,0.6-0.1,0.6-0.6v-0.1c0-0.1,0-0.1,0-0.1s0-0.1,0.1-0.1c0.1,0,0.4-0.1,0.5-0.1h0.1c0,0.1,0,0.1,0,0.3c0,0.1,0,0.3,0,0.4
		c0.1,0.5,0.1,0.5,0.6,0.5h0.9c1.5,0,3.1,0,4.6-0.1c0.1,0,0.3-0.1,0.4-0.1l0.1-0.1l0,0l0,0h-0.1c0-0.1-0.1-0.6-0.1-0.8l0,0
		c0-0.5,0-0.8,0-1.2C107.9,53.5,107.9,53.1,107.9,52.8c0.1-1.2,0.1-2.2,0.1-3.2l0,0C108.1,50.6,107.9,51.8,107.9,52.8z M107.9,54.9
		L107.9,54.9L107.9,54.9z"/>
</g>
<g>
	<path class="st0" d="M107.4,55c0,0.1,0,0.3,0,0.5h-5.6c0-0.1,0-0.3,0-0.4c0-1.2,0-2.2,0-3.3l0,0c0,0.5,0,0.9,0,1.4v1.9
		c0,0.1,0,0.1,0,0.3v0.1l0,0h5.6l0,0v-0.1C107.4,55.1,107.4,55,107.4,55c0-1.5,0-3.3,0-5.1l0,0C107.3,51.5,107.3,53.2,107.4,55z"/>
</g>
<g>
	<path class="st0" d="M101.1,52.2c0,0.8,0,1.4,0,2.2c-0.1,0-0.4,0-0.8,0.1c0-0.1,0-0.3,0-0.5c0-0.5,0-1.2,0-1.7l0,0
		c0,0.1,0,0.4,0,0.5c0,0.4,0,0.8,0,1.2c0,0.1,0,0.3,0,0.3v0.1l0,0l0,0l0.8-0.1l0,0c0-0.3,0-0.5,0-0.6
		C101.3,53.1,101.3,52.6,101.1,52.2V52l0,0C101.1,52,101.1,52,101.1,52.2z"/>
</g>
<g>
	<path class="st0" d="M107.9,52.8c0,0.4,0,0.6,0,0.9c0,0.4,0,0.8,0,1.2c0,0.1,0.1,0.6,0.1,0.8l0,0l0,0h-0.1
		c-0.1,0.1-0.3,0.1-0.4,0.1c-1.5,0-3.1,0.1-4.6,0.1H102c-0.5,0-0.5,0-0.6-0.5c0-0.1,0-0.3,0-0.4c0-0.1,0-0.1,0-0.3l0,0l0,0
		c-0.1,0-0.1,0-0.3,0c-0.3,0-0.4,0.1-0.5,0.1c-0.1,0-0.1,0.1-0.1,0.1c0,0.1,0,0.1,0,0.3v0.1c0,0.5-0.1,0.5-0.5,0.5
		c-0.5,0-1,0-1.5,0.1c-0.5,0-1,0-1.5,0.1c-0.4,0-0.6,0-1,0c-0.1,0-0.4,0-0.5,0l0,0l0,0c0.1,0.8,0.4,1.4,0.9,1.8
		c1,0.9,2.2,1.4,3.7,1.7c0.6,0.1,1.2,0.1,1.8,0.3h0.3h0.1c0.3,0,0.4,0,0.4,0.3c0,0.1,0,0.1-0.1,0.3c-0.1,0.1-0.3,0.3-0.4,0.3
		c-0.5,0.1-0.8,0.1-1.2,0.1l0,0c-0.6,0-1.2,0-1.8,0c-0.8,0-1.5,0-2.2,0c-1.3,0-2.6,0-3.8,0c-1.4,0-2.8,0-4.2,0c-0.8,0-1.5,0-2.3-0.1
		c-0.1,0-0.3,0-0.5,0c0,0-0.1-0.1-0.1-0.3s0-0.3,0-0.3c0.4-0.1,0.8-0.1,1.2-0.3c0.4-0.1,0.8-0.1,1.2-0.3c1.3-0.3,2.4-0.6,3.5-1.4
		c0.5-0.4,0.9-0.8,1.2-1.3h0.3l0,0V57c-0.8,1.3-1.4,1.9-2.8,2.4c-0.5,0.1-1,0.3-1.5,0.4c-0.3,0-0.5,0.1-0.6,0.1l0,0l0,0l0,0l0,0
		l12.6-0.1l0,0l0,0c-0.1,0-0.1,0-0.3,0c-0.1,0-0.3,0-0.4,0c-1.5-0.3-3.1-0.8-4.2-1.7c-0.8-0.5-1.2-1.3-1.2-2.1V56l0,0l0,0
		c-0.1,0-1.9,0-4,0c-0.5,0-0.9,0-1.3,0c-0.3,0-0.4,0-0.6,0c-0.1,0-0.4,0-0.6,0l0,0c-0.3,0-0.3,0-0.3-0.3c0-0.4,0-0.9-0.1-1.3
		c0-0.8-0.1-1.4-0.1-2.2c0-1.7-0.1-3.5-0.1-5.1v-0.5c0-0.3,0-0.6,0.1-0.9c0-0.1,0-0.3,0.1-0.3v-0.1l0,0c0,0.1,0,0.1,0,0.3
		c0,0.1,0.1,0.4,0.1,0.5c0,0.9,0,1.8,0,2.6c0,0.6,0,1.3,0,1.9c0,0.6,0,1.4,0,2.1c0,0.5,0,1,0,1.4s0,0.6,0,0.9c0,0.1,0,0.3,0,0.4l0,0
		l0,0l0,0l11.7-0.1l0,0l0.3-3.2l0,0c-0.1,1-0.1,2.2-0.3,3.2c-3.8,0-7.8,0.1-11.7,0.1c0-0.4,0-0.9,0-1.3c0-1.2,0-2.3-0.1-3.5
		c0-1.5,0-3.1,0-4.6c0-0.3-0.1-0.5-0.1-0.8h-0.1c0,0.1-0.1,0.3-0.1,0.4c0,0.3-0.1,0.5-0.1,0.9c0,1.9,0.1,3.7,0.1,5.6
		c0,1.2,0.1,2.3,0.1,3.5c0,0.3,0.1,0.3,0.3,0.3c0.4,0,0.8,0,1.2,0c1.3,0,5-0.1,5.3,0c0,0,0,0.1,0,0.3c0,0.9,0.5,1.5,1.2,2.1
		c1.3,1,2.7,1.5,4.4,1.7c0.3,0,0.4,0,0.6,0.1c-4.2,0-8.3,0.1-12.6,0.1c0,0,0,0,0-0.1c0.8-0.3,1.5-0.4,2.2-0.6
		c1.4-0.5,2.2-1.2,2.8-2.4l0.1-0.3h-0.4c-0.3,0.5-0.6,0.9-1.2,1.3c-1,0.8-2.2,1.2-3.5,1.4c-0.8,0.3-1.5,0.4-2.4,0.5
		c-0.1,0-0.1,0.5,0,0.5c0.9,0,1.8,0.1,2.7,0.1c2.7,0,5.4-0.1,8.1-0.1c1.3,0,2.7,0,4,0c0.4,0,0.8,0,1.2-0.1c0.3,0,0.5-0.4,0.5-0.6
		c-0.1-0.3-0.4-0.3-0.6-0.3c-0.6-0.1-1.4-0.1-2.1-0.3c-1.4-0.3-2.7-0.8-3.7-1.7c-0.5-0.5-0.8-1-0.9-1.8c0.5,0,1,0,1.5,0
		c1,0,2.1-0.1,3.1-0.1c0.5,0,0.6-0.1,0.6-0.6c0-0.1,0-0.3,0-0.3s0-0.1,0.1-0.1c0.3,0,0.5-0.1,0.8-0.1c0,0.3,0,0.5,0.1,0.6
		c0.1,0.5,0.1,0.5,0.6,0.5c1.8,0,3.7,0,5.5-0.1c0.1,0,0.4-0.1,0.5-0.3h-0.1c0-0.1-0.1-0.6-0.1-0.8C107.9,54.1,107.9,53.6,107.9,52.8
		c0.1-1,0.1-2.2,0.1-3.2l0,0C107.9,50.6,107.9,51.7,107.9,52.8z"/>
</g>
<g>
	<path class="st0" d="M88.1,40.3C88.2,40.3,88.2,40.1,88.1,40.3C88.2,40.1,88.2,40.1,88.1,40.3c-0.6-0.1-2.6-0.3-2.8-0.3
		c-0.1,0-0.1,0.1-0.3,0.1c0,0,0,0-0.1,0.1c0,0,0,0,0.1,0.1c0.1,0.1,0.1,0.1,0.3,0.1l0,0c0.9,0,1.7,0,2.6-0.1
		C87.9,40.3,88.1,40.3,88.1,40.3z"/>
</g>
<g>
	<path class="st0" d="M85,40.3c0.1,0.1,0.3,0.1,0.3,0.1l0,0c0.9,0,1.7,0,2.6-0.1c0.1,0,0.1,0,0.3-0.1h0.1l0,0V40l0,0
		c-0.6-0.1-2.7-0.3-2.9-0.1C85.1,39.9,85,40,85,40l-0.1,0.1l0,0C84.9,40.1,84.9,40.3,85,40.3C84.9,40.3,85,40.3,85,40.3z M85.4,39.9
		c0.3,0,2.3,0.1,2.9,0.1v0.1c-0.1,0-0.3,0.1-0.4,0.1c-0.9,0-1.8,0.1-2.6,0.1c-0.1,0-0.3-0.1-0.4-0.3C85,40.1,85.1,39.9,85.4,39.9z"
		/>
</g>
<g>
	<path class="st0" d="M87.9,40.4c0.1,0,0.3-0.1,0.4-0.1v-0.1c-0.6-0.1-2.7-0.3-2.9-0.1c-0.1,0-0.3,0.1-0.4,0.3
		c0.1,0.1,0.3,0.3,0.4,0.3C86.1,40.4,87,40.4,87.9,40.4z M85.2,40.4c-0.1,0-0.1-0.1-0.3-0.1c0,0,0,0-0.1-0.1c0,0,0,0,0.1-0.1
		c0.1-0.1,0.1-0.1,0.3-0.1c0.3,0,2.2,0.1,2.8,0.1c0,0,0,0,0,0.1c0,0,0,0-0.1,0c-0.1,0-0.1,0.1-0.3,0.1C87,40.4,86.1,40.4,85.2,40.4
		L85.2,40.4z"/>
</g>
<g>
	<path class="st0" d="M101,38.8c0.1,0.1,0.1,0.3,0.3,0.3c0.1,0,0.1,0,0.3,0c0.1,0,0.1-0.1,0.1-0.1c0-0.1,0-0.3-0.1-0.4
		c-0.8-1-1.5-1.9-2.4-2.6c-1.7-1.3-3.3-1.8-5.3-1.8h-0.1c-2.1,0-4,0.8-5.6,2.2c-0.6,0.5-1.9,2.4-2.1,2.6h0.1
		c0.1-0.3,1.2-1.3,1.2-1.3c1.8-1.9,3.8-2.8,6.3-2.8c0.3,0,0.5,0,0.8,0C97.2,35.1,99.3,36.4,101,38.8z"/>
</g>
<g>
	<path class="st0" d="M94.2,34.9c2.8,0.3,5.1,1.5,6.7,4c0.1,0.1,0.3,0.3,0.4,0.3l0,0c0.1,0,0.1,0,0.3-0.1c0.1,0,0.1-0.1,0.1-0.3
		c0-0.1,0-0.3-0.1-0.4c-0.8-1-1.7-1.9-2.4-2.6c-1.7-1.3-3.5-1.8-5.3-1.8h-0.1c-2.1,0-4,0.8-5.6,2.2c-0.6,0.5-2.2,2.6-2.1,2.7
		c0,0.1,0.1,0.1,0.3,0.1l0,0c0-0.1,0.8-0.9,1.2-1.3C89.2,35.6,91.5,34.7,94.2,34.9z M87.3,37.7c-0.4,0.4-1.2,1.3-1.2,1.3
		c-0.1,0-0.1,0-0.3,0c0-0.1,1.3-2.1,2.1-2.7c1.7-1.4,3.5-2.1,5.6-2.2c2.1,0,3.8,0.6,5.4,1.8c1,0.8,1.8,1.5,2.4,2.6
		c0.1,0.3,0.3,0.4,0,0.5c-0.3,0.1-0.4,0-0.5-0.3c-1.5-2.4-3.8-3.7-6.7-4C91.4,34.6,89.1,35.6,87.3,37.7z"/>
</g>
<g>
	<path class="st0" d="M100.9,38.8c0.1,0.3,0.3,0.4,0.5,0.3c0.3-0.1,0.1-0.4,0-0.5c-0.8-1-1.5-1.8-2.4-2.6c-1.5-1.3-3.3-1.9-5.4-1.9
		c-2.2,0-4,0.8-5.6,2.2c-0.6,0.6-2.1,2.6-2.1,2.7c0,0,0.1,0.1,0.3,0c0,0,0.8-0.9,1.2-1.3c1.9-2.1,4.2-2.9,6.9-2.8
		C97,35.1,99.3,36.4,100.9,38.8z M87.2,37.6c0,0-1,1.2-1.2,1.3c-0.1,0-0.1,0-0.1,0c0-0.1,1.3-2.1,2.1-2.6c1.7-1.4,3.6-2.1,5.6-2.2
		h0.1c1.9,0,3.6,0.6,5.3,1.8c0.9,0.6,1.7,1.5,2.4,2.6c0.1,0.1,0.1,0.3,0.1,0.4s0,0.1-0.1,0.1c-0.1,0-0.1,0.1-0.3,0
		c-0.1,0-0.1-0.1-0.3-0.3c-1.5-2.4-3.8-3.7-6.8-4c-0.3,0-0.5,0-0.8,0C91,34.7,89,35.8,87.2,37.6z"/>
</g>
<g>
	<path class="st0" d="M87.4,54.7L87.4,54.7C87.3,54.6,87.3,54.6,87.4,54.7c-0.4-0.1-0.6-0.1-0.9-0.1h-0.3l0,0v-0.1
		c0-0.1,0-0.1,0-0.3c0-0.6,0-1.4,0-2.1c0-1.2,0-2.4,0-3.6c0-0.8,0-1.5,0-2.6c0-0.1,0-0.3-0.1-0.4c0-0.1-0.1-0.1-0.3-0.3l0,0
		c0,0-0.1,0.1-0.3,0.3c0,0.1-0.1,0.4-0.1,0.5c0.1,2.8,0.3,5.6,0.4,7.9c0,0.4,0,0.8,0.1,1.2c0,0.1,0,0.4,0,0.5l0,0l0,0l-6.9-0.3l0,0
		l0,0c0-0.4,0.1-0.8,0.1-1c0.1-0.8,0.1-1.5,0.3-2.3c0-0.6,0.1-1.3,0.3-1.9c0.1-1,0.3-2.1,0.3-3.1c0-0.6,0.1-1.3,0.1-1.9
		c0-0.1-0.1-0.1-0.1-0.3c0,0,0-0.1-0.1-0.1c0,0-0.1,0-0.1,0.1c-0.1,0.1-0.3,0.1-0.3,0.3c-0.1,0.5-0.3,1-0.3,1.5
		c-0.1,2.4-0.3,5-0.4,7.4v0.3c0,0.4,0,0.6,0,1c0,0.1,0,0.3,0,0.4s0.1,0.3,0.3,0.3c0.3,0,0.5,0,0.8,0c0.3,0,0.5,0,0.9,0
		c1.2,0,2.3,0.1,3.3,0.1c0.6,0,1.3,0,2.1,0c0.1,0,0.3,0,0.3-0.1l0,0V55l0,0c0.1,0,0.3,0,0.4,0C86.9,55,87.2,54.9,87.4,54.7z"/>
</g>
<g>
	<path class="st0" d="M86.1,56.3C86.1,56.3,86.3,56.3,86.1,56.3C86.3,56.3,86.3,56.3,86.1,56.3l0.1-1.2c0.1,0,0.3,0,0.4,0
		c0.3,0,0.6-0.1,0.9-0.4l0,0l0,0c0,0,0,0-0.1,0h-0.1c-0.3,0-0.5,0-0.8,0h-0.3c0,0,0,0,0-0.1s0-0.1,0-0.3c0-0.6,0-1.4,0-2.1
		c0-1.2,0-2.4,0-3.6c0-0.8,0-1.5,0-2.6c0-0.1,0-0.3-0.1-0.4c-0.1-0.1-0.3-0.3-0.4-0.3l0,0c-0.1,0-0.3,0.1-0.3,0.3
		c0,0.1-0.1,0.4-0.1,0.5c0.1,2.8,0.3,5.6,0.4,7.9c0,0.4,0,0.8,0.1,1.2c0,0.1,0,0.3,0,0.5L79,55.6c0-0.4,0-0.6,0.1-1
		c0.1-0.8,0.1-1.5,0.3-2.3c0-0.6,0.1-1.3,0.3-1.9c0.1-1,0.3-2.1,0.3-3.1c0-0.6,0.1-1.3,0.1-1.9c0-0.1-0.1-0.3-0.1-0.4l-0.1-0.1l0,0
		l0,0L79.6,45c-0.1,0.1-0.3,0.1-0.3,0.3c-0.1,0.5-0.3,1-0.3,1.5c-0.1,2.4-0.3,5-0.4,7.4v0.3c0,0.4,0,0.6,0,1c0,0.1,0,0.3,0,0.3
		c0,0.3,0.1,0.4,0.4,0.4s0.5,0,0.8,0s0.5,0,0.9,0c1.2,0,2.3,0.1,3.3,0.1c0.4,0,0.8,0,1.2,0c0.3,0,0.6,0,1,0
		C86,56.4,86.1,56.3,86.1,56.3z M83.8,56.3c-1.2,0-2.3-0.1-3.3-0.1c-0.5,0-1.2-0.1-1.7-0.1c-0.3,0-0.3-0.1-0.3-0.4
		c0-0.4,0-0.9,0-1.3c0.1-2.6,0.3-5.1,0.4-7.7c0-0.5,0.1-1,0.3-1.5c0-0.1,0.3-0.3,0.4-0.4c0.1,0.1,0.3,0.3,0.3,0.5c0,0.6,0,1.3,0,1.9
		c-0.1,1.7-0.4,3.3-0.5,5c-0.1,1.2-0.3,2.3-0.3,3.3c2.3,0.1,4.6,0.1,6.9,0.3c0-0.5-0.1-1-0.1-1.7c-0.1-2.7-0.3-5.4-0.4-7.9
		c0-0.1,0-0.4,0.1-0.5c0-0.1,0.1-0.3,0.3-0.3c0.1,0,0.3,0.1,0.3,0.3c0.1,0.1,0.1,0.3,0.1,0.4c0,0.9,0,1.7,0,2.6c0,1.9,0,3.7,0,5.6
		c0,0.1,0,0.3,0,0.4c0.4,0,0.8,0,1.2,0c0,0,0.1,0,0.1,0.1c-0.4,0.4-0.9,0.3-1.3,0.4c0,0.4,0,0.8,0,1.2c-0.1,0-0.3,0.1-0.4,0.1
		C85.1,56.4,84.5,56.4,83.8,56.3z"/>
</g>
<g>
	<path class="st0" d="M86.3,55.1c0.4-0.1,0.9,0,1.3-0.4c-0.1,0-0.1-0.1-0.1-0.1c-0.4,0-0.8,0-1.2,0c0-0.1,0-0.3,0-0.4
		c0-1.9,0-3.7,0-5.6c0-0.9,0-1.7,0-2.6c0-0.1,0-0.3-0.1-0.4c0-0.1-0.3-0.3-0.3-0.3c-0.1,0-0.3,0.1-0.3,0.3c0,0.1-0.1,0.4-0.1,0.5
		c0.1,2.7,0.3,5.4,0.4,7.9c0,0.5,0.1,1.2,0.1,1.7c-2.3-0.1-4.6-0.1-6.9-0.3c0.1-1.2,0.3-2.3,0.3-3.3c0.1-1.7,0.4-3.3,0.5-5
		c0-0.6,0.1-1.3,0-1.9c0-0.1-0.1-0.3-0.3-0.5c-0.1,0.1-0.4,0.3-0.4,0.4c-0.1,0.5-0.3,1-0.3,1.5c-0.1,2.6-0.3,5.1-0.4,7.7
		c0,0.4,0,0.9,0,1.3c0,0.3,0.1,0.3,0.3,0.4c0.5,0,1.2,0.1,1.7,0.1c1.2,0,2.3,0.1,3.3,0.1c0.6,0,1.4,0,2.1,0c0.1,0,0.3-0.1,0.4-0.1
		C86.3,55.8,86.3,55.4,86.3,55.1z M86.1,55.1v1.2l0,0c-0.1,0-0.1,0.1-0.3,0.1c-0.8,0-1.4,0-2.1,0c-1.2,0-2.3-0.1-3.3-0.1
		c-0.3,0-0.6,0-0.9,0c-0.3,0-0.5,0-0.8,0c-0.1,0-0.3-0.1-0.3-0.3c0-0.1,0-0.3,0-0.4c0-0.4,0-0.6,0-1v-0.3c0.1-2.4,0.3-5,0.4-7.4
		c0-0.5,0.1-1,0.3-1.5c0-0.1,0.1-0.1,0.3-0.3c0,0,0.1,0,0.1-0.1c0,0,0,0.1,0.1,0.1c0.1,0.1,0.1,0.3,0.1,0.3c0,0.6,0,1.3-0.1,1.9
		c-0.1,1-0.3,2.1-0.3,3.1c-0.1,0.6-0.1,1.3-0.3,1.9c-0.1,0.8-0.1,1.5-0.3,2.3c0,0.4-0.1,0.8-0.1,1l0,0l0,0l6.9,0.3l0,0l0,0
		c0-0.1,0-0.4,0-0.5c0-0.4,0-0.8-0.1-1.2c-0.1-2.3-0.3-5.1-0.4-7.9c0-0.1,0-0.4,0.1-0.5c0-0.1,0.1-0.3,0.3-0.3l0,0
		c0.1,0,0.3,0.1,0.3,0.3C86,45.9,86,46,86,46.1c0,0.9,0,1.8,0,2.6c0,1.2,0,2.4,0,3.6c0,0.6,0,1.4,0,2.1c0,0.1,0,0.1,0,0.3v0.1l0,0
		h0.3c0.3,0,0.5,0,0.8,0c0,0,0,0,0.1,0l0,0C86.9,55,86.7,55,86.4,55C86.5,55,86.4,55,86.1,55.1C86.1,55,86.1,55,86.1,55.1z"/>
</g>
<g>
	<path class="st0" d="M61.1,44.6l0.4,1c0.1,0.3,0.3,0.5,0.4,0.9c0,0,0.1,0.1,0.3,0.1c0,0,0,0,0.1,0c0,0,0,0,0-0.1s0.1-0.1,0-0.3
		c-0.1-0.5-0.3-1-0.5-1.5c-0.3-0.9-0.6-1.8-0.9-2.6c-0.6-1.7-1.3-3.3-1.8-5.1c-0.1-0.5-0.3-1.2-0.4-1.8c0-0.6,0.3-1,0.9-1.2
		c0.4,0,0.8-0.1,1.3-0.1c1.2,0,2.2,0,3.3,0c0.9,0,1.9,0,2.8,0c0.5,0,1,0.3,1.3,0.6c0.5,0.6,0.9,1.3,1.3,1.9c0.4,0.8,0.6,1.5,1,2.3
		c0.1,0.4,0.3,0.6,0.4,1c0,0.1,0.1,0.1,0.1,0.3l0,0l0,0V40c0-0.1,0-0.3-0.1-0.3c-0.1-0.3-0.1-0.4-0.3-0.6c-0.3-0.6-0.5-1.3-0.8-1.9
		c-0.3-0.6-0.6-1.4-1.2-2.2c-0.5-0.8-1.2-1.2-1.9-1.3c-0.5,0-0.9-0.1-1.4-0.1c-0.9-0.1-1.8-0.1-2.7-0.1c-0.5,0-0.9,0-1.4,0
		c-0.5,0-0.9,0-1.5,0c-1.3,0-1.8,0.6-1.8,1.9c0,0.9,0.3,1.8,0.6,2.8C59.6,40.4,60.4,42.4,61.1,44.6z"/>
</g>
<g>
	<path class="st0" d="M61,44.6l0.4,1c0.1,0.3,0.3,0.5,0.4,0.9c0,0.1,0.1,0.1,0.3,0.1c0,0,0.1,0,0.1,0.1l0,0l0,0l0,0v-0.1
		c0-0.1,0.1-0.3,0-0.3c-0.1-0.5-0.3-1-0.5-1.5c-0.3-0.9-0.6-1.8-0.9-2.6c-0.6-1.7-1.3-3.3-1.8-5.1c-0.1-0.5-0.3-1.2-0.4-1.8
		c0-0.6,0.3-0.9,0.9-1c0.4,0,0.8-0.1,1.3-0.1c1.2,0,2.2,0,3.3,0c0.9,0,1.9,0,2.8,0c0.5,0,0.9,0.3,1.3,0.5c0.5,0.6,0.9,1.3,1.3,1.9
		c0.4,0.8,0.6,1.5,1,2.2c0.1,0.4,0.3,0.6,0.4,1c0,0.1,0.1,0.1,0.1,0.3c0,0,0,0,0,0.1l0,0h0.1l0,0v-0.1c0-0.1,0-0.3-0.1-0.3
		c-0.1-0.3-0.1-0.4-0.3-0.6c-0.3-0.6-0.5-1.3-0.8-1.9c-0.3-0.6-0.6-1.5-1.2-2.2c-0.5-0.8-1.2-1.3-2.1-1.3c-0.5,0-0.9-0.1-1.4-0.1
		c-0.9-0.1-1.8-0.1-2.7-0.1c-0.9,0-1.8,0-2.9,0c-1.3,0-1.9,0.6-1.9,2.1c0,0.9,0.3,1.8,0.6,2.8C59.5,40.4,60.2,42.6,61,44.6z
		 M60,33.3c1,0,1.9,0,2.9,0c1.4,0.1,2.7,0.3,4.1,0.3c0.9,0.1,1.5,0.5,1.9,1.3c0.4,0.6,0.8,1.4,1.2,2.2c0.4,0.9,0.8,1.7,1,2.6
		c0,0.1,0.1,0.3,0.1,0.4h-0.1c0-0.1-0.1-0.1-0.1-0.3c-0.5-1-0.9-2.2-1.4-3.2c-0.4-0.6-0.9-1.3-1.3-1.9c-0.3-0.4-0.8-0.5-1.3-0.5
		c-2.1,0-4.1-0.1-6.2-0.1c-0.4,0-0.8,0-1.3,0.1c-0.6,0.1-0.9,0.4-0.9,1.2c0,0.6,0.1,1.3,0.4,1.8c0.9,2.6,1.9,5.1,2.8,7.7
		c0.1,0.5,0.4,1,0.5,1.5c0,0.1-0.1,0.3-0.1,0.4c-0.1-0.1-0.3-0.1-0.4-0.3c-0.1-0.3-0.3-0.5-0.4-0.9c-0.9-2.4-1.8-5-2.7-7.4
		c-0.4-0.9-0.6-1.8-0.6-2.8C58.1,34.1,58.7,33.5,60,33.3z"/>
</g>
<g>
	<path class="st0" d="M61.5,45.6c0.1,0.3,0.3,0.6,0.4,0.9c0,0.1,0.3,0.1,0.4,0.3c0-0.1,0.1-0.3,0.1-0.4c-0.1-0.5-0.3-1-0.5-1.5
		c-0.9-2.6-1.9-5.1-2.8-7.7c-0.3-0.6-0.3-1.3-0.4-1.8c0-0.6,0.3-1,0.9-1.2c0.4-0.1,0.8-0.1,1.3-0.1c2.1,0,4.1,0.1,6.2,0.1
		c0.5,0,0.9,0.1,1.3,0.5c0.5,0.6,0.9,1.3,1.3,1.9c0.5,1,1,2.2,1.4,3.2c0,0.1,0.1,0.3,0.1,0.3h0.1c0-0.1,0-0.3-0.1-0.4
		c-0.4-0.9-0.6-1.7-1-2.6c-0.4-0.8-0.6-1.5-1.2-2.2c-0.5-0.6-1.2-1.2-1.9-1.3c-1.4-0.1-2.7-0.3-4.1-0.3c-1,0-1.9,0-2.9,0
		c-1.3,0-1.9,0.6-1.8,1.9c0,1,0.3,1.9,0.6,2.8C59.6,40.6,60.6,43.2,61.5,45.6z M60,33.5c0.5,0,1,0,1.5,0s1,0,1.4,0
		c0.9,0,1.8,0.1,2.7,0.1c0.5,0,0.9,0.1,1.4,0.1c0.8,0,1.4,0.5,1.9,1.3c0.5,0.6,0.8,1.5,1.2,2.2c0.3,0.6,0.5,1.3,0.8,1.9
		c0.1,0.3,0.1,0.4,0.3,0.6c0,0.1,0,0.1,0.1,0.3v0.1l0,0l0,0c0,0-0.1-0.1-0.1-0.3c-0.1-0.4-0.3-0.6-0.4-1c-0.3-0.8-0.6-1.5-1-2.3
		c-0.4-0.6-0.9-1.4-1.3-1.9c-0.3-0.4-0.8-0.6-1.3-0.6c-0.9,0-1.9,0-2.8,0c-1.2,0-2.2,0-3.3,0c-0.4,0-0.9,0.1-1.3,0.1
		c-0.6,0.1-1,0.5-0.9,1.2c0,0.8,0.1,1.3,0.4,1.8c0.6,1.7,1.3,3.5,1.8,5.1c0.3,0.9,0.6,1.8,0.9,2.6c0.1,0.5,0.4,1,0.5,1.5
		c0,0,0,0.1,0,0.3c0,0,0,0,0,0.1c0,0,0,0-0.1,0s-0.1-0.1-0.3-0.1c-0.1-0.3-0.3-0.5-0.4-0.9l-0.4-1c-0.8-2.1-1.5-4.2-2.3-6.4
		c-0.4-1-0.6-1.9-0.6-2.8C58.2,34.1,58.7,33.5,60,33.5z"/>
</g>
<g>
	<path class="st0" d="M124.3,34.2c0.4,0,0.9,0,1.3,0s0.9,0,1.3,0.1c0.3,0,0.4,0.3,0.4,0.4v0.1c0,0.3,0,0.6,0,0.9
		c-0.4,1.2-0.6,2.3-1,3.2c-0.5,1.5-1,2.9-1.5,4.5c-0.3,0.9-0.6,1.8-0.9,2.7c0,0.1-0.1,0.4-0.1,0.5c0,0.1,0,0.1,0,0.3h0.1
		c0,0,0-0.1,0.1-0.1c0.1-0.1,0.1-0.3,0.1-0.4c0.4-1.2,0.8-2.3,1.3-3.5c0.5-1.4,1-2.8,1.5-4.2c0.1-0.1,0.1-0.4,0.3-0.5
		c0.3-0.8,0.6-1.7,0.8-2.6c0.1-1-0.1-1.5-1.2-1.7h-0.1l0,0c-0.4,0-0.6,0-1-0.1c-0.8,0-1.4-0.1-2.2-0.1c-0.4,0-0.6,0-1-0.1
		c-1.2-0.1-2.4-0.1-3.6,0c-1.2,0.1-1.8,0.6-2.2,1.4c-0.5,1-1,2.2-1.5,3.2c-0.3,0.5-0.5,1-0.8,1.7l0,0c0,0.1-0.1,0.1-0.1,0.3
		s0,0.3,0.1,0.3c0.1,0,0.3,0,0.3-0.1c0.1,0,0.1-0.1,0.1-0.3l0,0c0.1-0.4,0.4-0.8,0.5-1.2c0.5-1.2,1.2-2.3,1.7-3.5
		c0.3-0.5,0.6-0.9,1.2-1h0.1c0.5-0.1,0.9-0.3,1.4-0.3l0,0C121.3,34.1,122.8,34.1,124.3,34.2z"/>
</g>
<g>
	<path class="st0" d="M118.3,34.4c0.5-0.1,1-0.3,1.4-0.3c1.5,0,3.1,0.1,4.6,0.1c0.4,0,0.9,0,1.3,0s0.9,0,1.3,0.1
		c0.3,0,0.4,0.1,0.4,0.4v0.1c0,0.3,0,0.6,0,0.9c-0.4,1.2-0.6,2.3-1,3.2c-0.5,1.5-1,2.9-1.5,4.5c-0.3,0.9-0.6,1.8-0.9,2.7
		c0,0.1-0.1,0.4-0.1,0.5c0,0.1,0,0.1,0,0.3l0,0h0.1l0,0l0,0c0,0,0-0.1,0.1-0.1c0.1-0.1,0.1-0.3,0.1-0.4c0.4-1.2,0.8-2.3,1.3-3.5
		c0.5-1.4,1-2.8,1.5-4.2c0.1-0.1,0.1-0.4,0.3-0.5c0.3-0.8,0.6-1.7,0.8-2.6c0.1-1-0.1-1.5-1.2-1.8h-0.1l0,0c-0.4,0-0.6,0-1-0.1
		c-0.8,0-1.4-0.1-2.2-0.1c-0.4,0-0.6,0-1-0.1c-1.2-0.1-2.4-0.1-3.6,0c-1.2,0.1-1.9,0.6-2.3,1.5c-0.5,1-1,2.2-1.5,3.2
		c-0.3,0.5-0.5,1-0.8,1.7l0,0c0,0.1-0.1,0.1-0.1,0.3s0,0.3,0.1,0.4c0.1,0,0.3,0,0.4-0.1c0.1,0,0.1-0.1,0.1-0.3l0,0
		c0.1-0.4,0.4-0.8,0.5-1.2c0.5-1.2,1.2-2.3,1.7-3.6c0.3-0.5,0.6-0.9,1.2-1L118.3,34.4z M117,35.4c-0.8,1.5-1.4,3.1-2.2,4.6
		c0,0.1-0.1,0.3-0.1,0.3c-0.1,0.1-0.3,0.1-0.4,0.1s-0.1-0.1-0.1-0.3s0-0.1,0.1-0.3c0.8-1.5,1.5-3.2,2.3-4.7c0.4-1,1.3-1.4,2.3-1.4
		c1.5-0.1,3.1,0,4.6,0.1c1,0,2.2,0.1,3.2,0.3h0.1c1,0.1,1.3,0.6,1.2,1.7c-0.1,1-0.6,2.1-0.9,3.1c-0.9,2.6-1.8,5.1-2.7,7.7
		c-0.1,0.1-0.1,0.4-0.3,0.5h-0.1c0.1-0.3,0.1-0.5,0.3-0.8c0.8-2.4,1.7-4.7,2.4-7.2c0.4-1,0.6-2.2,1-3.2c0.1-0.3,0-0.6,0-1
		c0-0.3-0.1-0.4-0.4-0.4c-0.4,0-0.9-0.1-1.3-0.1c-1.9-0.1-4-0.1-5.9-0.3c-0.5,0-1.2,0.1-1.7,0.3C117.5,34.5,117.2,34.9,117,35.4z"/>
</g>
<g>
	<path class="st0" d="M125.6,34.4c0.4,0,0.9,0,1.3,0.1c0.3,0,0.4,0.1,0.4,0.4c0,0.4,0,0.6,0,1c-0.3,1-0.6,2.2-1,3.2
		c-0.8,2.4-1.7,4.7-2.4,7.2c-0.1,0.3-0.1,0.5-0.3,0.8h0.1c0.1-0.1,0.3-0.4,0.3-0.5c0.9-2.6,1.8-5.1,2.7-7.7c0.4-1,0.8-2.1,0.9-3.1
		c0.1-1-0.1-1.5-1.2-1.7h-0.1c-1-0.1-2.2-0.1-3.2-0.3c-1.5-0.1-3.1-0.3-4.6-0.1c-1,0.1-1.8,0.5-2.3,1.4c-0.8,1.7-1.5,3.2-2.3,4.7
		c0,0.1-0.1,0.1-0.1,0.3c0,0.1,0,0.3,0.1,0.3c0.1,0,0.3,0,0.4-0.1s0.1-0.3,0.1-0.3c0.8-1.5,1.5-3.1,2.2-4.6c0.3-0.5,0.6-0.9,1.2-1
		c0.5-0.1,1-0.3,1.7-0.3C121.8,34.1,123.7,34.2,125.6,34.4z M118.3,34.4h-0.1c-0.5,0.1-0.9,0.5-1.2,1c-0.5,1.2-1.2,2.4-1.7,3.5
		c-0.1,0.4-0.4,0.8-0.5,1.2l0,0c0,0.1-0.1,0.1-0.1,0.3c-0.1,0-0.3,0.1-0.3,0.1s-0.1-0.1-0.1-0.3c0,0,0-0.1,0.1-0.3l0,0
		c0.3-0.5,0.5-1,0.8-1.7c0.5-1,1-2.2,1.5-3.2c0.4-0.9,1.2-1.3,2.2-1.4c1.2-0.1,2.4,0,3.6,0c0.4,0,0.6,0,1,0.1c0.8,0,1.4,0.1,2.2,0.1
		c0.4,0,0.6,0,1,0.1l0,0h0.1c0.9,0.1,1.3,0.6,1.2,1.7c-0.1,0.9-0.4,1.7-0.8,2.6c-0.4,0.1-0.4,0.4-0.5,0.5c-0.5,1.4-1,2.8-1.5,4.2
		c-0.4,1.2-0.8,2.3-1.3,3.5c0,0.1-0.1,0.3-0.1,0.4c0,0,0,0.1-0.1,0.1h-0.1c0-0.1,0-0.1,0-0.3c0-0.1,0.1-0.4,0.1-0.5
		c0.3-0.9,0.6-1.8,0.9-2.7c0.5-1.4,1-2.9,1.5-4.5c0.4-0.9,0.6-2.1,1-3.2c0.1-0.3,0-0.5,0-0.9v-0.1c0-0.3-0.1-0.4-0.4-0.4
		c-0.4,0-0.9-0.1-1.3-0.1c-0.4,0-0.9,0-1.3,0c-1.5-0.1-3.1-0.1-4.6-0.1l0,0C119.2,34.1,118.7,34.2,118.3,34.4z"/>
</g>
<g>
	<path class="st0" d="M62.8,50.4c-0.1-0.1-0.3-0.1-0.4,0c-0.1,0-0.4,0.1-0.4,0.4c0,0.1-0.1,0.4-0.1,0.5v0.1l-0.5,1.7
		c-0.6,2.3-1.4,4.9-2.1,7.2c-0.1,0.3-0.1,0.4-0.5,0.4l0,0c-0.1,0-0.3,0-0.3,0.1v0.1c0,0.1,0.3,0.3,0.4,0.3l0,0c0.5,0,1-0.1,1.4-0.1
		c0,0,0.1,0,0.1-0.1c0,0,0,0,0.1,0v-0.1l-1-0.4l0,0l0,0c0.1-0.4,0.3-0.8,0.4-1.2c0.3-0.9,0.5-1.8,0.8-2.7c0.5-1.7,1-3.2,1.7-4.9
		l0.1-0.5c0-0.1,0.3-0.3,0.4-0.4s0.1-0.1,0.1-0.3C62.9,50.4,62.9,50.4,62.8,50.4z"/>
</g>
<g>
	<path class="st0" d="M62.9,50.2c-0.1-0.1-0.4-0.1-0.5,0c-0.3,0.1-0.4,0.3-0.4,0.4c-0.1,0.1-0.1,0.4-0.1,0.5l-0.5,1.8
		c-0.6,2.3-1.4,4.9-2.1,7.2c-0.1,0.3-0.1,0.4-0.4,0.4l0,0c-0.1,0-0.3,0-0.4,0.1c0,0-0.1,0.1,0,0.3c0,0.1,0.3,0.3,0.4,0.3l0,0
		c0.5,0,1-0.1,1.4-0.1c0.1,0,0.1-0.1,0.3-0.1c0,0,0,0,0.1-0.1l0,0v-0.1l0,0l-1-0.3c0.1-0.4,0.3-0.8,0.4-1.2c0.3-0.9,0.5-1.8,0.8-2.7
		c0.5-1.7,1-3.2,1.7-4.9l0.1-0.5c0-0.1,0.3-0.3,0.3-0.4c0.1-0.1,0.1-0.1,0.1-0.3C63.1,50.4,63.1,50.4,62.9,50.2z M62.9,50.8
		c-0.1,0.1-0.3,0.3-0.4,0.4c-0.6,1.8-1.3,3.6-1.8,5.4c-0.4,1.3-0.8,2.6-1.2,4c0.4,0.1,0.6,0.1,0.9,0.3v0.1c-0.1,0.1-0.3,0.1-0.3,0.3
		c-0.5,0-1,0.1-1.4,0.1c-0.1,0-0.4-0.1-0.4-0.3c0-0.3,0.3-0.3,0.4-0.3c0.3,0,0.4-0.1,0.4-0.4c0.9-2.9,1.7-5.9,2.6-8.8
		c0-0.3,0.1-0.4,0.3-0.6c0.1-0.4,0.6-0.5,0.9-0.4C63.1,50.4,63.1,50.5,62.9,50.8z"/>
</g>
<g>
	<path class="st0" d="M62.9,50.2c-0.3-0.1-0.8,0-0.9,0.4c-0.1,0.3-0.1,0.4-0.3,0.6c-0.9,2.9-1.7,5.9-2.6,8.8
		c-0.1,0.3-0.1,0.4-0.4,0.4c-0.1,0-0.4,0-0.4,0.3c0,0.1,0.3,0.3,0.4,0.3c0.5,0,1,0,1.4-0.1c0.1,0,0.3-0.1,0.3-0.3v-0.1
		c-0.3-0.1-0.6-0.1-0.9-0.3c0.4-1.3,0.8-2.6,1.2-4c0.5-1.8,1.2-3.6,1.8-5.4c0-0.1,0.3-0.3,0.4-0.4C63.1,50.5,63.1,50.4,62.9,50.2z
		 M62.9,50.6c-0.1,0.1-0.3,0.3-0.4,0.4l-0.1,0.5c-0.5,1.5-1.2,3.2-1.7,4.9c-0.3,0.9-0.5,1.8-0.8,2.7c-0.1,0.4-0.3,0.8-0.4,1.2l0,0
		l0,0l0.9,0.3v0.1c0,0,0,0-0.1,0s-0.1,0.1-0.1,0.1c-0.5,0-1,0.1-1.4,0.1l0,0c-0.1,0-0.4-0.1-0.4-0.3v-0.1c0,0,0.1-0.1,0.3-0.1l0,0
		c0.3,0,0.4-0.1,0.5-0.4c0.6-2.4,1.4-4.9,2.1-7.2l0.5-1.7V51c0-0.1,0.1-0.4,0.1-0.5c0-0.1,0.3-0.3,0.4-0.4c0.1,0,0.4,0,0.4,0
		c0.1,0,0.1,0.1,0.1,0.1C62.9,50.5,62.9,50.6,62.9,50.6z"/>
</g>
<g>
	<path class="st0" d="M129.6,35.3L129.6,35.3c-0.1,0.1-0.3,0.1-0.3,0.1c-0.1,0.1-0.3,0.4-0.4,0.6c-1.2,3.1-2.1,5.9-2.8,8.6
		c-0.1,0.4-0.1,0.8-0.3,1.2c0,0.1-0.1,0.3-0.1,0.5h0.1c0,0,0-0.1,0.1-0.1c0.1-0.1,0.1-0.3,0.1-0.4c0.1-0.3,0.3-0.5,0.3-0.8
		c0.4-0.9,0.8-1.8,1-2.7c0.5-1.7,1.2-3.2,1.5-4.6c0.3-0.6,0.4-1.4,0.6-2.1v-0.1C129.7,35.5,129.6,35.5,129.6,35.3
		C129.6,35.4,129.6,35.3,129.6,35.3z"/>
</g>
<g>
	<path class="st0" d="M129.7,35.4C129.7,35.3,129.7,35.3,129.7,35.4c0-0.1,0-0.1,0-0.1l0,0h-0.1c-0.1,0-0.3,0.1-0.3,0.1
		c-0.1,0.1-0.3,0.4-0.4,0.6c-1.2,3.1-2.1,5.9-2.8,8.6c-0.1,0.4-0.1,0.8-0.3,1.2c0,0.1-0.1,0.4-0.1,0.5l0,0l0.1,0.1l0,0l0,0
		c0,0,0-0.1,0.1-0.1c0.1-0.1,0.1-0.3,0.3-0.4c0.1-0.3,0.3-0.5,0.3-0.8c0.4-0.9,0.8-1.8,1-2.7c0.5-1.7,1.2-3.2,1.5-4.6
		c0.3-0.6,0.4-1.4,0.6-2.2v-0.1C129.7,35.5,129.7,35.4,129.7,35.4z M129.7,35.6c-0.1,0.8-0.4,1.4-0.6,2.2c-0.5,1.5-1,3.1-1.5,4.6
		c-0.4,1.2-0.9,2.3-1.3,3.5c-0.1,0.1-0.1,0.4-0.3,0.5c0,0-0.1,0-0.1-0.1c0.1-0.5,0.3-1,0.4-1.5c0.8-2.9,1.8-5.8,2.8-8.6
		c0.1-0.3,0.3-0.5,0.4-0.6s0.3-0.1,0.4-0.3C129.7,35.4,129.7,35.5,129.7,35.6z"/>
</g>
<g>
	<path class="st0" d="M129.3,35.4c-0.1,0.3-0.3,0.4-0.4,0.6c-1,2.8-2.1,5.8-2.8,8.6c-0.1,0.5-0.3,1-0.4,1.5c0,0,0.1,0,0.1,0.1
		c0.1-0.1,0.3-0.4,0.3-0.5c0.5-1.2,0.9-2.3,1.3-3.5c0.5-1.5,1-3.1,1.5-4.6c0.3-0.8,0.4-1.4,0.6-2.2c0-0.1,0-0.3-0.1-0.4
		C129.5,35.3,129.3,35.4,129.3,35.4z M129.6,35.6c-0.1,0.6-0.4,1.4-0.6,2.1c-0.5,1.5-1,3.1-1.5,4.6c-0.4,0.9-0.6,1.8-1,2.7
		c-0.1,0.3-0.3,0.5-0.3,0.8c0,0.1-0.1,0.3-0.1,0.4c0,0,0,0.1-0.1,0.1h-0.1c0-0.1,0.1-0.3,0.1-0.5c0.1-0.4,0.1-0.8,0.3-1.2
		c0.8-2.8,1.7-5.6,2.8-8.6c0.1-0.3,0.3-0.5,0.4-0.6c0,0,0.1-0.1,0.3-0.1c0,0,0,0,0.1,0c0,0,0,0,0,0.1
		C129.6,35.5,129.7,35.5,129.6,35.6L129.6,35.6z"/>
</g>
<g>
	<path class="st0" d="M127.4,60.4c-0.1,0-0.3-0.1-0.4-0.1c-0.1,0-0.3-0.1-0.3-0.3c-0.1-0.6-0.3-1.2-0.5-1.8
		c-0.4-1.2-0.9-2.4-1.3-3.6c-0.3-0.8-0.5-1.5-0.9-2.2c-0.3-0.5-0.4-1-0.6-1.5c-0.1-0.4-0.3-0.5-0.6-0.4c0,0-0.1,0-0.1,0.1v0.1l0,0
		c0.3,0,0.3,0.1,0.3,0.3v0.1c0.5,1.3,0.9,2.7,1.4,4l0.1,0.5c0.4,1,0.8,2.2,1.2,3.2l0.5,1.5l0,0l0,0l0,0H126l0,0
		c-0.1,0-0.3,0.1-0.3,0.3c0,0.1,0.1,0.3,0.3,0.3c0.4,0,0.9,0,1.3,0l0.1-0.1C127.5,60.5,127.4,60.4,127.4,60.4z"/>
</g>
<g>
	<path class="st0" d="M127.4,60.2c-0.1,0-0.3-0.1-0.4-0.1c-0.1,0-0.3-0.1-0.3-0.3c-0.1-0.6-0.3-1.2-0.5-1.8
		c-0.4-1.2-0.9-2.4-1.3-3.6c-0.3-0.8-0.5-1.5-0.9-2.2c-0.3-0.5-0.4-1-0.6-1.5c-0.1-0.4-0.4-0.5-0.8-0.5l-0.1,0.1v0.1l0,0l0,0l0,0
		c0.1,0,0.3,0.1,0.3,0.3v0.1c0.5,1.3,0.9,2.7,1.4,4l0.1,0.5c0.4,1,0.8,2.2,1.2,3.2l0.5,1.5h-0.1l0,0c-0.1,0.1-0.3,0.1-0.3,0.3
		c0,0.1,0.1,0.4,0.3,0.4c0.1,0,0.3,0,0.4,0c0.4,0,0.6,0,1,0c0.1,0,0.1-0.1,0.3-0.3C127.5,60.5,127.5,60.4,127.4,60.2z M127.4,60.8
		c-0.4,0-0.9,0-1.3,0c-0.1,0-0.3-0.3-0.3-0.4s0.1-0.3,0.3-0.3h0.1c-0.5-1.5-1.2-3.2-1.7-4.7c-0.5-1.4-1-2.9-1.5-4.4
		c0-0.1,0-0.4-0.4-0.4l-0.1-0.1l0.1-0.1c0.4-0.1,0.5,0,0.6,0.4c0.5,1.3,1,2.6,1.4,3.8c0.5,1.2,0.9,2.4,1.3,3.6
		c0.3,0.5,0.4,1.2,0.5,1.8c0,0.1,0.1,0.3,0.3,0.3s0.3,0,0.4,0.1c0.1,0,0.1,0.1,0.1,0.3C127.5,60.6,127.4,60.8,127.4,60.8z"/>
</g>
<g>
	<path class="st0" d="M127.4,60.4c-0.1,0-0.3-0.1-0.4-0.1c-0.1,0-0.3-0.1-0.3-0.3c-0.1-0.6-0.3-1.2-0.5-1.8
		c-0.4-1.3-0.9-2.4-1.3-3.6c-0.5-1.3-1-2.6-1.4-3.8c-0.1-0.4-0.3-0.5-0.6-0.4c0,0-0.1,0-0.1,0.1c0,0,0,0.1,0.1,0.1
		c0.3,0,0.3,0.3,0.4,0.4c0.5,1.4,1,2.9,1.5,4.4c0.5,1.5,1.2,3.2,1.7,4.7h-0.1c-0.1,0.1-0.3,0.1-0.3,0.3c0,0.1,0.1,0.4,0.3,0.4
		c0.4,0,0.9,0,1.3,0c0.1,0,0.1-0.1,0.1-0.3C127.5,60.5,127.4,60.4,127.4,60.4z M127.4,60.8c-0.4,0-0.9,0-1.3,0
		c-0.1,0-0.3-0.1-0.3-0.3c0,0,0.1-0.1,0.3-0.3l0,0h0.1l0,0l0,0l0,0l-0.5-1.5c-0.4-1-0.8-2.2-1.2-3.2l-0.1-0.5
		c-0.5-1.3-0.9-2.6-1.4-4v-0.1c0-0.1-0.1-0.3-0.3-0.3l0,0v-0.1c0,0,0,0,0.1-0.1c0.4-0.1,0.5,0,0.6,0.4c0.3,0.5,0.4,1,0.6,1.5
		c0.3,0.8,0.5,1.5,0.9,2.2c0.5,1.3,0.9,2.4,1.3,3.6c0.3,0.5,0.4,1.2,0.5,1.8c0,0.3,0.1,0.3,0.3,0.3c0.1,0,0.3,0,0.4,0.1l0.1,0.1
		C127.5,60.6,127.4,60.6,127.4,60.8z"/>
</g>
<g>
	<path class="st0" d="M125.1,49.6c0-0.3,0.1-0.6,0.1-0.9c0-0.6-0.3-0.9-0.9-0.9c-0.4,0-0.9,0-1.3,0h-0.9c-0.9,0-1.9,0-2.8,0
		c-0.1,0-0.4,0-0.5,0c-0.1,0-0.1,0-0.3,0c0,0,0,0,0,0.1h0.1c0.1,0,0.3,0,0.3,0c0.5,0,1,0,1.5,0s1,0,1.4,0c0.4,0,0.8,0,1.2,0
		s0.9,0,1.3,0c0.3,0,0.4,0.1,0.4,0.4c0,0.5,0,0.8-0.1,0.9c-0.1,0.1-0.5,0.3-1,0.1c-1.3,0-2.6-0.1-3.8-0.1c-0.4,0-0.9,0-1.3,0
		c-0.1,0-0.3,0-0.3,0s-0.1,0-0.1,0.1l0,0l0,0l0.1,0.1c0.3,0,0.5,0,0.8,0c1,0,2.1,0,3.1,0c0.5,0,1,0,1.7,0c0.1,0,0.3,0,0.4,0
		c0.3,0,0.5,0,0.8,0C124.9,50,125.1,49.9,125.1,49.6z"/>
</g>
<g>
	<path class="st0" d="M124,50.1c0.1,0,0.3,0,0.5,0c0.1,0,0.1,0,0.3,0c0.3,0,0.5-0.1,0.5-0.5c0-0.3,0.1-0.6,0.1-1
		c0-0.6-0.3-0.9-0.9-0.9c-0.4,0-0.9,0-1.3,0h-0.9c-0.9,0-1.9,0-2.8,0c-0.1,0-0.4,0-0.5,0c-0.1,0-0.1,0-0.3,0l0,0v0.1l0,0h0.1
		c0.1,0,0.3,0,0.4,0c0.5,0,1,0,1.5,0c0.5,0,1,0,1.4,0c0.4,0,0.8,0,1.2,0c0.4,0,0.9,0,1.3,0c0.3,0,0.3,0.1,0.3,0.3
		c0,0.5,0,0.8-0.1,0.9c-0.1,0.1-0.5,0.1-0.9,0.1c-1.3,0-2.6-0.1-3.8-0.1c-0.4,0-0.9,0-1.3,0l0,0c-0.1,0-0.3,0-0.3,0l-0.1,0.1l0,0
		l0,0l0,0l0,0l0.1,0.1c0.3,0,0.5,0,0.8,0c1,0,2.1,0,3.1,0c0.5,0,1,0,1.7,0C123.7,50.1,123.8,50.1,124,50.1z M118.8,50.1
		c-0.3,0-0.5,0-0.8,0c-0.1,0-0.1-0.1-0.1-0.1c0-0.1,0.1-0.1,0.1-0.1c0.1,0,0.3,0,0.3,0c1.8,0,3.5,0,5.3,0.1c1,0,1.2-0.1,1.2-1
		c0-0.3-0.1-0.4-0.3-0.4c-0.8,0-1.5-0.1-2.3-0.1c-1,0-1.9,0-2.9-0.1c-0.1,0-0.3,0-0.5-0.1v-0.1c0.3,0,0.5-0.1,0.8-0.1
		c1.2,0,2.2,0,3.3,0c0.5,0,1.2,0,1.7,0c0.6,0,0.9,0.3,0.9,0.9c0,0.4,0,0.6-0.1,1c0,0.3-0.3,0.4-0.5,0.4c-0.4,0-0.8,0-1.2,0
		C121.9,50.1,120.4,50.1,118.8,50.1z"/>
</g>
<g>
	<path class="st0" d="M124.6,50.1c0.3,0,0.5-0.1,0.5-0.4s0.1-0.6,0.1-1c0-0.6-0.3-0.9-0.9-0.9c-0.5,0-1.2,0-1.7,0
		c-1.2,0-2.2,0-3.3,0c-0.3,0-0.5,0-0.8,0.1v0.1c0.1,0,0.3,0.1,0.5,0.1c1,0,1.9,0.1,2.9,0.1c0.8,0,1.5,0.1,2.3,0.1
		c0.3,0,0.3,0.1,0.3,0.4c0,1-0.1,1.2-1.2,1c-1.8-0.1-3.5-0.1-5.3-0.1c-0.1,0-0.3,0-0.3,0c-0.1,0-0.1,0.1-0.1,0.1l0.1,0.1
		c0.3,0,0.5,0,0.8,0c1.5,0,3.1,0,4.7,0C123.8,50.1,124.2,50.1,124.6,50.1z M123.6,50c-0.5,0-1,0-1.7,0c-1,0-2.1,0-3.1,0
		c-0.3,0-0.5,0-0.8,0c0,0-0.1,0-0.1-0.1l0,0l0,0l0.1-0.1c0.1,0,0.1,0,0.3,0c0.4,0,0.9,0,1.3,0c1.3,0,2.6,0,3.8,0.1
		c0.5,0,0.8,0,1-0.1c0.1-0.1,0.3-0.5,0.1-0.9c0-0.3-0.1-0.4-0.4-0.4c-0.4,0-0.9,0-1.3,0c-0.4,0-0.8,0-1.2,0c-0.5,0-1,0-1.4,0
		c-0.5,0-1,0-1.5,0c-0.1,0-0.3,0-0.3,0h-0.1c0,0,0,0,0-0.1c0.1,0,0.1,0,0.3,0c0.1,0,0.4,0,0.5,0c0.9,0,1.9,0,2.8,0h0.9
		c0.4,0,0.9,0,1.3,0c0.6,0,0.9,0.3,0.9,0.9c0,0.4,0,0.6-0.1,0.9c0,0.3-0.3,0.4-0.5,0.4c-0.3,0-0.5,0-0.8,0
		C123.8,50,123.7,50,123.6,50z"/>
</g>
<g>
	<path class="st0" d="M105.5,37.3h0.1c0,0,0,0,0.1,0l0,0c0,0,0-0.1-0.1-0.1c-0.1-0.1-0.3-0.1-0.3-0.3c-0.1-0.1-0.3-0.1-0.4-0.3
		c-0.5-0.4-0.6-0.8-0.4-1.3c0.1-0.3,0.1-0.6,0.3-0.9c0.1-0.4,0.3-0.8,0.4-1.2l0.1-0.1c0.4,0,0.6,0,1,0c0.3,0,0.5,0,0.8,0l0,0
		c0.1,0,0.3,0.1,0.3,0.3c0,0.1,0,0.3,0,0.3c0,0.4,0.1,0.6,0.3,0.9c0.3,0.9,0,1.7-0.8,2.2c-0.3,0.3-0.5,0.4-0.9,0.5
		c-0.3,0.1-0.5,0.4-0.5,0.8c0,0.1,0,0.3,0,0.5c0,0.4,0,0.8,0,1.2c0,0.1,0,0.1,0.1,0.3c0,0,0,0,0,0.1h0.1c0.1-0.5,0.1-1.2,0.1-1.8
		c0-0.3,0-0.4,0-0.6l0,0l0.3-0.1c0.3,0,0.4-0.1,0.6-0.1c0.5-0.1,0.9-0.5,1-0.9c0.3-0.5,0.3-1,0.1-1.7c-0.1-0.4-0.1-0.8-0.3-1.2
		c0-0.1-0.1-0.3-0.1-0.5c-0.3,0-0.6,0-1.2,0c-0.6,0-1.3,0-1.4,0c-0.1,0-0.1,0.1-0.3,0.3c0,0,0,0.1-0.1,0.1v0.1
		c-0.1,0.4-0.3,0.8-0.4,1.3c0,0.1-0.1,0.4-0.1,0.5c-0.1,0.4,0,0.8,0.1,1.2C104.6,36.9,105,37.2,105.5,37.3z"/>
</g>
<g>
	<path class="st0" d="M105.4,37.4c0,0,0.1,0,0.3,0h0.1l0,0l0,0c0,0,0,0,0-0.1c0,0,0-0.1-0.1-0.1c-0.1-0.1-0.3-0.1-0.3-0.3
		c-0.1-0.1-0.3-0.1-0.4-0.3c-0.4-0.3-0.5-0.8-0.4-1.2c0.1-0.3,0.1-0.6,0.3-0.9c0.1-0.4,0.3-0.8,0.4-1.2c0,0,0.1,0,0.1-0.1
		c0.4,0,0.6,0,1,0c0.3,0,0.5,0,0.8,0l0,0c0.1,0,0.1,0,0.1,0.1c0,0.1,0,0.1,0,0.3c0,0.4,0.1,0.6,0.3,0.9c0.3,0.9,0,1.5-0.6,2.1
		c-0.3,0.3-0.5,0.4-0.9,0.5c-0.4,0.1-0.5,0.5-0.5,0.9c0,0.1,0,0.3,0,0.5c0,0.4,0,0.8,0,1.2c0,0.1,0,0.1,0.1,0.3v0.1l0,0l0,0h0.1l0,0
		c0.3-0.6,0.1-1.2,0.1-1.8c0-0.3,0-0.4,0-0.6l0.3-0.1c0.3,0,0.4-0.1,0.6-0.1c0.5-0.1,0.9-0.5,1.2-1c0.3-0.5,0.3-1,0.1-1.7
		c-0.1-0.4-0.1-0.8-0.3-1.2c0-0.1-0.1-0.4-0.1-0.5l0,0c-0.3,0-0.6,0-1.2,0c-0.6,0-1.3,0-1.5,0c-0.1,0-0.3,0.1-0.3,0.3
		c0,0-0.1,0.1-0.1,0.3v0.1c-0.1,0.4-0.3,0.8-0.4,1.3c0,0.1-0.1,0.4-0.1,0.5c-0.1,0.4,0,0.9,0.3,1.3C104.6,37,105,37.3,105.4,37.4z
		 M104.1,35.4c0.1-0.6,0.3-1.2,0.5-1.8c0-0.1,0-0.3,0.1-0.3c0-0.1,0.1-0.3,0.3-0.3c0.3,0,2.1,0,2.7,0c0.1,0.5,0.3,1,0.4,1.7
		c0.1,0.5,0.1,1.2-0.1,1.7s-0.5,0.8-1,0.9c-0.3,0.1-0.6,0.1-0.9,0.3c0,0.9,0.1,1.7-0.1,2.4l0,0l0,0h-0.1c0-0.1-0.1-0.3-0.1-0.4
		c0-0.5,0-1-0.1-1.5c0-0.4,0.1-0.6,0.5-0.8c0.3-0.1,0.6-0.3,0.9-0.5c0.6-0.5,0.9-1.3,0.8-2.2c-0.1-0.4-0.1-0.8-0.3-1.3
		c0-0.1-0.1-0.1-0.3-0.1c-0.5,0-1.3,0-1.8,0c0,0-0.1,0-0.1,0.1c-0.3,0.6-0.4,1.3-0.6,1.9c-0.1,0.5,0,0.9,0.4,1.3
		c0.3,0.1,0.4,0.3,0.6,0.5l0.1,0.1c-0.1,0-0.3,0-0.4,0C104.6,37.2,103.8,36.3,104.1,35.4z"/>
</g>
<g>
	<path class="st0" d="M105.5,37.3c0.1,0,0.1,0,0.4,0c-0.1-0.1-0.1-0.1-0.1-0.1c-0.3-0.1-0.5-0.3-0.6-0.5c-0.4-0.3-0.6-0.8-0.4-1.3
		c0.3-0.6,0.4-1.3,0.6-1.9l0.1-0.1c0.5,0,1.3,0,1.8,0c0.1,0,0.1,0,0.3,0.1c0.1,0.4,0.1,0.8,0.3,1.3c0.3,0.9,0,1.5-0.8,2.2
		c-0.3,0.3-0.5,0.4-0.9,0.5c-0.3,0.1-0.5,0.5-0.5,0.8c0,0.5,0,1,0.1,1.5c0,0.1,0.1,0.3,0.1,0.4h0.1l0,0l0,0c0.3-0.8,0.1-1.7,0.1-2.4
		c0.3-0.1,0.5-0.1,0.9-0.3c0.5-0.1,0.9-0.4,1-0.9c0.3-0.5,0.3-1.2,0.1-1.7c-0.1-0.5-0.3-1-0.4-1.7c-0.6,0-2.4-0.1-2.7,0
		c-0.1,0-0.1,0.1-0.3,0.3c0,0.1-0.1,0.3-0.1,0.3c-0.3,0.5-0.4,1.2-0.5,1.8C103.8,36.3,104.6,37.2,105.5,37.3z M104.2,35.4
		c0-0.1,0.1-0.4,0.1-0.5c0.1-0.4,0.3-0.9,0.4-1.3v-0.1c0-0.1,0-0.1,0.1-0.1c0-0.1,0.1-0.3,0.3-0.3c0.1,0,0.8,0,1.4,0
		c0.5,0,0.9,0,1.2,0c0,0.1,0.1,0.3,0.1,0.5c0.1,0.4,0.1,0.8,0.3,1.2c0.1,0.6,0.1,1.2-0.1,1.7s-0.5,0.8-1,0.9c-0.3,0-0.4,0.1-0.6,0.1
		l-0.3,0.1l0,0c0,0.3,0,0.4,0,0.6c0,0.6,0,1.2-0.1,1.8h-0.1c0,0,0,0,0-0.1s-0.1-0.1-0.1-0.3c0-0.4,0-0.8,0-1.2c0-0.1,0-0.3,0-0.5
		c0-0.4,0.1-0.6,0.5-0.8s0.6-0.3,0.9-0.5c0.8-0.5,0.9-1.3,0.8-2.2c-0.1-0.3-0.1-0.6-0.3-0.9c0-0.1,0-0.1,0-0.3s-0.1-0.3-0.3-0.3l0,0
		c-0.3,0-0.5,0-0.8,0c-0.4,0-0.8,0-1,0c-0.1,0-0.1,0-0.1,0.1c-0.1,0.4-0.3,0.8-0.4,1.2c-0.1,0.3-0.1,0.6-0.3,0.9
		c-0.1,0.5,0,0.9,0.4,1.3c0.1,0.1,0.3,0.1,0.4,0.3c0.1,0.1,0.3,0.1,0.3,0.3c0,0,0,0,0.1,0.1l0,0c0,0,0,0-0.1,0c-0.1,0-0.1,0-0.1,0
		c-0.4-0.1-0.9-0.4-1-0.8C104.1,36.1,104.1,35.8,104.2,35.4z"/>
</g>
<g>
	<path class="st0" d="M61.4,47.7L61.4,47.7c-0.1,0.1-0.1,0.1-0.1,0.3c0,0.3-0.1,0.6,0,0.9c0.1,0.9,0.3,0.9,0.9,0.9h0.1h0.1h1.3
		c1.3-0.1,2.7-0.1,4.1-0.3c0.4,0,0.6-0.1,1-0.1l0,0c0,0,0.1,0,0.1-0.1l0,0l0,0h-0.1c-0.3,0-0.4,0-0.6,0c-0.9,0-1.7,0-2.6,0.1h-0.8
		c-0.3,0-0.5,0-0.8,0c-0.6,0-1.3,0-1.9,0.1c-0.4,0-0.5,0-0.5-0.5c0-0.3,0-0.6,0-0.9L61.4,47.7z"/>
</g>
<g>
	<path class="st0" d="M61.5,48.8c0,0.4,0.1,0.4,0.5,0.4c0.9,0,1.8-0.1,2.7-0.1c1.2,0,2.2-0.1,3.3-0.1c0.3,0,0.4,0,0.6,0
		c0.1,0,0.1,0.1,0.3,0.1l-0.1,0.1c-0.4,0.1-0.6,0.1-1,0.1c-1.8,0.1-3.6,0.1-5.4,0.3h-0.1c-0.8,0-0.9,0-1-1c0-0.3,0-0.6,0-0.9
		c0-0.1,0.1-0.1,0.1-0.3l0,0l0,0l0,0c0,0,0,0,0,0.1s-0.1,0.1-0.1,0.3c0,0.3-0.1,0.6,0,0.9c0.1,1,0.3,1,1,1h0.1l0,0l0,0h1.3
		c1.3-0.1,2.7-0.1,4.1-0.3c0.4,0,0.6-0.1,1-0.1l0,0c0.1,0,0.1-0.1,0.1-0.1s0,0,0-0.1l0,0l0,0l0,0L68.8,49c-0.3,0-0.4,0-0.6,0
		c-0.9,0-1.7,0-2.6,0.1h-0.8c-0.3,0-0.5,0-0.8,0c-0.6,0-1.3,0-1.9,0.1C61.7,49.2,61.7,49.2,61.5,48.8c0-0.3,0-0.6,0-0.9v-0.3l0,0
		C61.5,48.1,61.5,48.5,61.5,48.8z"/>
</g>
<g>
	<path class="st0" d="M61.4,47.7L61.4,47.7c-0.1,0-0.3,0.1-0.3,0.3c0,0.3-0.1,0.6,0,0.9c0.1,1,0.3,1,1,1h0.1
		c1.8-0.1,3.6-0.1,5.4-0.3c0.4,0,0.8-0.1,1-0.1c0.1,0,0.1-0.1,0.1-0.1c-0.1,0-0.1-0.1-0.3-0.1c-0.3,0-0.4,0-0.6,0
		c-1.2,0-2.2,0.1-3.3,0.1c-0.9,0-1.8,0-2.7,0.1c-0.4,0-0.4,0-0.5-0.4C61.5,48.5,61.5,48.1,61.4,47.7L61.4,47.7L61.4,47.7z M62,49.4
		c0.6,0,1.3,0,1.9-0.1c0.3,0,0.5,0,0.8,0h0.8c0.9,0,1.7,0,2.6-0.1c0.1,0,0.4,0,0.6,0h0.1l0,0l0,0l-0.1,0.1l0,0
		c-0.4,0.1-0.6,0.1-1,0.1c-1.4,0.1-2.7,0.1-4.1,0.3h-1.3h-0.1H62c-0.6,0-0.8,0-0.9-0.9c0-0.3,0-0.6,0-0.9c0,0,0-0.1,0.1-0.1l0,0v0.3
		c0,0.3,0,0.6,0,0.9C61.5,49.4,61.7,49.4,62,49.4z"/>
</g>
<g>
	<path class="st0" d="M76.8,60.1c0-0.1-0.1-0.4-0.1-0.5c-0.1-0.4-0.1-0.9-0.3-1.3c-0.1-0.6-0.3-1.2-0.4-1.5c0-0.1-0.1-0.1-0.3-0.3
		c0,0,0,0-0.1-0.1v0.1c0,0.1-0.1,0.3-0.1,0.4s0,0.4,0.1,0.6c0.1,0.6,0.4,1.4,0.5,2.1l0.1,0.6l0,0l0,0c0,0,0,0-0.1,0
		c-0.1,0-0.1,0-0.3,0s-0.3,0.1-0.3,0.3c0,0.1,0,0.3,0.1,0.3c0.3,0.3,1.5,0,1.7-0.3l0,0l0,0L76.8,60.1C76.8,60.2,76.8,60.2,76.8,60.1
		z"/>
</g>
<g>
	<path class="st0" d="M76.9,60.1c0-0.1-0.1-0.4-0.1-0.5c-0.1-0.4-0.1-0.9-0.3-1.3c-0.1-0.6-0.3-1.2-0.4-1.5c0-0.1-0.1-0.1-0.3-0.3
		l-0.1-0.1l0,0l0,0c0,0,0,0.1-0.1,0.1c0,0.1-0.1,0.3-0.1,0.4c0,0.3,0,0.4,0.1,0.6c0.1,0.6,0.4,1.4,0.5,2.1l0.1,0.6l0,0
		c-0.1,0-0.1,0-0.3,0c-0.3,0-0.4,0.1-0.4,0.3s0.1,0.3,0.1,0.4C75.9,61,76,61,76.3,61c0.5,0,1.2-0.1,1.3-0.4c0,0,0,0,0-0.1
		c0,0,0,0,0-0.1l0,0L76.9,60.1z M77.6,60.6c-0.3,0.3-1.5,0.5-1.8,0.3c-0.1-0.1-0.1-0.3-0.1-0.3c0-0.1,0.1-0.3,0.3-0.3s0.3,0,0.4-0.1
		c-0.3-0.9-0.5-1.8-0.6-2.7c0-0.3-0.1-0.4-0.1-0.6c0-0.1,0.1-0.4,0.1-0.5c0.1,0.1,0.3,0.3,0.4,0.4c0.1,0.5,0.3,1,0.4,1.5
		c0.1,0.6,0.3,1.3,0.4,1.9c0.3,0.1,0.5,0.3,0.8,0.3C77.6,60.5,77.6,60.6,77.6,60.6z"/>
</g>
<g>
	<path class="st0" d="M76.4,58.2c-0.1-0.5-0.3-1-0.4-1.5c0-0.1-0.3-0.3-0.4-0.4c0,0.1-0.1,0.4-0.1,0.5c0,0.3,0,0.4,0.1,0.6
		c0.3,0.9,0.5,1.8,0.6,2.7c-0.1,0-0.3,0-0.4,0.1c-0.1,0-0.3,0.1-0.3,0.3c0,0.1,0,0.3,0.1,0.3c0.3,0.3,1.5,0,1.8-0.3c0,0,0,0,0-0.1
		c-0.3-0.1-0.5-0.1-0.8-0.3C76.7,59.6,76.5,58.8,76.4,58.2z M77.6,60.5C77.6,60.5,77.6,60.6,77.6,60.5c-0.3,0.3-1.4,0.5-1.7,0.3
		c-0.1,0-0.1-0.3-0.1-0.3c0-0.1,0.1-0.3,0.3-0.3s0.1,0,0.3,0h0.1l0,0l0,0l-0.1-0.6c-0.1-0.6-0.4-1.4-0.5-2.1c0-0.3-0.1-0.4-0.1-0.6
		c0-0.1,0-0.3,0.1-0.4v-0.1c0,0,0,0,0.1,0.1c0.1,0.1,0.1,0.1,0.3,0.3c0.1,0.5,0.3,1,0.4,1.5c0.1,0.4,0.1,0.9,0.3,1.3
		c0,0.3,0.1,0.4,0.1,0.5l0,0L77.6,60.5L77.6,60.5z"/>
</g>
<g>
	<path class="st0" d="M62.9,47.7c1.8-0.1,3.6-0.3,5.4-0.5h0.4c0.1,0,0.4,0,0.5-0.1c0.1,0,0.1,0,0.3,0l0,0c0,0,0,0-0.1,0
		c-0.1,0-0.1,0-0.3,0c-0.4,0-0.8,0-1,0c-0.5,0-1,0-1.5,0.1c-0.8,0-1.5,0-2.3,0.1c-0.6,0-1.3,0-1.9,0c-0.1,0-0.4,0-0.6,0.1
		c-0.1,0-0.3,0.1-0.3,0.1s0,0.1,0,0.3l0,0c0.1,0,0.3,0,0.5,0C62.3,47.7,62.7,47.7,62.9,47.7z"/>
</g>
<g>
	<path class="st0" d="M61.4,47.6C61.4,47.6,61.5,47.6,61.4,47.6C61.5,47.6,61.5,47.6,61.4,47.6C61.5,47.6,61.4,47.6,61.4,47.6
		L61.4,47.6z"/>
</g>
<g>
	<path class="st0" d="M69.5,46.9L69.5,46.9c-0.1,0-0.3,0-0.4,0c-0.4,0-0.8,0-1,0c-0.5,0-1,0-1.5,0.1c-0.8,0-1.5,0-2.3,0.1
		c-0.6,0-1.3,0-1.9,0c-0.3,0-0.4,0-0.6,0.1c-0.1,0-0.3,0.1-0.3,0.1c0,0.1,0,0.1,0,0.3l0,0l0,0l0,0c0-0.3,0.1-0.4,0.3-0.4
		c0.3,0,0.4-0.1,0.6-0.1c1.4,0,2.8-0.1,4.2-0.1c0.9,0,1.8-0.1,2.6-0.1C69.3,46.9,69.5,46.9,69.5,46.9c0,0.1,0,0.1,0,0.1
		c-0.3,0-0.5,0.1-0.8,0.1c-1.9,0.1-3.8,0.4-5.8,0.5c-0.5,0-1,0-1.5,0l0,0c0.1,0,0.3,0,0.4,0c0.3,0,0.5,0,0.6,0c0.1,0,0.3,0,0.4,0
		c1.8-0.1,3.6-0.3,5.4-0.5h0.4c0.1,0,0.4,0,0.5-0.1c0.1,0,0.1,0,0.3,0l0,0L69.5,46.9C69.6,46.9,69.6,46.9,69.5,46.9z"/>
</g>
<g>
	<path class="st0" d="M61.4,47.7L61.4,47.7L61.4,47.7C61.4,47.6,61.4,47.6,61.4,47.7C61.4,47.6,61.4,47.6,61.4,47.7
		C61.4,47.6,61.4,47.6,61.4,47.7C61.4,47.6,61.4,47.6,61.4,47.7C61.4,47.6,61.4,47.6,61.4,47.7L61.4,47.7z"/>
</g>
<g>
	<path class="st0" d="M61.4,47.7L61.4,47.7C61.5,47.7,61.5,47.7,61.4,47.7L61.4,47.7C61.5,47.7,61.5,47.7,61.4,47.7z"/>
</g>
<g>
	<path class="st0" d="M61.4,47.7L61.4,47.7L61.4,47.7L61.4,47.7L61.4,47.7L61.4,47.7L61.4,47.7z"/>
</g>
<g>
	<path class="st0" d="M61.4,47.6c0-0.1,0-0.1,0-0.3s0.1-0.1,0.3-0.1c0.3,0,0.4-0.1,0.6-0.1c0.6,0,1.3,0,1.9,0c0.8,0,1.5,0,2.3-0.1
		c0.5,0,1,0,1.5-0.1c0.4,0,0.8,0,1,0c0.1,0,0.1,0,0.3,0c0,0,0,0,0.1,0l0,0c-0.1,0-0.1,0-0.3,0c-0.1,0-0.4,0.1-0.5,0.1h-0.4
		c-1.8,0.1-3.6,0.4-5.4,0.5c-0.4,0-0.6,0-1,0C61.8,47.7,61.7,47.6,61.4,47.6C61.5,47.6,61.5,47.6,61.4,47.6
		C61.5,47.7,61.5,47.7,61.4,47.6L61.4,47.6c0.5,0.1,1,0.1,1.5,0.1c1.9-0.1,3.8-0.4,5.8-0.5c0.3,0,0.5-0.1,0.8-0.1v-0.1
		c-0.1,0-0.3,0-0.4,0c-0.9,0-1.8,0.1-2.6,0.1c-1.4,0-2.8,0.1-4.2,0.1c-0.3,0-0.4,0-0.6,0.1C61.5,47.3,61.4,47.3,61.4,47.6L61.4,47.6
		L61.4,47.6z"/>
</g>
<g>
	<path class="st0" d="M61.4,47.7C61.5,47.7,61.5,47.7,61.4,47.7L61.4,47.7C61.5,47.7,61.5,47.7,61.4,47.7
		C61.5,47.6,61.5,47.6,61.4,47.7C61.5,47.6,61.5,47.6,61.4,47.7C61.5,47.6,61.4,47.6,61.4,47.7C61.4,47.6,61.4,47.6,61.4,47.7
		C61.4,47.6,61.4,47.6,61.4,47.7C61.4,47.6,61.4,47.6,61.4,47.7C61.4,47.6,61.4,47.6,61.4,47.7L61.4,47.7z"/>
</g>
<g>
	<path class="st0" d="M57.2,36.7L57,36.4c0-0.1,0-0.1-0.1-0.3c0,0-0.3-0.1-0.4-0.1l0,0c-0.1,0-0.1,0.3-0.1,0.4c0,0.1,0,0.3,0.1,0.5
		l0.1,0.3c0.3,0.6,0.5,1.3,0.8,1.9c0.3,0.5,0.5,1,0.8,1.5c0,0.1,0.1,0.3,0.3,0.3l0.1-0.1c0,0,0-0.4-0.1-0.8
		C57.9,38.8,57.6,37.7,57.2,36.7z"/>
</g>
<g>
	<path class="st0" d="M58.3,39.9c-0.4-1.2-0.8-2.2-1.2-3.2L57,36.4c0-0.1,0-0.1-0.1-0.3c0-0.1-0.3-0.1-0.5-0.1
		c-0.1,0-0.3,0.3-0.3,0.4c0,0.1,0,0.4,0.1,0.5l0.1,0.3c0.3,0.6,0.5,1.3,0.8,1.9c0.3,0.5,0.5,1,0.8,1.5c0,0.1,0.1,0.4,0.4,0.4l0,0
		l0.1-0.1C58.6,40.6,58.3,40,58.3,39.9z M58.5,40.8C58.5,40.8,58.3,40.8,58.5,40.8c-0.3,0.1-0.4-0.1-0.4-0.3c-0.3-0.5-0.5-1-0.8-1.5
		c-0.3-0.6-0.6-1.4-0.9-2.2c0-0.1-0.1-0.4-0.1-0.5c0-0.1,0.1-0.4,0.3-0.4c0.1,0,0.4,0.1,0.4,0.1c0.1,0.3,0.1,0.3,0.1,0.3
		c0.4,1.2,0.9,2.3,1.3,3.6C58.5,40.1,58.6,40.6,58.5,40.8z"/>
</g>
<g>
	<path class="st0" d="M57,36.4c0-0.1,0-0.1-0.1-0.3c0,0-0.3-0.1-0.4-0.1s-0.3,0.3-0.3,0.4c0,0.1,0,0.4,0.1,0.5
		c0.3,0.8,0.5,1.4,0.9,2.2c0.3,0.5,0.5,1,0.8,1.5c0.1,0.1,0.1,0.3,0.3,0.3c0,0,0.1,0,0.1-0.1c0.1,0,0-0.5-0.1-0.8
		C57.9,38.7,57.6,37.6,57,36.4z M58.5,40.6L58.5,40.6c-0.3,0-0.4-0.1-0.4-0.3c-0.3-0.5-0.5-1-0.8-1.5c-0.3-0.6-0.5-1.3-0.8-1.9
		l-0.1-0.1c-0.1-0.1-0.1-0.4-0.1-0.5s0.1-0.3,0.1-0.4l0,0c0.1,0,0.3,0.1,0.4,0.1c0.1,0.1,0.1,0.1,0.1,0.3l0.1,0.3
		c0.4,1,0.8,2.2,1.2,3.2C58.5,40.3,58.5,40.6,58.5,40.6z"/>
</g>
<g>
	<path class="st0" d="M109,56.3c0,0-0.1,0-0.3,0.1c-0.1,0.1-0.1,0.3-0.1,0.4c-0.4,1.3-0.6,2.2-0.9,3.2l0,0c0,0.3-0.1,0.4-0.4,0.4
		l-0.1,0.1c0,0,0,0,0,0.1l0,0l0.1,0.1c0.4,0,0.9-0.1,1.3-0.1c0,0,0.1,0,0.1-0.1l0,0l0,0l0,0c-0.1,0-0.3,0-0.4-0.1h-0.1l0,0l0,0
		c0.1-0.3,0.1-0.5,0.3-0.8c0.3-0.8,0.5-1.5,0.6-2.3c0-0.3,0.1-0.4,0.1-0.8C109.1,56.4,109,56.3,109,56.3z"/>
</g>
<g>
	<path class="st0" d="M109,56.1c-0.1,0-0.3,0-0.3,0.1c-0.1,0.1-0.1,0.3-0.1,0.4c-0.4,1.3-0.6,2.2-0.9,3.2V60c0,0.3-0.1,0.4-0.4,0.4
		c-0.1,0-0.1,0.1-0.1,0.1s0,0.1-0.1,0.1l0,0l0,0c0,0,0,0,0.1,0c0.1,0,0.1,0.1,0.3,0.1l0,0c0.4,0,0.9-0.1,1.3-0.1c0,0,0.1,0,0.1-0.1
		c0,0,0,0,0.1,0l0,0l0,0c0,0,0,0-0.1,0c0,0,0,0-0.1,0c-0.1,0-0.3,0-0.4-0.1h-0.1c0.1-0.3,0.1-0.5,0.3-0.8c0.3-0.8,0.5-1.5,0.6-2.3
		c0-0.3,0.1-0.4,0.1-0.8C109.1,56.3,109.1,56.1,109,56.1z M109,57.2c-0.3,1-0.6,2.1-0.9,3.1c0.1,0,0.3,0.1,0.5,0.1
		c0,0,0.1,0,0.1,0.1c-0.1,0-0.1,0.1-0.3,0.1c-0.4,0-0.9,0.1-1.3,0.1c-0.1,0-0.1-0.1-0.3-0.1c0.1-0.1,0.1-0.3,0.3-0.3
		c0.4,0,0.4-0.3,0.4-0.5c0.3-1,0.6-2.2,0.9-3.2c0-0.1,0.1-0.3,0.1-0.4s0.3-0.1,0.3-0.1c0.1,0,0.1,0.1,0.1,0.3
		C109.1,56.7,109.1,56.9,109,57.2z"/>
</g>
<g>
	<path class="st0" d="M109,56.1c-0.1,0-0.3,0-0.3,0.1c-0.1,0.1-0.1,0.3-0.1,0.4c-0.3,1-0.6,2.2-0.9,3.2c-0.1,0.3-0.1,0.5-0.4,0.5
		c-0.1,0-0.1,0.1-0.3,0.3c0.1,0,0.1,0.1,0.3,0.1c0.4,0,0.9-0.1,1.3-0.1c0.1,0,0.1-0.1,0.3-0.1c-0.1,0-0.1-0.1-0.1-0.1
		c-0.1,0-0.3-0.1-0.5-0.1c0.3-1,0.6-2.1,0.9-3.1c0.1-0.3,0.1-0.5,0.1-0.8C109.1,56.4,109,56.3,109,56.1z M109,57.2
		c-0.3,0.8-0.5,1.5-0.6,2.3c-0.1,0.3-0.1,0.5-0.3,0.8l0,0l0,0h0.1c0.1,0,0.3,0,0.4,0.1l0,0l0,0l0,0l-0.1,0.1c-0.4,0-0.8,0.1-1.3,0.1
		c0,0-0.1,0-0.1-0.1l0,0c0,0,0,0,0-0.1l0.1-0.1c0.4,0,0.4-0.3,0.4-0.4l0,0c0.3-0.9,0.5-1.9,0.9-3.2c0-0.1,0.1-0.3,0.1-0.4
		c0,0,0.1-0.1,0.3-0.1l0.1,0.1C109.1,56.7,109,56.9,109,57.2z"/>
</g>
<g>
	<path class="st0" d="M97.6,39.6c-0.1,0-0.3,0-0.4,0H97l0,0c0,0,0,0,0.1,0c0.1,0,0.1,0,0.3,0.1c1.8,0,3.6,0.1,5.8,0.1
		c0.1,0,0.3,0,0.4-0.1v-0.1c0,0-0.3-0.1-0.4-0.1C101.1,39.6,99.1,39.6,97.6,39.6z"/>
</g>
<g>
	<path class="st0" d="M97.6,39.6c-0.1,0-0.3,0-0.4,0H97l0,0v0.1l0,0h0.1c0.1,0,0.1,0.1,0.3,0.1c1.8,0,3.6,0.1,5.8,0.1l0,0
		c0.1,0,0.3,0,0.4-0.1c0,0,0.1-0.1,0.1-0.3c0,0,0,0,0-0.1c-0.1-0.1-0.3-0.1-0.4-0.1C101.1,39.6,99.1,39.6,97.6,39.6z M103.6,39.9
		c0,0.3-0.3,0.3-0.4,0.3c-1.9,0-3.8-0.1-5.8-0.1c-0.1,0-0.3-0.1-0.4-0.1v-0.1c0.1,0,0.4-0.1,0.5-0.1c1.9,0,3.7,0,5.6,0
		C103.3,39.6,103.6,39.7,103.6,39.9z"/>
</g>
<g>
	<path class="st0" d="M97.6,39.6c-0.1,0-0.4,0-0.5,0.1v0.1c0.1,0,0.3,0.1,0.4,0.1c1.9,0,3.8,0.1,5.8,0.1c0.3,0,0.4,0,0.4-0.3
		c0-0.1-0.3-0.3-0.4-0.3C101.3,39.6,99.5,39.6,97.6,39.6z M103.6,40c-0.1,0.1-0.3,0.1-0.4,0.1c-2.2,0-4.1-0.1-5.8-0.1
		c-0.1,0-0.1,0-0.3-0.1c0,0,0,0-0.1,0l0,0h0.1c0.1,0,0.3,0,0.4,0c1.5,0,3.6,0,5.6,0C103.3,39.9,103.6,40,103.6,40
		C103.6,39.9,103.6,40,103.6,40z"/>
</g>
<g>
	<path class="st0" d="M111.7,56.7L111.7,56.7c-0.1,0-0.3,0.1-0.3,0.3c-0.1,0.4-0.6,2.4-0.6,2.9c0,0.1,0,0.1,0,0.1
		c0,0.1-0.1,0.3-0.3,0.3s-0.1,0.1-0.1,0.1c0,0.1,0,0.1,0.1,0.3c0.1,0.1,0.3,0.1,0.5,0.1c0.3,0,0.5-0.1,0.5-0.3l-0.6-0.1l0,0l0,0
		c0.1-0.1,0.8-2.4,0.9-3.3C111.8,56.9,111.8,56.8,111.7,56.7L111.7,56.7z"/>
</g>
<g>
	<path class="st0" d="M111.7,56.5L111.7,56.5c-0.1,0-0.4,0.1-0.4,0.4c-0.1,0.4-0.6,2.4-0.6,2.9V60c0,0.1-0.1,0.3-0.1,0.3l0,0
		c-0.1,0-0.3,0.1-0.3,0.3c0,0,0,0.1,0.1,0.3c0.1,0.1,0.3,0.1,0.5,0.1h0.1c0.3,0,0.5-0.1,0.6-0.4l0,0l0,0l-0.8-0.1
		c0.1-0.4,0.8-2.4,0.9-3.3c0-0.1,0-0.3,0-0.4C111.8,56.7,111.7,56.5,111.7,56.5z M111.8,57c-0.1,0.9-0.9,3.2-0.9,3.3
		c0.3,0.1,0.4,0.1,0.6,0.3c-0.3,0.4-0.9,0.4-1.2,0.3c-0.1-0.1-0.1-0.4,0.1-0.4s0.1-0.1,0.3-0.4c0-0.5,0.5-2.6,0.6-2.9
		c0-0.1,0.3-0.3,0.4-0.3C111.8,56.7,111.8,56.9,111.8,57z"/>
</g>
<g>
	<path class="st0" d="M111.7,56.7c-0.1,0-0.3,0.1-0.4,0.3c-0.1,0.4-0.6,2.4-0.6,2.9c-0.1,0.3-0.1,0.4-0.3,0.4
		c-0.3,0.1-0.3,0.3-0.1,0.4c0.3,0.3,0.9,0.1,1.2-0.3c-0.3-0.1-0.3-0.1-0.6-0.3c0.1-0.1,0.8-2.3,0.9-3.3
		C111.8,56.9,111.8,56.7,111.7,56.7z M111.8,57c-0.1,0.9-0.9,3.1-0.9,3.3l0,0l0,0l0.5,0.1c-0.1,0.1-0.4,0.3-0.5,0.3
		c-0.3,0-0.4,0-0.5-0.1c0,0-0.1-0.1-0.1-0.3l0.1-0.1c0.1,0,0.3-0.1,0.3-0.3v-0.1c0-0.5,0.5-2.6,0.6-2.9c0-0.1,0.3-0.3,0.3-0.3l0,0
		h0.1C111.8,56.8,111.8,56.9,111.8,57z"/>
</g>
<g>
	<path class="st0" d="M81.9,60.6c-0.1,0-0.4-0.1-0.5-0.1s-0.1,0-0.3,0l0,0l0,0v-0.1c0-0.3-0.1-0.4-0.1-0.6c-0.1-0.6-0.3-1.3-0.4-1.8
		c0-0.1-0.1-0.3-0.1-0.4c0,0,0-0.1-0.1-0.1h-0.1c0,0,0,0,0,0.1c0,0.1,0,0.1,0,0.3c0,0.3,0,0.5,0.1,0.8c0.1,0.5,0.3,1,0.4,1.4
		c0,0.1,0.1,0.4,0.1,0.5l0,0l0,0h-0.1c-0.1,0-0.1,0-0.3,0s-0.1,0.1-0.3,0.3c0,0,0,0,0,0.1l0.1,0.1c0.5,0,1,0,1.5,0
		c0,0,0.1,0,0.1-0.1l0,0C82,60.8,82,60.8,81.9,60.6C82,60.8,81.9,60.6,81.9,60.6z"/>
</g>
<g>
	<path class="st0" d="M82,60.8l-0.1-0.1c-0.1,0-0.4-0.1-0.5-0.1h-0.1c0,0,0,0,0-0.1c0-0.3-0.1-0.4-0.1-0.6c-0.1-0.6-0.3-1.3-0.4-1.8
		c0-0.1-0.1-0.3-0.3-0.4l-0.1-0.1l0,0h-0.1l0,0v0.1c0,0.1,0,0.1,0,0.3c0,0.3,0,0.5,0.1,0.8c0.1,0.5,0.3,1,0.4,1.4
		c0,0.1,0.1,0.4,0.1,0.5c0,0,0,0-0.1,0c-0.1,0-0.3,0-0.3,0.1c-0.1,0-0.3,0.1-0.3,0.3V61c0,0,0.1,0.1,0.3,0.1c0.1,0,0.3,0,0.4,0
		c0.4,0,0.8,0,1.2,0c0.1,0,0.1,0,0.1-0.1C82,60.9,82.2,60.9,82,60.8C82.2,60.8,82.2,60.8,82,60.8C82.2,60.8,82.2,60.8,82,60.8
		C82.2,60.8,82.2,60.8,82,60.8z M81.9,61c-0.5,0-1,0-1.5,0c-0.1,0-0.3-0.1-0.3-0.3s0.1-0.3,0.3-0.3c0.1,0,0.3,0,0.4-0.1
		c-0.1-0.6-0.4-1.4-0.5-2.1c0-0.3-0.1-0.5-0.1-0.8c0-0.1,0-0.3,0.1-0.4h0.1c0.1,0.1,0.3,0.4,0.3,0.5c0.1,0.8,0.4,1.7,0.5,2.4v0.1
		c0.3,0,0.5,0.1,0.6,0.1c0.1,0,0.1,0.1,0.1,0.1C82,60.9,82,61,81.9,61z"/>
</g>
<g>
	<path class="st0" d="M81.9,60.6c-0.3-0.1-0.5-0.1-0.6-0.1v-0.1c-0.1-0.8-0.4-1.7-0.5-2.4c0-0.3-0.3-0.4-0.3-0.5h-0.1
		c0,0.1-0.1,0.3-0.1,0.4c0,0.3,0,0.5,0.1,0.8c0.1,0.6,0.3,1.3,0.5,2.1c-0.1,0-0.3,0-0.4,0.1c-0.1,0-0.3,0.1-0.3,0.3
		c0,0.1,0.1,0.3,0.3,0.3c0.5,0,1,0,1.5,0c0.1,0,0.1-0.1,0.3-0.1C82,60.8,82,60.6,81.9,60.6z M82,60.8C82,60.8,82,60.9,82,60.8
		c-0.1,0.1-0.1,0.1-0.1,0.1c-0.6,0-1.2,0-1.5,0c0,0-0.1,0-0.1-0.1v-0.1c0-0.1,0.1-0.3,0.3-0.3c0.1,0,0.1,0,0.3,0h0.1l0,0l0,0
		c0-0.1-0.1-0.4-0.1-0.5c-0.1-0.5-0.3-1-0.4-1.4c0-0.3-0.1-0.5-0.1-0.8c0-0.1,0-0.1,0-0.3c0,0,0,0,0-0.1h0.1c0,0,0,0.1,0.1,0.1
		c0.1,0.1,0.1,0.3,0.1,0.4c0.1,0.6,0.3,1.3,0.4,1.8c0,0.3,0.1,0.4,0.1,0.6v0.1l0,0l0,0c0.1,0,0.1,0,0.3,0c0.1,0,0.4,0.1,0.5,0.1
		C81.9,60.6,82,60.8,82,60.8L82,60.8z"/>
</g>
<g>
	<path class="st0" d="M77.7,54.4h-0.1c-0.1,0-0.1,0-0.1,0c-0.1,0-0.3,0-0.4,0l-0.1,0.1l0.1,0.1c0.4,0,0.8,0,1.3,0c0,0,0,0,0.1-0.1
		l0,0l0,0h-0.1C77.9,54.4,77.8,54.4,77.7,54.4z"/>
</g>
<g>
	<path class="st0" d="M78.3,54.4l-0.1-0.1c-0.1,0-0.4,0-0.5,0h-0.1l0,0c-0.1,0-0.1,0-0.1,0c-0.1,0-0.3,0-0.4,0
		c-0.1,0-0.3,0.1-0.3,0.3c0,0,0,0.1,0.1,0.1H77l0,0c0.4,0,0.8,0,1.3,0l0.1-0.1C78.3,54.6,78.3,54.5,78.3,54.4
		C78.3,54.5,78.3,54.5,78.3,54.4C78.3,54.5,78.3,54.5,78.3,54.4C78.3,54.5,78.3,54.5,78.3,54.4z M78.2,54.6c-0.4,0-0.9,0-1.3,0
		c0,0-0.1-0.1-0.1-0.3c0-0.1,0.1-0.1,0.1-0.3c0.1,0,0.4,0,0.5,0c0.3,0,0.4,0,0.6,0.1c0.1,0,0.1,0.1,0.1,0.1
		C78.3,54.6,78.2,54.6,78.2,54.6z"/>
</g>
<g>
	<path class="st0" d="M77.4,54.4c-0.3,0-0.4,0-0.5,0c-0.1,0-0.1,0.1-0.1,0.3c0,0.1,0.1,0.3,0.1,0.3c0.4,0,0.9,0,1.3,0l0.1-0.1
		l-0.1-0.1C77.9,54.4,77.7,54.4,77.4,54.4z M78.3,54.5C78.3,54.5,78.2,54.5,78.3,54.5c0,0.1-0.1,0.1-0.1,0.1c-0.5,0-0.9,0-1.3,0
		l-0.1-0.1l0.1-0.1c0.1,0,0.3,0,0.4,0h0.1h0.1c0.1,0,0.4,0,0.5,0C78.2,54.5,78.2,54.5,78.3,54.5C78.2,54.5,78.3,54.5,78.3,54.5z"/>
</g>
<g>
	<path class="st0" d="M108.2,54.9L108.2,54.9L108.2,54.9c-0.1,0.1-0.1,0.3-0.1,0.3v0.1c0.3,0,0.5,0,0.8-0.1c0.1,0,0.4,0,0.5,0V55
		c-0.1,0-0.1,0-0.3,0C108.8,54.9,108.4,54.9,108.2,54.9L108.2,54.9z"/>
</g>
<g>
	<path class="st0" d="M109.5,54.9c-0.1,0-0.3,0-0.3,0c-0.3,0-0.6,0-0.9,0l0,0h-0.1l0,0l0,0c0,0.1,0,0.1,0,0.1c0,0.1,0,0.1,0,0.1l0,0
		l0,0c0.3,0,0.5,0,0.8-0.1c0.3,0,0.4,0,0.6,0l0,0C109.5,55,109.5,54.9,109.5,54.9L109.5,54.9z M109.5,55.1L109.5,55.1L109.5,55.1z
		 M109.5,55.1c-0.4,0-0.9,0.1-1.3,0.1c-0.1,0,0-0.1,0-0.3c0.1,0,0.1-0.1,0.1-0.1c0.4,0,0.8,0,1.3,0C109.5,54.9,109.5,55,109.5,55.1z
		"/>
</g>
<g>
	<path class="st0" d="M108.1,54.9c0,0.3,0,0.3,0,0.3c0.4,0,0.9-0.1,1.3-0.1c0-0.1,0-0.1,0-0.3c-0.4,0-0.8,0-1.3,0
		C108.2,54.9,108.2,54.9,108.1,54.9z M109.3,54.9V55c-0.1,0-0.4,0-0.5,0c-0.3,0-0.5,0.1-0.8,0.1c0,0,0,0,0-0.1v-0.1l0,0l0,0l0,0
		c0.3,0,0.6,0,0.9,0S109.3,54.9,109.3,54.9z"/>
</g>
<g>
	<path class="st0" d="M86.5,7.8C88.4,6.7,90.6,6,92.9,6c2.3,0,4.6,0.6,6.4,1.8c0.4-0.9,1.2-2.1,2.3-3.1c0.5-0.5,1-0.9,1.5-1.3
		c-0.3-0.1-0.5-0.3-0.8-0.3c-0.5,0-1,0.4-1.2,0.9c-0.1-0.3-0.4-0.5-0.8-0.5c-0.5,0-0.9,0.4-0.9,0.9c0,0.4,0.3,0.8,0.6,0.9
		C100,5.8,99.5,6,99,6c-0.9,0-1.7-0.8-1.7-1.7C97.4,4,97.4,4,97.4,3.8c0.1,0,0.3,0,0.3,0c0.5,0,0.9-0.4,0.9-0.9s-0.4-0.9-0.9-0.9
		c-0.5,0-0.9,0.4-0.9,0.9c0,0.3,0.1,0.5,0.3,0.6c-0.4,0.5-0.9,0.9-1.7,0.9c-1,0-1.9-0.9-1.9-1.9c0-0.1,0-0.3,0-0.4c0,0,0,0,0,0.1
		c0,0.5,0.4,0.9,0.9,0.9c0.5,0,0.9-0.4,0.9-0.9s-0.4-0.9-0.9-0.9c-0.1,0-0.3,0-0.4,0.1c0-0.1,0-0.1,0-0.3c0-0.6-0.5-1.2-1.2-1.3
		c-0.6,0-1.2,0.5-1.2,1.3c0,0.1,0,0.3,0,0.3c0-0.1-0.1-0.1-0.3-0.1c-0.5,0-0.9,0.4-0.9,0.9s0.4,0.9,0.9,0.9c0.5,0,0.9-0.4,0.9-0.9
		V2.2c0,0.1,0,0.3,0,0.4c0,1-0.9,1.9-1.9,1.9c-0.6,0-1.3-0.4-1.7-0.9C89,3.5,89,3.2,89,2.9c0-0.5-0.4-0.9-0.9-0.9
		c-0.5,0-0.9,0.4-0.9,0.9s0.4,0.9,0.9,0.9c0.1,0,0.3,0,0.3,0c0,0.1,0,0.1,0,0.3c0,0.9-0.8,1.7-1.7,1.7c-0.5,0-1-0.3-1.3-0.6
		C85.8,5,86,4.7,86,4.2s-0.4-0.9-0.9-0.9c-0.4,0-0.6,0.3-0.8,0.5c-0.1-0.5-0.6-0.9-1.2-0.9c-0.3,0-0.5,0.1-0.8,0.3
		c0.5,0.4,1,0.8,1.5,1.3C85.4,5.6,86.1,6.8,86.5,7.8z"/>
</g>
<g>
	<path class="st0" d="M94.2,17v-0.5l0.1-0.1h0.4v-0.9v-1.3c0-0.5,0-0.8,0-0.9c0-0.1,0-0.3,0.1-0.3c0,0,0.1-0.1,0.3-0.1
		c0.1,0,0.4,0,0.9-0.1l0,0v-0.4l0,0c-1,0-5-0.1-5.8,0.3c-0.4,0.1-0.8,0.4-1,0.6c-0.3,0.4-0.4,0.8-0.4,1.3c0,1,0.6,1.7,0.9,1.9
		c0.5,0.5,1.5,0.6,2.2,0.6c0.1,0,0.9,0,1,0V17v-0.4l0,0c-0.1,0-0.9,0-1,0c-0.5,0-1-0.1-1.3-0.4c-0.4-0.4-0.5-0.8-0.5-1.3
		c0-0.6,0.1-1,0.5-1.4c0.4-0.4,0.9-0.4,1.7-0.4c0.4,0,1.3,0,1.3,0s0,1.3,0,2.6v2.9V20c0,0.5,0,0.8,0,0.9c0,0.1,0,0.3-0.1,0.3
		c0,0-0.1,0.1-0.3,0.1c-0.1,0-0.4,0-0.9,0.1l0,0v0.4l0,0c1.2,0,2.6,0,3.7,0l0,0v-0.4l0,0c-0.4,0-0.6,0-0.8-0.1c-0.1,0-0.3,0-0.3-0.1
		c0,0-0.1-0.1-0.1-0.3c0-0.1,0-0.4,0-0.9v-1.4v-1.3C94.6,17.2,94.5,17.2,94.2,17L94.2,17z"/>
</g>
<g>
	<path class="st0" d="M98.8,9.5c-1.5-0.6-3.6-1.2-5.6-1.2c-2.7,0-4.9,0.8-6.5,2.2c-1.7,1.4-2.6,3.6-2.6,6c0,1.7,0.6,3.1,1.3,4.2
		c0.8,1.2,1.8,2.1,3.1,2.7c1.3,0.6,2.7,0.9,4.2,0.9c2.1,0,4.1-0.4,6-1.2l0.1-0.1c-0.1-0.8-0.1-1.4-0.1-2.1c0-0.5,0-2.4,0-2.8
		c0-0.4,0-0.6,0.1-0.6c0,0,0.1-0.1,0.3-0.1l0.5-0.3V17v-0.3l-0.1-0.1c-0.8,0-1.4,0.1-1.8,0.1c-0.8,0-1.7,0-2.7,0h-0.3v0.6
		c0.8,0,1.5,0,1.8,0.1c0.3,0,0.5,0.1,0.5,0.3c0.1,0.1,0.1,0.5,0.1,1v2.7c0,0.6,0,0.9-0.1,1.2c-0.4,0.3-1.3,0.6-1.9,0.8
		c-2.1,0.4-4.7,0.3-6.5-1c-2.7-2.1-3.2-6.4-1.8-9.4c1.4-2.8,5-3.7,7.9-3.2c0.5,0.1,1,0.3,1.5,0.5c0.5,0.3,0.9,0.4,1,0.5
		c0.1,0.1,0.3,0.1,0.3,0.3c0,0.1,0,0.3,0.1,0.6v1.2l0.1,0.1h0.5l0.1-0.1c0,0,0,0,0-0.1v-0.1C98.4,11.4,98.6,10.5,98.8,9.5L98.8,9.5z
		"/>
</g>
<g>
	<path class="st0" d="M94.3,16.5L94.3,16.5L94.2,17l0.1,0.1c0.1,0,0.3,0,0.4,0v-0.6H94.3z"/>
</g>
<g>
	<path class="st0" d="M95.9,53.1c-0.3-1.7-1-3.1-1.5-4.6c2.3-0.8,4.5-1.5,6.8-2.3c0-0.1,0.1-0.3,0.3-0.3c0,0,0.1,0,0.3,0.1
		c2.3-0.8,4.7-1.5,7.1-2.3c0.5,1.5,1,3.1,1.5,4.6c-0.1,0-0.3,0.1-0.4,0.1c0,0.1,0,0.4,0,0.5c0.3-0.1,0.4-0.1,0.6-0.3
		c0.1,0,0.3-0.1,0.4-0.3c0.1-0.1,0.1-0.3,0-0.4c0-0.1,0-0.1-0.1-0.3c0-0.1,0-0.1-0.1-0.3l-0.1-0.3c-0.4-1.2-0.8-2.2-1.2-3.3
		c0-0.1-0.1-0.3-0.1-0.4c0-0.1-0.1-0.3-0.1-0.3c-0.1-0.3-0.3-0.3-0.5-0.3l-0.4,0.1c-0.9,0.3-1.9,0.6-2.8,0.9c0,0-0.1,0-0.3,0
		c-0.6-0.5-1.3-0.9-1.9-1.4c-0.4-0.3-0.8-0.6-1.2-0.9c-0.3,0-0.4,0-0.6,0c0,0,0,0.1,0.1,0.1c0.6,0.5,1.4,1.2,2.3,1.8
		c0.3,0.1,0.4,0.4,0.6,0.5c0.1,0,0.1,0.1,0.3,0.1l-6,2.1l0,0l1.3-3.1c0.3-0.5,0.4-0.9,0.6-1.4c-0.1,0-0.3,0-0.4,0
		c-0.1,0.1-0.1,0.4-0.3,0.5c-0.1,0.3-0.1,0.4-0.3,0.6c-0.5,1.3-1,2.4-1.5,3.5l-0.1,0.1c-0.4,0.1-0.9,0.3-1.5,0.5
		c-0.3,0.1-0.5,0.1-0.8,0.3c-0.5,0.1-0.9,0.3-1.4,0.5c-0.1,0-0.3,0.1-0.4,0.3c0,0.1,0,0.3,0,0.4c0.1,0.3,0.1,0.5,0.3,0.6
		c0.1,0.4,0.3,0.8,0.4,1.2c0.3,0.8,0.5,1.5,0.8,2.3l0.3,0.8c0,0,0,0,0,0.1s0,0.3,0.1,0.3l0.1,0.1c0,0,0,0,0.1,0
		c0.3,0,0.5-0.1,0.8-0.1c1-0.4,2.2-0.8,3.2-1.2V52C98.6,52.2,97.3,52.6,95.9,53.1z"/>
	<path class="st0" d="M95.8,53.7c-0.1,0-0.1,0-0.3-0.1c0,0-0.1-0.1-0.1-0.4c0,0,0,0,0-0.1l-0.3-0.8c-0.3-0.8-0.5-1.5-0.8-2.2
		c-0.1-0.4-0.3-0.8-0.4-1.2c-0.1-0.3-0.1-0.5-0.3-0.8c-0.1-0.3-0.1-0.4,0-0.5c0.1-0.1,0.3-0.3,0.4-0.3c0.5-0.1,0.9-0.3,1.4-0.5
		c0.3-0.1,0.5-0.1,0.8-0.3c0.6-0.3,1.2-0.4,1.5-0.5h0.1c0.5-1.2,1-2.3,1.5-3.5c0.1-0.3,0.1-0.4,0.3-0.6c0.1-0.1,0.1-0.4,0.3-0.5l0,0
		h0.6v0.1c-0.3,0.5-0.4,1-0.6,1.4L98.7,46l5.9-1.9h-0.1c-0.3-0.1-0.5-0.4-0.6-0.5c-0.9-0.6-1.7-1.3-2.3-1.8l-0.1-0.1l-0.1-0.1h0.9
		l0,0c0.4,0.3,0.8,0.6,1.2,0.9c0.6,0.5,1.3,0.9,1.9,1.4h0.1c0.9-0.3,1.9-0.6,2.8-0.9l0.4-0.1c0.3-0.1,0.5,0,0.5,0.3
		c0,0.1,0.1,0.3,0.1,0.3l0,0c0,0.1,0.1,0.3,0.1,0.4c0.4,1.2,0.8,2.2,1.2,3.3l0.1,0.3c0,0.1,0,0.1,0.1,0.3l0,0c0,0.1,0,0.1,0.1,0.3
		c0,0.1,0,0.3,0,0.4c-0.1,0.1-0.3,0.3-0.4,0.3l-0.8,0.3v-0.1c0-0.1,0-0.4,0-0.5l0,0l0.4-0.1l-1.5-4.2l-7.1,2.3l0,0l-0.1-0.1l0,0
		c0,0-0.1,0.1-0.1,0.3l0,0l0,0l-6.7,2.2c0.1,0.5,0.4,1.2,0.6,1.7c0.4,0.9,0.8,1.8,0.9,2.8l4.1-1.4v0.9l0,0c-1,0.4-2.2,0.8-3.2,1.2
		C96.4,53.7,96.1,53.7,95.8,53.7C95.9,53.7,95.9,53.7,95.8,53.7z M100.2,41.9c-0.1,0.1-0.1,0.3-0.1,0.5c-0.1,0.3-0.1,0.4-0.3,0.6
		c-0.5,1.3-1,2.4-1.5,3.5c0,0.1-0.1,0.1-0.3,0.1c-0.4,0.1-0.9,0.3-1.5,0.5c-0.3,0.1-0.5,0.1-0.8,0.3c-0.5,0.1-0.9,0.3-1.4,0.5
		c-0.1,0-0.3,0.1-0.3,0.1c0,0.1,0,0.3,0,0.4c0.1,0.3,0.1,0.5,0.3,0.6c0.1,0.4,0.3,0.8,0.4,1.2c0.3,0.8,0.5,1.5,0.8,2.2l0.3,0.8v0.1
		c0,0.1,0,0.1,0,0.3c0,0,0.1,0,0.3,0c0.3,0,0.5-0.1,0.8-0.1c1-0.4,2.1-0.8,3.2-1v-0.5l-4.1,1.4v-0.1c-0.1-1-0.5-1.9-0.9-2.8
		c-0.3-0.5-0.5-1.2-0.6-1.8v-0.1l6.8-2.3c0.1-0.1,0.3-0.3,0.4-0.3c0,0,0.1,0,0.3,0.1l7.2-2.4l0.1,0.4l1.5,4.4l-0.4,0.1
		c0,0.1,0,0.3,0,0.4l0.5-0.1c0.1,0,0.3-0.1,0.3-0.3c0-0.1,0.1-0.3,0-0.3c0-0.1,0-0.1-0.1-0.3l0,0c0-0.1,0-0.1-0.1-0.3l-0.1-0.3
		c-0.4-1.2-0.8-2.2-1.2-3.3c0-0.1-0.1-0.3-0.1-0.4l0,0c0-0.1-0.1-0.3-0.1-0.3c-0.1-0.1-0.1-0.3-0.4-0.1l-0.4,0.1
		c-0.9,0.3-1.9,0.6-2.8,0.9c-0.1,0-0.3,0-0.3,0c-0.6-0.5-1.3-0.9-1.9-1.4c-0.4-0.3-0.8-0.5-1.2-0.9h-0.4c0.6,0.5,1.4,1,2.2,1.8
		c0.3,0.1,0.4,0.3,0.6,0.5l0.4,0.3l-6.4,2.1v-0.1l1.3-3.1c0.1-0.4,0.4-0.9,0.5-1.3h-0.3V41.9z"/>
</g>
<g>
	<path class="st0" d="M107.3,49.9c0-0.3,0-0.4,0-0.6c-1.8,0.6-3.6,1.2-5.5,1.8c0,0.3,0,0.4,0,0.6C103.6,51.1,105.5,50.5,107.3,49.9z
		"/>
	<path class="st0" d="M101.8,51.9v-0.8l5.6-1.9v0.3c0,0.1,0,0.3,0,0.5l0,0l0,0C105.5,50.6,103.7,51.1,101.8,51.9L101.8,51.9z
		 M101.9,51.1v0.5c1.8-0.6,3.6-1.2,5.3-1.8c0-0.1,0-0.3,0-0.4l0,0L101.9,51.1z"/>
</g>
<g>
	<path class="st0" d="M108.1,49c0,0.3,0,0.4,0,0.6c0.4-0.1,0.8-0.3,1.2-0.4c0-0.3,0-0.4,0-0.5C108.8,48.7,108.4,48.8,108.1,49z"/>
	<path class="st0" d="M108.1,49.7V49l1.2-0.4v0.1c0,0.1,0,0.4,0,0.5l0,0l0,0C108.8,49.4,108.4,49.5,108.1,49.7L108.1,49.7z
		 M108.2,49.1v0.4c0.3-0.1,0.6-0.3,0.9-0.4c0-0.1,0-0.3,0-0.4L108.2,49.1z"/>
</g>
<g>
	<path class="st0" d="M100.5,52.2c0.3-0.1,0.5-0.1,0.6-0.3c0-0.3,0-0.4,0-0.6c-0.3,0.1-0.5,0.1-0.6,0.3
		C100.5,51.8,100.5,52,100.5,52.2z"/>
	<path class="st0" d="M100.4,52.3v-0.8l0.8-0.3v0.3c0,0.1,0,0.4,0,0.5l0,0L100.4,52.3z M100.5,51.7v0.5L101,52c0-0.1,0-0.3,0-0.4
		l0,0L100.5,51.7z"/>
</g>
<g>
	<path class="st0" d="M100.6,41.7C100.6,41.5,100.6,41.5,100.6,41.7v-0.1h-0.1l0,0c0,0,0,0,0,0.1c0,0-0.1,0.1-0.1,0.3l0,0
		c0.1,0,0.3,0,0.4,0C100.6,41.7,100.6,41.7,100.6,41.7z"/>
	<path class="st0" d="M100.6,41.8H100v-0.1c0-0.1,0.1-0.1,0.1-0.3c0,0,0,0,0-0.1v-0.1l0.3,0.1v0.1c0,0,0,0,0,0.1l0,0
		C100.6,41.7,100.6,41.7,100.6,41.8L100.6,41.8z M100.4,41.7h0.3l0,0c0,0,0,0,0-0.1h-0.1C100.4,41.5,100.4,41.5,100.4,41.7
		L100.4,41.7z"/>
</g>
<g>
	<path class="st0" d="M101.9,41.5c-0.1,0-0.1-0.1-0.3-0.1h-0.1l0,0l-0.1,0.1l0,0c0,0,0,0,0,0.1l0,0c0.3,0,0.4,0,0.6,0
		C102,41.7,101.9,41.7,101.9,41.5z"/>
	<path class="st0" d="M102.3,41.8h-0.9v-0.1c0,0,0,0,0-0.1l-0.1,0l0.3-0.3h0.1c0,0,0,0,0.1,0c0.1,0,0.1,0,0.3,0.1L102.3,41.8z
		 M101.5,41.7h0.4l0,0C101.8,41.5,101.7,41.5,101.5,41.7c0-0.1,0-0.1,0-0.1V41.7L101.5,41.7z"/>
</g>
<g>
	<path class="st0" d="M109.9,49L109.9,49c0-0.3,0-0.4,0-0.5c-0.1,0-0.4,0.1-0.5,0.1c0,0.1,0,0.4,0,0.5c0.1,0,0.3-0.1,0.3-0.1
		C109.6,49.1,109.7,49,109.9,49z"/>
	<path class="st0" d="M109.2,49.4L109.2,49.4c0-0.3,0-0.5,0-0.6l0,0l0.6-0.3v0.1c0,0.1,0,0.4,0,0.5l0,0l0,0L109.2,49.4z M109.3,48.7
		c0,0.1,0,0.3,0,0.4l0.4-0.1c0-0.1,0-0.3,0-0.4L109.3,48.7z"/>
</g>
<g>
	<path class="st0" d="M109.2,48.6L109.2,48.6c0,0.3,0,0.4,0,0.6l0,0C109.2,49,109.2,48.8,109.2,48.6z"/>
	<path class="st0" d="M109.1,49.4L109.1,49.4c0-0.3,0-0.5,0-0.6l0,0l0.3-0.1v0.1c0,0.1,0,0.4,0,0.5l0,0L109.1,49.4z"/>
</g>
<g>
	<path class="st0" d="M100.6,41.8L100.6,41.8c-0.1,0-0.3,0-0.4,0l0,0C100.2,41.8,100.5,41.8,100.6,41.8L100.6,41.8z"/>
	<path class="st0" d="M100.6,41.9H100l0.1-0.3h0.6L100.6,41.9C100.6,41.8,100.6,41.8,100.6,41.9L100.6,41.9L100.6,41.9L100.6,41.9z"
		/>
</g>
<g>
	<path class="st0" d="M109.9,49L109.9,49c0-0.3,0-0.4,0-0.5l0,0C109.9,48.6,109.9,48.8,109.9,49z"/>
	<path class="st0" d="M109.7,49.1L109.7,49.1c0-0.3,0-0.5,0-0.6l0,0h0.3v0.1c0,0.1,0,0.4,0,0.5l0,0H109.7z"/>
</g>
<g>
	<path class="st0" d="M101.5,41.8L101.5,41.8c0.3,0,0.5,0,0.6,0l0,0C101.9,41.8,101.8,41.8,101.5,41.8z"/>
	<path class="st0" d="M102.4,41.9h-0.9l0,0l0,0l-0.1-0.1h0.8L102.4,41.9z"/>
</g>
<g>
	<path class="st0" d="M101.5,41.8L101.5,41.8c0.3,0,0.5,0,0.6,0l0,0C101.9,41.8,101.7,41.8,101.5,41.8z"/>
	<polygon class="st0" points="102.4,41.9 101.5,41.9 101.4,41.7 102.2,41.7 	"/>
</g>
<g>
	<path class="st0" d="M109.2,48.6L109.2,48.6c0,0.3,0,0.4,0,0.6l0,0C109.2,49,109.2,48.8,109.2,48.6z"/>
	<path class="st0" d="M109.2,49.4L109.2,49.4c0-0.3,0-0.5,0-0.6l0,0l0.3-0.1v0.1c0,0.1,0,0.4,0,0.5l0,0L109.2,49.4z"/>
</g>
<g>
	<path class="st0" d="M100.6,41.8c-0.1,0-0.3,0-0.4,0l0,0C100.4,41.8,100.5,41.8,100.6,41.8L100.6,41.8z"/>
	<path class="st0" d="M100.6,41.9H100l0.1-0.3h0.5V41.9C100.6,41.8,100.6,41.8,100.6,41.9L100.6,41.9z"/>
</g>
<g>
	<path class="st0" d="M109.9,49L109.9,49L109.9,49c0-0.1,0-0.4,0-0.5l0,0C109.7,48.6,109.7,48.8,109.9,49z"/>
	<path class="st0" d="M109.7,49.1L109.7,49.1c0-0.3,0-0.5,0-0.6l0,0l0.3-0.1v0.1c0,0.1,0,0.4,0,0.5l0,0L109.7,49.1z"/>
</g>
<g>
	<path class="st0" d="M107.3,49.9C107.4,49.9,107.4,49.9,107.3,49.9c0.3-0.1,0.5-0.1,0.6-0.3c0-0.3,0-0.4,0-0.6
		c-0.3,0.1-0.4,0.1-0.6,0.3C107.3,49.5,107.3,49.6,107.3,49.9z"/>
	<path class="st0" d="M107.3,50L107.3,50c0-0.3,0-0.4,0-0.5v-0.3l0.8-0.3v0.8l-0.3,0.1c-0.1,0-0.3,0.1-0.4,0.1L107.3,50z
		 M107.4,49.4L107.4,49.4c0,0.3,0,0.4,0,0.4c0.1,0,0.3-0.1,0.4-0.1h0.1v-0.4L107.4,49.4z"/>
</g>
<g>
	<path class="st0" d="M101.4,46C101.3,46,101.3,46,101.4,46c0,0-0.1,0-0.1,0.1C101.3,46.1,101.4,46.1,101.4,46L101.4,46z"/>
	<path class="st0" d="M101,46.3l0.1-0.3c0,0,0.1-0.1,0.3-0.1l0,0h0.1l0.1,0.1L101,46.3z"/>
</g>
<g>
	<path class="st0" d="M101.1,51.3c0,0.3,0,0.4,0,0.6c0.1,0,0.4-0.1,0.5-0.1c0-0.3,0-0.4,0-0.6C101.5,51.1,101.4,51.3,101.1,51.3z"/>
	<path class="st0" d="M101.1,52L101.1,52c0-0.4,0-0.5,0-0.8l0,0l0.6-0.3v0.8L101.1,52z M101.3,51.4c0,0.1,0,0.4,0,0.5l0.4-0.1v-0.5
		L101.3,51.4z"/>
</g>
<g>
	<path class="st0" d="M100.4,51.5c-0.1,0-0.3,0.1-0.3,0.1v0.6c0.1,0,0.3-0.1,0.4-0.1C100.4,52,100.4,51.8,100.4,51.5z"/>
	<path class="st0" d="M99.9,52.4v-0.9l0.5-0.1v0.8L99.9,52.4z M100.1,51.8v0.5l0.3-0.1v-0.5L100.1,51.8z"/>
</g>
<g>
	<path class="st0" d="M101.1,51.9L101.1,51.9c0-0.3,0-0.5,0-0.6l0,0C101.1,51.5,101.1,51.8,101.1,51.9z"/>
	<path class="st0" d="M101,52L101,52c0-0.3,0-0.4,0-0.6v-0.3l0.3-0.1v0.8L101,52z"/>
</g>
<g>
	<path class="st0" d="M101.4,46c0,0,0.1,0,0.1,0.1l0,0C101.5,46,101.4,46,101.4,46c-0.1,0-0.3,0.1-0.3,0.3l0,0
		C101.1,46.1,101.3,46,101.4,46z"/>
	<path class="st0" d="M100.9,46.3l0.1-0.1c0-0.1,0.3-0.3,0.4-0.3c0.1,0,0.1,0,0.3,0.1l0.1,0.1l-0.3,0.1l0,0h-0.1l-0.1,0.1l0,0
		L100.9,46.3z"/>
</g>
<g>
	<path class="st0" d="M100,51.7L100,51.7l-0.1,0.6l0,0C100,52.2,100,51.9,100,51.7z"/>
	<polygon class="st0" points="99.9,52.6 99.9,51.7 100.1,51.5 100,52.4 	"/>
</g>
<g>
	<path class="st0" d="M100.5,51.5C100.4,51.5,100.4,51.5,100.5,51.5c0,0.3,0,0.5,0,0.6l0,0C100.5,52,100.5,51.8,100.5,51.5z"/>
	<path class="st0" d="M100.4,52.3L100.4,52.3v-0.8h0.1v0.1v0.8L100.4,52.3z M100.5,51.5L100.5,51.5L100.5,51.5z"/>
</g>
<g>
	<path class="st0" d="M107.3,49.9L107.3,49.9c0-0.3,0-0.4,0-0.6l0,0C107.3,49.5,107.3,49.7,107.3,49.9z"/>
	<path class="st0" d="M107.2,50L107.2,50c0-0.3,0-0.4,0-0.5v-0.3l0.3-0.1v0.1c0,0.3,0,0.4,0,0.6l0,0L107.2,50z"/>
</g>
<g>
	<path class="st0" d="M108.1,49c0,0.3,0,0.4,0,0.6l0,0C108.1,49.4,108.1,49.2,108.1,49L108.1,49z"/>
	<polygon class="st0" points="107.9,49.7 107.9,49 108.2,48.8 108.2,49.6 	"/>
</g>
<g>
	<path class="st0" d="M101.8,51.8c0-0.3,0-0.4,0-0.6l0,0C101.8,51.3,101.8,51.5,101.8,51.8L101.8,51.8z"/>
	<polygon class="st0" points="101.7,51.9 101.7,51 101.9,51 101.9,51.8 	"/>
</g>
<g>
	<path class="st0" d="M101.3,46L101.3,46C101.4,46,101.4,46,101.3,46c0.1,0,0.1,0,0.1,0S101.4,46,101.3,46c0,0-0.1,0-0.3,0.1l0,0
		C101.3,46.1,101.3,46,101.3,46z"/>
	<path class="st0" d="M100.9,46.3l0.1-0.1c0-0.1,0.1-0.3,0.3-0.3c0,0,0.1,0,0.1,0.1l0.1,0.1l-0.3,0.1l0,0c0,0,0,0-0.1,0
		c0,0,0,0-0.1,0.1l0,0L100.9,46.3z"/>
</g>
<g>
	<path class="st0" d="M100,51.7L100,51.7c0,0.3-0.1,0.5-0.1,0.6l0,0L100,51.7z"/>
	<polygon class="st0" points="99.9,52.6 99.9,51.7 100.1,51.5 100.1,52.4 	"/>
</g>
<g>
	<path class="st0" d="M101.8,51.1L101.8,51.1c0,0.3,0,0.5,0,0.6l0,0C101.8,51.5,101.8,51.3,101.8,51.1z"/>
	<polygon class="st0" points="101.7,51.9 101.7,51 101.8,51 101.9,51.1 101.8,51.8 	"/>
</g>
<g>
	<path class="st0" d="M101.1,51.3c0,0.3,0,0.4,0,0.6l0,0C101.3,51.8,101.1,51.5,101.1,51.3L101.1,51.3z"/>
	<path class="st0" d="M101.1,52v-0.8l0.3-0.1v0.1c0,0.3,0,0.4,0,0.6l0,0L101.1,52z"/>
</g>
<g>
	<path class="st0" d="M107.3,49.9L107.3,49.9c0-0.3,0-0.4,0-0.6l0,0C107.3,49.5,107.3,49.6,107.3,49.9z"/>
	<path class="st0" d="M107.3,50L107.3,50c0-0.3,0-0.5,0-0.8l0,0l0.3-0.1v0.3c0,0.1,0,0.3,0,0.5l0,0L107.3,50z"/>
</g>
<g>
	<path class="st0" d="M100.4,51.5L100.4,51.5c0,0.3,0,0.5,0,0.6l0,0C100.4,52,100.4,51.8,100.4,51.5z"/>
	<polygon class="st0" points="100.2,52.3 100.2,51.5 100.5,51.4 100.5,52.3 	"/>
</g>
<g>
	<path class="st0" d="M108.1,49.6L108.1,49.6c0-0.3,0-0.4,0-0.6l0,0C108.1,49.2,108.1,49.5,108.1,49.6z"/>
	<polygon class="st0" points="107.9,49.7 107.9,49 108.2,48.8 108.1,49.6 	"/>
</g>
<g>
	<path class="st0" d="M107.2,47.7c-0.1,0-0.1,0-0.3,0c-0.3-0.4-0.1-0.6,0.3-0.8c0,0,0.1,0,0.1-0.1s0-0.1,0-0.3c0,0,0,0,0-0.1v-0.1
		h-0.1c-0.3,0-0.4,0.3-0.6,0.1c-0.1-0.1-0.1-0.4-0.3-0.6c-0.1-0.1,0-0.3,0.1-0.3c0.3-0.1,0.6-0.3,0.9-0.4c0.1,0,0.3,0,0.3-0.3
		c0-0.1-0.1-0.1-0.3,0c-0.4,0.1-0.8,0.1-1,0.3c-0.4,0.1-0.4,0.3-0.4,0.6c0.1,0.8,0.4,1.5,0.8,2.2c0.1,0.3,0.3,0.3,0.5,0.3h0.1
		c0-0.3,0-0.4,0-0.6C107.3,47.7,107.2,47.7,107.2,47.7z"/>
</g>
<g>
	<path class="st0" d="M108.6,47.8c0-0.1,0-0.1,0-0.3c-0.1-0.1-0.3-0.1-0.4,0c0,0.1,0,0.4,0,0.5C108.3,47.9,108.4,47.9,108.6,47.8z"
		/>
</g>
<g>
	<path class="st0" d="M108.1,47.6c-0.3,0-0.4,0.1-0.6,0.1c0,0.3,0,0.4,0,0.6c0.3-0.1,0.5-0.1,0.6-0.3
		C108.1,47.9,108.1,47.7,108.1,47.6L108.1,47.6z"/>
</g>
<g>
	<path class="st0" d="M107.7,46.4c0-0.1-0.1-0.1-0.1-0.1v0.1c0,0,0,0,0,0.1v0.1C107.5,46.7,107.7,46.5,107.7,46.4z"/>
</g>
<g>
	<path class="st0" d="M107.4,46.5c0,0.1,0,0.1,0,0.3l0,0l0,0C107.4,46.7,107.4,46.7,107.4,46.5v-0.1l0,0
		C107.4,46.4,107.4,46.4,107.4,46.5L107.4,46.5z"/>
</g>
<g>
	<path class="st0" d="M108.1,48.1L108.1,48.1c0-0.1,0-0.4,0-0.5l0,0C108.1,47.7,108.1,47.8,108.1,48.1z"/>
</g>
<g>
	<path class="st0" d="M107.3,47.7L107.3,47.7c0,0.3,0,0.4-0.1,0.6l0,0C107.3,48.1,107.3,47.9,107.3,47.7z"/>
</g>
<g>
	<path class="st0" d="M107.3,47.7c0,0.3,0,0.4,0,0.6l0,0C107.4,48.1,107.4,47.9,107.3,47.7C107.4,47.7,107.4,47.7,107.3,47.7z"/>
</g>
<g>
	<path class="st0" d="M108.1,47.6c0,0.1,0,0.4,0,0.5l0,0C108.1,47.8,108.1,47.7,108.1,47.6L108.1,47.6z"/>
</g>
<g>
	<path class="st0" d="M107.4,46.5L107.4,46.5c0-0.1,0-0.1,0-0.1l0,0C107.4,46.4,107.4,46.5,107.4,46.5c0,0.1,0,0.1,0,0.3l0,0
		C107.4,46.7,107.4,46.7,107.4,46.5z"/>
</g>
<g>
	<path class="st0" d="M102,50.2c0.1,0.3,0.3,0.1,0.5,0c0.1-0.1,0-0.3,0-0.3c-0.1-0.4-0.5-0.6-0.6-0.9c0,0.3,0,0.6,0,0.9
		C101.9,50,102,50.1,102,50.2z"/>
</g>
<g>
	<path class="st0" d="M100.1,49.9h0.1l0,0V50v0.1l0,0c0-0.1,0-0.1,0.1-0.3c0.3,0,0.4-0.1,0.5-0.3c0-0.1,0-0.1,0-0.3
		c0-0.1,0-0.3,0-0.3l0,0c-0.1,0-0.4,0.3-0.5,0.1c-0.1-0.1,0-0.4,0-0.5c0-0.3,0-0.4,0-0.6c0.3,0.3,0.4,0.4,0.6,0.6c0-0.4,0-0.6,0-1
		l-0.1-0.1c-0.1-0.3-0.4-0.1-0.5-0.1c-0.1,0-0.1,0.1-0.3,0.3c0,0.9-0.1,1.7-0.1,2.6l0,0c0,0.1,0,0.3,0,0.3c0,0.1,0,0.3,0,0.3
		L100.1,49.9L100.1,49.9z"/>
</g>
<g>
	<path class="st0" d="M101.1,49c0,0.1,0,0.1,0,0.1c0,0.1,0,0.3,0,0.4v0.1c0,0,0.1,0,0.1-0.1c0.1-0.1,0.3,0,0.4,0.1l0.1,0.1
		c0-0.3,0-0.6,0-0.9c-0.3-0.3-0.4-0.6-0.6-0.9C101.1,48.3,101.1,48.6,101.1,49L101.1,49z"/>
</g>
<g>
	<path class="st0" d="M100.2,50L100.2,50L100.2,50l-0.1,0.9l0,0c0.1,0,0.1,0,0.3-0.1c0-0.3,0-0.4,0-0.6
		C100.4,50.1,100.2,50.1,100.2,50z"/>
</g>
<g>
	<path class="st0" d="M101.1,49.1L101.1,49.1C101,49.1,101,49.1,101.1,49.1c0,0.1,0,0.3,0,0.3c0,0.1,0,0.1,0,0.3l0,0
		C101.1,49.5,101.1,49.4,101.1,49.1z"/>
</g>
<g>
	<path class="st0" d="M100.2,49.9c0,0.1,0.1,0.3,0.1,0.4s0,0.4,0,0.5v-0.1c0-0.1,0-0.4,0-0.5C100.4,50.1,100.4,50,100.2,49.9
		C100.4,50,100.4,49.9,100.2,49.9C100.4,49.9,100.2,49.9,100.2,49.9h-0.1l0,0l-0.1,1l0,0c0-0.4,0-0.6,0.1-1H100.2z"/>
</g>
<g>
	<path class="st0" d="M101.8,48.8c0,0.3,0,0.6,0,0.9l0,0C101.8,49.6,101.8,49.2,101.8,48.8C101.8,49,101.8,49,101.8,48.8
		C101.8,49,101.8,49,101.8,48.8z"/>
</g>
<g>
	<path class="st0" d="M101,48.8c0-0.4,0-0.6,0-1l0,0C101,48.2,101,48.5,101,48.8L101,48.8z"/>
</g>
<g>
	<path class="st0" d="M101.1,49c0-0.4,0-0.6,0-1l0,0C101,48.2,101,48.6,101.1,49C101.1,48.8,101.1,48.8,101.1,49z"/>
</g>
<g>
	<path class="st0" d="M101.1,49.6L101.1,49.6c0-0.1,0-0.1,0-0.1c0-0.1,0-0.3,0-0.4l0,0C101.1,49.4,101.1,49.5,101.1,49.6z"/>
</g>
<g>
	<path class="st0" d="M100.4,50.2c0-0.1,0-0.3-0.1-0.4h-0.1c0,0.4,0,0.6-0.1,1l0,0l0.1-1h0.1c0,0,0,0,0,0.1
		C100.2,50.1,100.4,50.1,100.4,50.2c0,0.3,0,0.4,0,0.6c0,0,0,0,0-0.1S100.4,50.4,100.4,50.2z"/>
</g>
<g>
	<path class="st0" d="M101.8,49.9c0-0.3,0-0.6,0-0.9l0,0C101.8,49.1,101.8,49.5,101.8,49.9C101.8,49.7,101.8,49.9,101.8,49.9z"/>
</g>
<g>
	<path class="st0" d="M97.3,49.9c-0.1,0-0.3,0-0.3,0c-0.3,0-0.4-0.1-0.5-0.3c-0.1-0.1,0-0.4,0.1-0.5c0.1-0.3,0.5-0.4,0.8-0.4
		c0.1,0,0.3,0,0.3-0.1s-0.1-0.3-0.3-0.3c-0.1,0-0.3,0-0.3,0c-0.4,0.1-0.6,0.3-0.8,0.5c-0.3,0.4-0.3,0.8-0.1,1
		c0.1,0.4,0.5,0.5,0.9,0.5c0.1,0,0.3,0,0.4,0c0.3,0,0.5,0.3,0.5,0.4c0,0.3-0.1,0.5-0.4,0.6c-0.3,0.1-0.4,0-0.5,0c0,0-0.1-0.1-0.1,0
		v0.1c0,0.1,0.1,0.1,0.1,0.3c0.5,0.4,1.2,0.1,1.4-0.5C98.7,50.5,98.2,49.9,97.3,49.9z"/>
</g>
<g>
	<path class="st0" d="M105.4,48.7c-0.3,0.1-0.6,0.1-0.9,0.3c-0.1,0-0.3,0-0.3-0.1c-0.1-0.6-0.5-1.3-0.8-1.9c0-0.1-0.1-0.1-0.1-0.3
		c0-0.1-0.1-0.1-0.3-0.1c-0.1,0-0.1,0.1-0.1,0.3c0,0,0,0,0,0.1c0.3,0.9,0.5,1.8,1,2.6c0.1,0.1,0.1,0.1,0.3,0.1
		c0.4-0.1,0.8-0.3,1.2-0.5c0.1,0,0.1-0.1,0.1-0.3C105.6,48.7,105.5,48.7,105.4,48.7z"/>
</g>
<g>
	<path class="st0" d="M112,48.6c0,0.1,0.1,0.3,0.3,0.4l0.1,0.1c0.1,0,0.1-0.1,0.1-0.3c0,0,0-0.1,0-0.3c-0.3-1-0.5-2.1-0.9-2.9
		c-0.1-0.4-0.3-0.5-0.5-0.4c-0.1,0.1-0.3,0.3-0.1,0.6C111.4,46.8,111.7,47.7,112,48.6z"/>
</g>
<g>
	<g>
		<path class="st0" d="M34.4,114.6c-0.1-0.5-0.1-0.8-0.8-0.8h-2.1c-0.5,0-0.6,0.3-0.8,0.8l0,0.5h-0.5v-1.8h0.6
			c0.3-0.8,0.5-1.4,0.5-2.9c0-0.4,0-0.4-0.3-0.5l-0.4,0l0.1-0.4H35v0.4l-0.4,0.1c-0.3,0-0.3,0.1-0.3,0.3v3.1H35v1.8l-0.5,0.1
			L34.4,114.6z M33.5,113.3V110H32c0,1,0,1.8-0.1,2.3c-0.1,0.4-0.1,0.6-0.4,1C31.5,113.3,33.5,113.3,33.5,113.3z"/>
		<path class="st0" d="M35.5,113.4c0-0.3,0.3-0.5,0.4-0.5c0.1,0,0.3,0.1,0.5,0.4c0.1-0.1,0.1-0.3,0.3-0.5c0.1-0.5,0.3-1.3,0.3-2.3
			c0-0.4,0-0.4-0.3-0.5l-0.4-0.1l0.1-0.4h4v0.4L40,110c-0.1,0-0.3,0.1-0.3,0.3v2.7c0,0.3,0,0.4,0.3,0.4l0.5,0.1v0.4h-2.1v-0.4
			l0.4-0.1c0.1,0,0.3-0.1,0.3-0.4V110h-1.3c0,0.9,0,1.8-0.1,2.3c-0.3,1.2-0.6,1.7-1.2,1.7C35.8,114,35.5,113.7,35.5,113.4z"/>
		<path class="st0" d="M40.9,113.6l0.1-0.3c0.1,0,0.1,0,0.3,0c0.3,0,0.4-0.1,0.6-0.8c0.1-0.5,0.5-0.8,1-0.8l0,0
			c-0.9-0.1-1.3-0.4-1.3-1.2c0-0.8,0.6-1.2,1.7-1.2h2.2v0.4l-0.4,0.1c-0.1,0-0.3,0.1-0.3,0.4v2.6c0,0.3,0,0.4,0.3,0.4l0.5,0.1v0.4
			h-2.1v-0.4l0.4-0.1c0.1,0,0.3-0.1,0.3-0.4V112c-0.1,0-0.5,0-0.6,0c-0.5,0.1-0.5,0.1-0.8,1c-0.1,0.6-0.5,0.9-0.9,0.9
			C41.3,114,41.1,113.8,40.9,113.6z M44,111.5v-1.7c-0.1,0-0.4,0-0.6,0c-0.6,0-0.9,0.3-0.9,0.8c0,0.6,0.3,0.8,1,0.8H44V111.5z"/>
		<path class="st0" d="M47.8,115.2l0.4-0.1c0.1,0,0.3-0.1,0.3-0.4v-4.2c0-0.4,0-0.5-0.3-0.5h-0.4l0.1-0.4l1.2-0.1h0.1v0.8l0,0
			c0.4-0.6,0.9-0.9,1.5-0.9c1,0,1.7,0.8,1.7,2.2c0,1.5-0.8,2.4-2.1,2.4c-0.4,0-0.9-0.1-1.2-0.3v1.2c0,0.3,0.1,0.4,0.3,0.4l0.5,0.1
			v0.4h-2.3v-0.5H47.8z M51.5,111.7c0-1.2-0.4-1.7-1-1.7c-0.8,0-1.2,0.5-1.2,1.3v1.8c0.3,0.3,0.6,0.4,1,0.4
			C51.1,113.3,51.5,112.7,51.5,111.7z"/>
		<path class="st0" d="M53.2,111.7c0-1.4,0.8-2.3,2.1-2.3c0.9,0,1.5,0.6,1.5,1.5c0,0.3,0,0.5-0.1,0.9H54c0,1,0.5,1.5,1.4,1.5
			c0.4,0,0.9-0.1,1.2-0.5l0.3,0.3c-0.4,0.5-1,0.9-1.7,0.9C54,114,53.2,113.1,53.2,111.7z M56,111.3c0-0.1,0-0.3,0-0.4
			c0-0.6-0.3-1-0.9-1s-1,0.5-1.2,1.4C54,111.3,56,111.3,56,111.3z"/>
		<path class="st0" d="M57.7,111.7c0-1.4,0.8-2.3,2.1-2.3c0.9,0,1.5,0.5,1.5,1.2c0,0.4-0.3,0.5-0.5,0.5s-0.5-0.1-0.5-0.4
			c0-0.1,0-0.3,0.3-0.6c-0.3-0.1-0.4-0.3-0.8-0.3c-0.6,0-1.2,0.6-1.2,1.7s0.5,1.8,1.4,1.8c0.4,0,0.8-0.1,1.2-0.4l0.3,0.3
			c-0.4,0.5-1,0.8-1.7,0.8C58.5,114,57.7,113.1,57.7,111.7z"/>
		<path class="st0" d="M62.9,113.4l0.4-0.1c0.1,0,0.3-0.1,0.3-0.4V110h-0.3c-0.6,0-0.6,0-0.9,0.8l-0.1,0.4h-0.4l0.3-1.5h4l0.3,1.5
			H66l-0.1-0.4c-0.3-0.8-0.3-0.8-0.9-0.8h-0.3v2.9c0,0.3,0,0.4,0.3,0.4l0.5,0.1v0.4h-2.1v-0.4H62.9z"/>
		<path class="st0" d="M66.9,111.8c0-1.4,0.9-2.4,2.2-2.4s2.1,0.9,2.1,2.2c0,1.4-0.9,2.4-2.2,2.4C67.7,114,66.9,113.1,66.9,111.8z
			 M70.2,111.8c0-1.2-0.5-1.9-1.3-1.9c-0.8,0-1.2,0.5-1.2,1.7c0,1.2,0.5,1.9,1.3,1.9C69.9,113.4,70.2,112.8,70.2,111.8z"/>
		<path class="st0" d="M71.7,115.2l0.4-0.1c0.1,0,0.3-0.1,0.3-0.4v-4.2c0-0.4,0-0.5-0.3-0.5h-0.4l0.1-0.4l1.2-0.1h0.1v0.8l0,0
			c0.4-0.6,0.9-0.9,1.5-0.9c1,0,1.7,0.8,1.7,2.2c0,1.5-0.8,2.4-2.1,2.4c-0.4,0-0.9-0.1-1.2-0.3v1.2c0,0.3,0.1,0.4,0.3,0.4l0.5,0.1
			v0.4h-2.3v-0.5H71.7z M75.4,111.7c0-1.2-0.4-1.7-1-1.7c-0.8,0-1.2,0.5-1.2,1.3v1.8c0.3,0.3,0.6,0.4,1,0.4
			C75,113.3,75.4,112.7,75.4,111.7z"/>
		<path class="st0" d="M77.2,112.8c0-0.9,0.6-1.3,2.4-1.4v-0.6c0-0.6-0.3-1-0.9-1c-0.3,0-0.6,0.1-0.8,0.3c0.1,0.3,0.3,0.4,0.3,0.5
			c0,0.3-0.3,0.4-0.5,0.4c-0.3,0-0.5-0.1-0.5-0.4c0-0.6,0.8-1.2,1.7-1.2c1,0,1.5,0.5,1.5,1.5v2.1c0,0.3,0.1,0.4,0.4,0.4
			c0.1,0,0.3,0,0.4-0.1l0.1,0.4c-0.3,0.3-0.5,0.4-0.8,0.4c-0.5,0-0.8-0.3-0.8-0.8c-0.4,0.5-0.8,0.8-1.3,0.8
			C77.6,114,77.2,113.4,77.2,112.8z M79.6,112.4v-0.6c-1.2,0-1.7,0.3-1.7,0.9c0,0.4,0.3,0.6,0.6,0.6
			C79.2,113.3,79.6,112.9,79.6,112.4z"/>
		<path class="st0" d="M81.8,113.4l0.4-0.1c0.1,0,0.3-0.1,0.3-0.4v-2.6c0-0.3,0-0.4-0.3-0.4l-0.5-0.1l0.1-0.4h2.1v0.4l-0.4,0.1
			c-0.1,0-0.3,0.1-0.3,0.4v1h2.1v-1c0-0.3,0-0.4-0.3-0.4l-0.4-0.1l0.1-0.4h2.1v0.4l-0.4,0.1c-0.1,0-0.3,0.1-0.3,0.4v2.6
			c0,0.3,0,0.4,0.3,0.4l0.5,0.1v0.4h-2.3v-0.4l0.4-0.1c0.1,0,0.3-0.1,0.3-0.4v-1h-2.1v1c0,0.3,0,0.4,0.3,0.4l0.5,0.1v0.4h-2.1v-0.4
			H81.8z"/>
		<path class="st0" d="M87.6,111.8c0-1.4,0.9-2.4,2.2-2.4s2.1,0.9,2.1,2.2c0,1.4-0.9,2.4-2.2,2.4C88.3,114,87.6,113.1,87.6,111.8z
			 M90.9,111.8c0-1.2-0.5-1.9-1.3-1.9c-0.8,0-1.2,0.5-1.2,1.7c0,1.2,0.5,1.9,1.3,1.9C90.5,113.4,90.9,112.8,90.9,111.8z"/>
		<path class="st0" d="M92.6,113.4l0.4-0.1c0.1,0,0.3-0.1,0.3-0.4v-2.6c0-0.3,0-0.4-0.3-0.4l-0.5-0.1l0.1-0.4h2.1
			c0.9,0,1.5,0.3,1.5,1c0,0.5-0.4,0.9-1.2,1l0,0c0.6,0,1.4,0.3,1.4,1c0,0.8-0.5,1.3-1.9,1.3h-2.1v-0.4H92.6z M94.7,111.4
			c0.5,0,0.8-0.4,0.8-0.8c0-0.5-0.3-0.6-0.9-0.6c-0.1,0-0.4,0-0.5,0v1.4H94.7z M95.6,112.5c0-0.4-0.3-0.8-0.9-0.8H94v1.5
			c0.3,0,0.5,0,0.6,0C95.2,113.3,95.6,113.1,95.6,112.5z"/>
		<path class="st0" d="M99.1,113.4l0.4-0.1c0.1,0,0.3-0.1,0.3-0.4v-2.6c0-0.3,0-0.4-0.3-0.4l-0.5-0.1l0.1-0.4h2.1v0.4l-0.4,0.1
			c-0.1,0-0.3,0.1-0.3,0.4v1.8l2.1-1.8l0,0c0-0.3,0-0.4-0.3-0.4l-0.5-0.1l0.1-0.4h2.1v0.4l-0.4,0.1c-0.1,0-0.3,0.1-0.3,0.4v2.6
			c0,0.3,0,0.4,0.3,0.4l0.5,0.1v0.4H102v-0.4l0.4-0.1c0.1,0,0.3-0.1,0.3-0.4v-1.8l-2.1,1.8l0,0c0,0.3,0,0.4,0.3,0.4l0.5,0.1v0.4
			h-2.1v-0.4H99.1z"/>
		<path class="st0" d="M106.7,113.4l0.4-0.1c0.1,0,0.3-0.1,0.3-0.4v-2.6c0-0.3,0-0.4-0.3-0.4l-0.5-0.1l0.1-0.4h2.1v0.4l-0.4,0.1
			c-0.1,0-0.3,0.1-0.3,0.4v1h2.1v-1c0-0.3,0-0.4-0.3-0.4l-0.5-0.1l0.1-0.4h2.1v0.4l-0.4,0.1c-0.1,0-0.3,0.1-0.3,0.4v2.6
			c0,0.3,0,0.4,0.3,0.4l0.5,0.1v0.4h-2.1v-0.4l0.4-0.1c0.1,0,0.3-0.1,0.3-0.4v-1h-2.1v1c0,0.3,0,0.4,0.3,0.4l0.5,0.1v0.4h-2.1v-0.4
			H106.7z"/>
		<path class="st0" d="M112.4,111.7c0-1.4,0.8-2.3,2.1-2.3c0.9,0,1.5,0.6,1.5,1.5c0,0.3,0,0.5-0.1,0.9h-2.7c0,1,0.5,1.5,1.4,1.5
			c0.4,0,0.9-0.1,1.2-0.5l0.3,0.3c-0.4,0.5-1,0.9-1.7,0.9C113.2,114,112.4,113.1,112.4,111.7z M115.2,111.3c0-0.1,0-0.3,0-0.4
			c0-0.6-0.3-1-0.9-1c-0.6,0-1,0.5-1.2,1.4C113.2,111.3,115.2,111.3,115.2,111.3z"/>
		<path class="st0" d="M119.6,113.4l0.4-0.1c0.1,0,0.3-0.1,0.3-0.4V110H120c-0.6,0-0.6,0-0.9,0.8l-0.1,0.4h-0.4l0.3-1.5h4l0.3,1.5
			h-0.4l-0.1-0.4c-0.3-0.8-0.3-0.8-0.9-0.8h-0.3v2.9c0,0.3,0,0.4,0.3,0.4l0.5,0.1v0.4h-2.1v-0.4H119.6z"/>
		<path class="st0" d="M123.6,111.8c0-1.4,0.9-2.4,2.2-2.4c1.3,0,2.1,0.9,2.1,2.2c0,1.4-0.9,2.4-2.2,2.4
			C124.3,114,123.6,113.1,123.6,111.8z M126.9,111.8c0-1.2-0.5-1.9-1.3-1.9c-0.8,0-1.2,0.5-1.2,1.7c0,1.2,0.5,1.9,1.3,1.9
			C126.5,113.4,126.9,112.8,126.9,111.8z"/>
		<path class="st0" d="M128.3,113.4c0-0.3,0.3-0.5,0.4-0.5c0.1,0,0.3,0.1,0.5,0.4c0.1-0.1,0.1-0.3,0.3-0.5c0.1-0.5,0.3-1.3,0.3-2.3
			c0-0.4,0-0.4-0.3-0.5l-0.4-0.1l0.1-0.4h4v0.4l-0.4,0.1c-0.1,0-0.3,0.1-0.3,0.3v2.7c0,0.3,0,0.4,0.3,0.4l0.5,0.1v0.4h-2.1v-0.4
			l0.4-0.1c0.1,0,0.3-0.1,0.3-0.4V110h-1.3c0,0.9,0,1.8-0.1,2.3c-0.3,1.2-0.6,1.7-1.2,1.7C128.6,114,128.3,113.7,128.3,113.4z"/>
		<path class="st0" d="M133.8,113.4l0.4-0.1c0.1,0,0.3-0.1,0.3-0.4v-2.6c0-0.3,0-0.4-0.3-0.4l-0.5-0.1l0.1-0.4h2.1v0.4l-0.4,0.1
			c-0.1,0-0.3,0.1-0.3,0.4v0.9c0.4,0,0.6-0.1,1-0.1c0.9,0,1.4,0.5,1.4,1.2c0,1-0.6,1.4-2.2,1.4h-1.8v-0.3H133.8z M137,112.4
			c0-0.5-0.4-0.8-1-0.8c-0.3,0-0.5,0-0.6,0v1.7c0.3,0,0.4,0,0.6,0C136.6,113.4,137,113.1,137,112.4z"/>
		<path class="st0" d="M141.4,112.8c-0.3-0.8-0.4-0.9-0.9-1c-0.1,0-0.3,0-0.4,0v1.2c0,0.3,0,0.4,0.3,0.4l0.5,0.1v0.4h-2.1v-0.4
			l0.4-0.1c0.1,0,0.3-0.1,0.3-0.4v-2.6c0-0.3,0-0.4-0.3-0.4l-0.5-0.1l0.1-0.4h2.1v0.4l-0.4,0.1c-0.1,0-0.3,0.1-0.3,0.4v1
			c0.3,0,0.4,0,0.5,0c0.3-0.1,0.4-0.4,0.6-1c0.3-0.6,0.6-1,1-1c0.4,0,0.6,0.3,0.6,0.6c0,0.3-0.3,0.5-0.5,0.5c-0.3,0-0.3-0.1-0.5-0.5
			c-0.1,0.1-0.1,0.3-0.4,0.6c-0.1,0.5-0.4,0.6-0.6,0.9l0,0c0.6,0,1,0.3,1.2,0.9c0.3,0.6,0.4,0.9,0.6,0.9c0,0,0.1,0,0.3-0.1l0.1,0.3
			c-0.3,0.3-0.5,0.4-0.8,0.4C141.9,113.8,141.6,113.7,141.4,112.8z"/>
		<path class="st0" d="M143.4,111.8c0-1.4,0.9-2.4,2.2-2.4s2.1,0.9,2.1,2.2c0,1.4-0.9,2.4-2.2,2.4
			C144.3,114,143.4,113.1,143.4,111.8z M146.9,111.8c0-1.2-0.5-1.9-1.3-1.9s-1.2,0.5-1.2,1.7c0,1.2,0.5,1.9,1.3,1.9
			C146.4,113.4,146.9,112.8,146.9,111.8z"/>
		<path class="st0" d="M148.6,113.3c0-0.4,0.3-0.6,0.6-0.6s0.6,0.3,0.6,0.6s-0.3,0.6-0.6,0.6C149,114,148.6,113.7,148.6,113.3z"/>
		<path class="st0" d="M151.5,113.3c0-0.4,0.3-0.6,0.6-0.6c0.4,0,0.6,0.3,0.6,0.6s-0.3,0.6-0.6,0.6
			C151.8,114,151.5,113.7,151.5,113.3z"/>
		<path class="st0" d="M154.3,113.3c0-0.4,0.3-0.6,0.6-0.6c0.4,0,0.6,0.3,0.6,0.6s-0.3,0.6-0.6,0.6
			C154.6,114,154.3,113.7,154.3,113.3z"/>
	</g>
</g>
</svg>
