<?xml version="1.0" encoding="utf-8"?>
<!-- Generator: Adobe Illustrator 23.0.1, SVG Export Plug-In . SVG Version: 6.00 Build 0)  -->
<svg version="1.1" id="Слой_1" xmlns="http://www.w3.org/2000/svg" xmlns:xlink="http://www.w3.org/1999/xlink" x="0px" y="0px"
	 viewBox="0 0 38 20" style="enable-background:new 0 0 38 20;" xml:space="preserve">
<style type="text/css">
	.st0{fill-rule:evenodd;clip-rule:evenodd;fill:#FFFFFF;}
</style>
<path id="arrow" class="st0" d="M38,2h-2V0l2,0V2z M37,3h-2V1h2V3z M36,4h-2V2h2V4z M35,5h-2V3h2V5z M34,6h-2V4h2V6z M33,7h-2V5h2V7
	z M32,8h-2V6h2V8z M31,9h-2V7h2V9z M30,10h-2V8h2V10z M29,11h-2V9h2V11z M28,12h-2v-2h2V12z M27,13h-2v-2h2V13z M26,14h-2v-2h2V14z
	 M25,15h-2v-2h2V15z M24,16h-2v-2h2V16z M23,17h-2v-2h2V17z M22,18h-2v-2h2V18z M21,19h-2v-2h2V19z M20,20h-2v-2h2V20z M2,2H0l0-2
	l2,0V2z M3,3H1V1h2V3z M4,4H2V2h2V4z M5,5H3V3h2V5z M6,6H4V4h2V6z M7,7H5V5h2V7z M8,8H6V6h2V8z M9,9H7V7h2V9z M10,10H8V8h2V10z
	 M11,11H9V9h2V11z M12,12h-2v-2h2V12z M13,13h-2v-2h2V13z M14,14h-2v-2h2V14z M15,15h-2v-2h2V15z M16,16h-2v-2h2V16z M17,17h-2v-2h2
	V17z M18,18h-2v-2h2V18z M19,19h-2v-2h2V19z M20,20h-2v-2h2V20z"/>
</svg>
