<svg xmlns="http://www.w3.org/2000/svg" width="38" height="20" viewBox="0 0 38 20">
  <defs>
    <style>
      .cls-1 {
        fill: #fff;
        fill-rule: evenodd;
      }
    </style>
  </defs>
  <path id="arrow" class="cls-1" d="M0,18H2v2H0V18Zm1-1H3v2H1V17Zm1-1H4v2H2V16Zm1-1H5v2H3V15Zm1-1H6v2H4V14Zm1-1H7v2H5V13Zm1-1H8v2H6V12Zm1-1H9v2H7V11Zm1-1h2v2H8V10ZM9,9h2v2H9V9Zm1-1h2v2H10V8Zm1-1h2V9H11V7Zm1-1h2V8H12V6Zm1-1h2V7H13V5Zm1-1h2V6H14V4Zm1-1h2V5H15V3Zm1-1h2V4H16V2Zm1-1h2V3H17V1Zm1-1h2V2H18V0ZM36,18h2v2H36V18Zm-1-1h2v2H35V17Zm-1-1h2v2H34V16Zm-1-1h2v2H33V15Zm-1-1h2v2H32V14Zm-1-1h2v2H31V13Zm-1-1h2v2H30V12Zm-1-1h2v2H29V11Zm-1-1h2v2H28V10ZM27,9h2v2H27V9ZM26,8h2v2H26V8ZM25,7h2V9H25V7ZM24,6h2V8H24V6ZM23,5h2V7H23V5ZM22,4h2V6H22V4ZM21,3h2V5H21V3ZM20,2h2V4H20V2ZM19,1h2V3H19V1ZM18,0h2V2H18V0Z"/>
</svg>
