<?xml version="1.0" encoding="utf-8"?>
<!-- Generator: Adobe Illustrator 23.0.5, SVG Export Plug-In . SVG Version: 6.00 Build 0)  -->
<svg version="1.1" id="Слой_1" xmlns="http://www.w3.org/2000/svg" xmlns:xlink="http://www.w3.org/1999/xlink" x="0px" y="0px"
	 viewBox="0 0 24 24" style="enable-background:new 0 0 24 24;" xml:space="preserve">
<style type="text/css">
	.st0{clip-path:url(#SVGID_2_);}
</style>
<g>
	<defs>
		<rect id="SVGID_1_" y="0" width="24" height="24"/>
	</defs>
	<clipPath id="SVGID_2_">
		<use xlink:href="#SVGID_1_"  style="overflow:visible;"/>
	</clipPath>
	<path class="st0" d="M5.5,9.5c0,0.9,0.2,1.7,0.5,2.5c0.4,0.8,0.8,1.5,1.4,2.1c0.6,0.6,1.3,1,2.1,1.4c0.8,0.3,1.6,0.5,2.5,0.5
		c0.9,0,1.7-0.2,2.5-0.5s1.5-0.8,2.1-1.4c0.6-0.6,1.1-1.3,1.4-2.1c0.4-0.8,0.5-1.7,0.5-2.5V6h1V5h-3v1h1v3.5c0,0.8-0.1,1.5-0.4,2.2
		c-0.3,0.7-0.7,1.3-1.2,1.8c-0.5,0.5-1,0.8-1.7,1.1S12.8,15,12,15c-0.7,0-1.5-0.1-2.1-0.4c-0.7-0.3-1.3-0.7-1.7-1.1
		c-0.5-0.5-0.9-1.1-1.2-1.8C6.7,11,6.5,10.3,6.5,9.5V6h1V5h-3v1h1V9.5z M23,23H1V1h22V23z M0,0v24h24V0H0z"/>
</g>
</svg>
