<?xml version="1.0" encoding="utf-8"?>
<!-- Generator: Adobe Illustrator 23.0.5, SVG Export Plug-In . SVG Version: 6.00 Build 0)  -->
<svg version="1.1" id="Слой_1" xmlns="http://www.w3.org/2000/svg" xmlns:xlink="http://www.w3.org/1999/xlink" x="0px" y="0px"
	 viewBox="0 0 50 50" style="enable-background:new 0 0 50 50;" xml:space="preserve">
<g id="Consult-Talk">
	<rect x="11.7" y="19.3" width="1.7" height="1.7"/>
	<rect x="20" y="19.3" width="1.7" height="1.7"/>
	<path d="M49.3,28.5L46,28c-0.2-0.5-0.3-0.9-0.5-1.3l2-2.6c0.2-0.3,0.2-0.8-0.1-1.1l-3.5-3.5c-0.1-0.1-0.3-0.2-0.5-0.2v-8
		c1.6-1.3,2.5-3.2,2.5-5.2c0-2.6-1.5-4.9-3.8-6c-0.4-0.2-0.9,0-1.1,0.4c-0.1,0.1-0.1,0.2-0.1,0.4v4.6L39.2,6l-1.7-0.6V0.8
		c0-0.5-0.4-0.8-0.8-0.8c-0.1,0-0.2,0-0.4,0.1c-2.3,1.1-3.8,3.4-3.8,6c0,2,0.9,3.9,2.5,5.2v5.6h-2.5c-0.4,0-0.8,0.3-0.8,0.7
		l-0.5,3.8l1.6,0.2l0.4-3h3.6l0.4,3c0,0.3,0.3,0.6,0.6,0.7c0.7,0.2,1.4,0.5,2,0.8c0.3,0.2,0.6,0.1,0.9-0.1l2.5-1.8l2.5,2.5l-1.9,2.5
		c-0.2,0.3-0.2,0.6-0.1,0.9c0.3,0.6,0.6,1.3,0.8,2c0.1,0.3,0.4,0.5,0.7,0.6l3.1,0.4v3.5L45.3,34c-0.3,0-0.6,0.3-0.7,0.6
		c-0.2,0.7-0.5,1.4-0.8,2c-0.2,0.3-0.1,0.6,0.1,0.9l1.8,2.5l-2.5,2.5l-2.5-1.8c-0.3-0.2-0.6-0.2-0.9-0.1c-0.6,0.3-1.3,0.6-2,0.8
		c-0.3,0.1-0.5,0.4-0.6,0.7l-0.4,3h-3.4v-3.5c0-0.9-0.1-1.7-0.4-2.6c4,1.2,8.2-1.1,9.4-5.1c1.2-4-1.1-8.2-5.2-9.4
		c-4-1.2-8.2,1.1-9.4,5.1c-0.3,1.1-0.4,2.3-0.2,3.5c0,0,0,0-0.1,0l-6.7-2.7v-1.3c1.1-0.6,2.1-1.4,2.9-2.3h2.1c1.4,0,2.5-1.1,2.5-2.5
		v-1.8c1-0.4,1.7-1.3,1.7-2.3v-2.5c0-1.1-0.7-2-1.7-2.3v-1c0-6.4-5.2-11.6-11.7-11.6S5,7.9,5,14.4v1c-1,0.4-1.7,1.3-1.7,2.3v2.5
		c0,1.4,1.1,2.5,2.5,2.5h1.7c0.1,0,0.1,0,0.2,0c0.5,2.8,2.3,5.2,4.8,6.5v1.3l-6.7,2.7C2.3,34.4,0,37.8,0,41.5v7.7
		C0,49.6,0.4,50,0.8,50h31.7c0.5,0,0.8-0.4,0.8-0.8v-2.5h4.2c0.4,0,0.8-0.3,0.8-0.7l0.5-3.2c0.5-0.2,0.9-0.3,1.3-0.5l2.6,2
		c0.3,0.2,0.8,0.2,1.1-0.1l3.5-3.5c0.3-0.3,0.3-0.8,0.1-1.1l-2-2.6c0.2-0.4,0.4-0.9,0.5-1.3l3.3-0.5c0.4-0.1,0.7-0.4,0.7-0.8v-5
		C50,28.9,49.7,28.5,49.3,28.5z M40.1,21.3c0,0-0.1,0-0.1,0V11h-1.7v6.6l0-0.1c-0.1-0.4-0.4-0.7-0.8-0.7h-0.8v-6
		c0-0.3-0.1-0.5-0.4-0.7c-2.3-1.6-2.8-4.7-1.2-6.9c0.2-0.3,0.5-0.6,0.8-0.9v3.7c0,0.4,0.2,0.7,0.6,0.8l2.5,0.8
		c0.2,0.1,0.4,0.1,0.5,0l2.5-0.8c0.3-0.1,0.6-0.4,0.6-0.8V2.4c2.1,1.8,2.2,5,0.4,7c-0.3,0.3-0.6,0.5-0.9,0.8
		c-0.2,0.2-0.4,0.4-0.4,0.7v9.4L40.1,21.3z M29.2,31.8c0-3.2,2.6-5.9,5.8-5.9c3.2,0,5.9,2.6,5.9,5.8c0,3.2-2.6,5.9-5.8,5.9
		c-1.1,0-2.2-0.3-3.1-0.9c-0.6-0.9-1.3-1.7-2.2-2.4C29.4,33.5,29.2,32.6,29.2,31.8z M25.8,25.1h-1c0.4-0.8,0.7-1.6,0.9-2.5
		c0.1,0,0.1,0,0.2,0h0.8v1.7C26.7,24.8,26.3,25.1,25.8,25.1z M24.2,16c-0.8,0-1.5-0.4-2-1l-1.5-2c-0.1-0.2-0.3-0.3-0.6-0.3
		c-0.2,0-0.4,0-0.6,0.2l-2.8,2.2C15.9,15.7,15,16,14.1,16H9.2v-0.8c0-4.1,3.4-7.5,7.5-7.5s7.5,3.3,7.5,7.5V16z M28.3,20.2
		c0,0.5-0.4,0.8-0.8,0.8h-1.7v-4.1h1.7c0.5,0,0.8,0.4,0.8,0.8V20.2z M16.7,4.4c5.5,0,10,4.5,10,9.9v0.8h-0.8c0-5-4.1-9.1-9.2-9.1
		s-9.2,4.1-9.2,9.1H6.7v-0.8C6.7,8.9,11.1,4.4,16.7,4.4z M5.8,21C5.4,21,5,20.6,5,20.2v-2.5c0-0.5,0.4-0.8,0.8-0.8h1.7V21H5.8z
		 M9.2,21v-3.3h4.9c1.3,0,2.6-0.5,3.6-1.3l2.1-1.7l1,1.3c0.8,1,2,1.7,3.3,1.7V21c0,1.5-0.4,2.9-1.3,4.1h-6.2v1.7h4.7
		c-3.2,2.6-7.9,2.1-10.5-1.1C9.8,24.4,9.2,22.7,9.2,21z M16.7,30.1c0.8,0,1.7-0.1,2.5-0.4v1.2c0,1.4-1.1,2.5-2.5,2.5
		s-2.5-1.1-2.5-2.5v-1.2C15,30,15.8,30.1,16.7,30.1z M31.7,48.3h-5v-9.1H25v9.1H8.3v-9.1H6.7v9.1h-5v-6.8c0-3.1,1.9-5.8,4.7-6.9
		l6.3-2.5c0.6,2.2,2.9,3.5,5.1,2.8c1.4-0.4,2.5-1.5,2.9-2.8l6.3,2.5c2.9,1.1,4.7,3.9,4.7,6.9V48.3z"/>
	<rect x="34.2" y="20.2" width="1.7" height="1.7"/>
	<rect x="34.2" y="41.7" width="1.7" height="1.7"/>
	<polygon points="41.5,39.4 42.7,38.2 43.8,39.4 42.7,40.6 	"/>
	<rect x="45" y="30.9" width="1.7" height="1.7"/>
	<polygon points="41.5,24.1 42.7,23 43.8,24.1 42.7,25.3 	"/>
</g>
</svg>
