<?xml version="1.0" encoding="utf-8"?>
<!-- Generator: Adobe Illustrator 23.0.1, SVG Export Plug-In . SVG Version: 6.00 Build 0)  -->
<svg version="1.1" id="Слой_1" xmlns="http://www.w3.org/2000/svg" xmlns:xlink="http://www.w3.org/1999/xlink" x="0px" y="0px"
	 viewBox="0 0 50 43" style="enable-background:new 0 0 50 43;" xml:space="preserve">
<g>
	<path d="M48.3,0H1.7C0.8,0,0,0.8,0,1.7v6c0,0.9,1.5,0.9,1.5,0v-6c0-0.1,0.1-0.2,0.2-0.2h46.6c0.1,0,0.2,0.1,0.2,0.2v35.6
		c0,0.1-0.1,0.2-0.2,0.2h-9.4V36h7.4c0.4,0,0.7-0.3,0.7-0.7v-7.6c0-0.9-1.5-0.9-1.5,0v6.9h-6.6v-3.2c0,0,0,0,0.1,0
		c0.6,0.1,1.4,0.1,1.9-0.4c0.5-0.5,0.5-1.3,0.4-1.9c-0.1-0.7,0-0.8,0.5-1.2c1.3-1.1,1.3-2.2,0-3.3c-0.5-0.4-0.6-0.6-0.5-1.2
		c0.1-1.6-0.6-2.4-2.3-2.3c-0.7,0.1-0.8,0-1.2-0.5c-1.1-1.3-2.2-1.3-3.3,0c-0.4,0.5-0.6,0.6-1.2,0.5c-1.6-0.1-2.4,0.6-2.3,2.3
		c0.1,0.7,0,0.8-0.5,1.2c-1.3,1.1-1.3,2.2,0,3.3c0.5,0.4,0.6,0.6,0.5,1.2c-0.2,1.7,0.7,2.4,2.4,2.3v3.2H4.5V4.4h41.1v19.3
		c0,0.9,1.5,0.9,1.5,0v-20C47,3.3,46.7,3,46.3,3H3.7C3.3,3,3,3.3,3,3.7v31.6C3,35.7,3.3,36,3.7,36h29.5v1.5H1.7
		c-0.1,0-0.2-0.1-0.2-0.2V11.4c0-0.9-1.5-0.9-1.5,0v25.9C0,38.2,0.8,39,1.7,39h31.5v3.3c0.1,0.6,0.5,0.8,1,0.7l1.8-0.8l1.8,0.8
		c0.4,0.2,1-0.1,1-0.7V39h9.4c0.9,0,1.7-0.8,1.7-1.7V1.7C50,0.8,49.2,0,48.3,0L48.3,0z M33,29.9c-0.7,0.1-0.8,0-0.7-0.7
		c0.1-1.1-0.2-1.8-1-2.5c-0.6-0.5-0.6-0.6,0-1.1c0.9-0.7,1.1-1.4,1-2.5c-0.1-0.7,0-0.8,0.7-0.7c1.1,0.1,1.8-0.2,2.5-1
		c0.5-0.6,0.6-0.6,1.1,0c0.7,0.9,1.4,1.1,2.5,1c0.7-0.1,0.8,0,0.7,0.7c-0.1,1.1,0.2,1.8,1,2.5c0.6,0.5,0.6,0.6,0,1.1
		c-0.9,0.7-1.1,1.4-1,2.5c0.1,0.7,0,0.8-0.7,0.7c-0.5,0-1-0.1-1.4,0.1c-0.4,0.2-0.8,0.6-1.1,0.9c-0.1,0.2-0.4,0.5-0.5,0.5
		c-0.1-0.1-0.4-0.4-0.5-0.5c-0.3-0.4-0.6-0.7-1.1-0.9C34,29.8,33.5,29.8,33,29.9L33,29.9z M36.4,40.6c-0.2-0.1-0.4-0.1-0.6,0
		l-1.1,0.5v-9c0.3,0.4,0.8,0.7,1.4,0.7s1-0.4,1.4-0.7v9L36.4,40.6z"/>
	<path d="M9.5,10.5h25.2c0.9,0,0.9-1.5,0-1.5H9.5C8.6,9.1,8.6,10.5,9.5,10.5z"/>
	<path d="M41.2,14.2c0-0.4-0.3-0.7-0.7-0.7h-31c-0.9,0-0.9,1.5,0,1.5h31C40.9,15,41.2,14.7,41.2,14.2z"/>
	<path d="M27.8,18.7c0-0.4-0.3-0.7-0.7-0.7H9.5c-0.9,0-0.9,1.5,0,1.5h17.6C27.5,19.4,27.8,19.1,27.8,18.7z"/>
	<path d="M18.2,28.9c-0.4,0-0.8,0-1.2,0c-0.8,0-1.2-0.2-1.3-1c-0.1-0.7-1.2-0.6-1.4,0c-0.1,0.3-0.5,1.1-0.9,1
		c-0.2,0-0.3-0.3-0.4-0.5c-0.1-0.3-0.3-0.6-0.3-1c-0.4-1.4-0.5-2.9-0.7-4.3c-0.1-0.8-1.4-0.6-1.4,0.2c-0.1,2.5-0.5,5-1.4,7.4
		c-0.3,0.9,1.1,1.3,1.4,0.4c0.3-0.9,0.6-1.8,0.8-2.8c0.1,0.3,0.3,0.7,0.4,1c0.4,0.8,1.3,1.3,2.2,1c0.3-0.1,0.6-0.4,0.9-0.7
		c0.7,0.8,1.7,0.8,2.7,0.8c1.4,0,2.9,0,4.3,0c0.9,0,0.9-1.5,0-1.5C20.7,28.8,19.5,28.9,18.2,28.9L18.2,28.9z"/>
	<path d="M36.1,29c1.6,0,2.9-1.3,2.9-2.8s-1.3-2.8-2.9-2.8c-1.6,0-2.9,1.3-2.9,2.8S34.5,29,36.1,29z M36.1,24.7
		c0.8,0,1.4,0.6,1.4,1.4s-0.6,1.4-1.4,1.4c-0.8,0-1.4-0.6-1.4-1.4S35.3,24.7,36.1,24.7z"/>
</g>
</svg>
