<?xml version="1.0" encoding="utf-8"?>
<!-- Generator: Adobe Illustrator 23.0.5, SVG Export Plug-In . SVG Version: 6.00 Build 0)  -->
<svg version="1.1" id="Capa_1" xmlns="http://www.w3.org/2000/svg" xmlns:xlink="http://www.w3.org/1999/xlink" x="0px" y="0px"
	 viewBox="0 0 400 400" style="enable-background:new 0 0 400 400;" xml:space="preserve">
<g>
	<g>
		<polygon points="330.3,202.3 280,252.7 269.7,242.3 258.3,253.7 280,275.3 341.7,213.7 		"/>
	</g>
</g>
<g>
	<g>
		<rect x="72" y="168" width="16" height="16"/>
	</g>
</g>
<g>
	<g>
		<rect x="112" y="168" width="16" height="16"/>
	</g>
</g>
<g>
	<g>
		<rect x="152" y="168" width="16" height="16"/>
	</g>
</g>
<g>
	<g>
		<rect x="192" y="168" width="16" height="16"/>
	</g>
</g>
<g>
	<g>
		<rect x="232" y="168" width="16" height="16"/>
	</g>
</g>
<g>
	<g>
		<rect x="272" y="168" width="16" height="16"/>
	</g>
</g>
<g>
	<g>
		<rect x="312" y="168" width="16" height="16"/>
	</g>
</g>
<g>
	<g>
		<rect x="72" y="208" width="16" height="16"/>
	</g>
</g>
<g>
	<g>
		<rect x="112" y="208" width="16" height="16"/>
	</g>
</g>
<g>
	<g>
		<rect x="152" y="208" width="16" height="16"/>
	</g>
</g>
<g>
	<g>
		<rect x="192" y="208" width="16" height="16"/>
	</g>
</g>
<g>
	<g>
		<rect x="72" y="248" width="16" height="16"/>
	</g>
</g>
<g>
	<g>
		<rect x="112" y="248" width="16" height="16"/>
	</g>
</g>
<g>
	<g>
		<rect x="152" y="248" width="16" height="16"/>
	</g>
</g>
<g>
	<g>
		<rect x="192" y="248" width="16" height="16"/>
	</g>
</g>
<g>
	<g>
		<rect x="72" y="288" width="16" height="16"/>
	</g>
</g>
<g>
	<g>
		<rect x="112" y="288" width="16" height="16"/>
	</g>
</g>
<g>
	<g>
		<rect x="152" y="288" width="16" height="16"/>
	</g>
</g>
<g>
	<g>
		<rect x="72" y="328" width="16" height="16"/>
	</g>
</g>
<g>
	<g>
		<rect x="112" y="328" width="16" height="16"/>
	</g>
</g>
<g>
	<g>
		<rect x="152" y="328" width="16" height="16"/>
	</g>
</g>
<g>
	<g>
		<rect x="192" y="288" width="16" height="16"/>
	</g>
</g>
<g>
	<g>
		<path d="M336,32V0h-48v32H112V0H64v32H0v72v16v280h331.3l3.7-3.7l61.2-61.2l3.7-3.7V120v-16V32H336z M304,32V16h16v16v32h-16V32z
			 M80,32V16h16v16v32H80V32z M336,372.7V336h36.7L336,372.7z M384,320h-64v64H16V120h368V320z M384,104H16V48h48v32h48V48h176v32
			h48V48h48V104z"/>
	</g>
</g>
<g>
	<g>
		<polygon points="312,264 312,288 248,288 248,224 288,224 288,208 232,208 232,304 328,304 328,264 		"/>
	</g>
</g>
</svg>
