<?xml version="1.0" encoding="utf-8"?>
<!-- Generator: Adobe Illustrator 23.0.5, SVG Export Plug-In . SVG Version: 6.00 Build 0)  -->
<svg version="1.1" id="Слой_1" xmlns="http://www.w3.org/2000/svg" xmlns:xlink="http://www.w3.org/1999/xlink" x="0px" y="0px"
	 viewBox="0 0 50 50" style="enable-background:new 0 0 50 50;" xml:space="preserve">
<style type="text/css">
	.st0{fill:#FFFFFF;}
</style>
<g>
	<path d="M50,2.1c0,12.5,0,25,0,37.5c-0.7,1.7-1.3,2.1-3.2,2.1c-4.4,0-8.8,0-13.3,0c-0.2,0-0.3,0-0.5,0c0.5,1.1,1,2.1,1.6,3.1
		c0.1,0.1,0.3,0.2,0.4,0.2c0.8,0,1.7,0,2.5,0c1.1,0,2.1,0.8,2.4,1.9c0.3,1.1-0.3,2.3-1.3,2.8c-0.2,0.1-0.4,0.2-0.7,0.3
		c-8.7,0-17.3,0-26,0c-0.1,0-0.1-0.1-0.2-0.1c-1.3-0.4-2-1.5-1.8-2.8c0.2-1.2,1.2-2.1,2.5-2.1c0.7,0,1.3,0,2,0
		c0.5,0,0.8-0.1,1.1-0.6c0.4-0.9,0.8-1.7,1.3-2.7c-0.3,0-0.4,0-0.6,0c-4.5,0-9,0-13.5,0c-1.5,0-2.3-0.6-2.8-2c0,0,0-0.1-0.1-0.1
		c0-12.5,0-25,0-37.5C0.3,1,1,0.3,2.1,0c15.3,0,30.6,0,45.9,0C49,0.3,49.7,1,50,2.1z M48.3,35c0-0.2,0-0.4,0-0.5
		c0-10.5,0-21.1,0-31.6c0-0.9-0.3-1.2-1.3-1.2c-14.7,0-29.5,0-44.2,0C2,1.7,1.7,2,1.7,2.9c0,10.5,0,21,0,31.5c0,0.2,0,0.3,0,0.6
		c1.1,0,2,0,3,0c0.7,0,1.1,0.3,1.1,0.8c0,0.5-0.4,0.8-1.2,0.8c-0.8,0-1.7,0-2.5,0c-0.2,0-0.3,0-0.5,0c0,0.7,0,1.4,0,2
		c0,1,0.3,1.3,1.3,1.3c13.6,0,27.3,0,40.9,0c1.1,0,2.2,0,3.4,0c0.6,0,1.1-0.3,1.1-0.9c0-0.8,0-1.6,0-2.5c-0.4,0-0.8,0-1.2,0
		c-12.8,0-25.5,0-38.3,0c-0.2,0-0.5,0-0.7,0c-0.4-0.1-0.6-0.3-0.7-0.7c0-0.4,0.2-0.7,0.6-0.8C8.3,35,8.4,35,8.6,35
		c11.3,0,22.5,0,33.8,0C44.4,35,46.3,35,48.3,35z M17.2,45c5.2,0,10.4,0,15.6,0c-0.5-1.1-1-2.1-1.6-3.1c-0.1-0.1-0.3-0.2-0.4-0.2
		c-3.9,0-7.8,0-11.7,0c-0.1,0-0.3,0.1-0.4,0.2C18.2,42.9,17.7,43.9,17.2,45z M25,46.7C25,46.7,25,46.7,25,46.7c-4.1,0-8.1,0-12.2,0
		c-0.1,0-0.3,0-0.4,0c-0.4,0-0.7,0.3-0.8,0.8c0,0.4,0.2,0.8,0.7,0.9c0.2,0,0.3,0,0.5,0c8.1,0,16.2,0,24.3,0c0.2,0,0.4,0,0.6,0
		c0.4-0.1,0.6-0.4,0.6-0.8c0-0.4-0.3-0.7-0.7-0.8c-0.2,0-0.4,0-0.5,0C33.1,46.7,29,46.7,25,46.7z"/>
	<path class="st0" d="M50,2.1c-0.3-1-1-1.7-2.1-2.1c0.7,0,1.4,0,2.1,0C50,0.7,50,1.4,50,2.1z"/>
	<path class="st0" d="M2.1,0C1,0.3,0.3,1,0,2.1C0,1.4,0,0.7,0,0C0.7,0,1.4,0,2.1,0z"/>
	<path d="M30.7,30.1c-1.9-0.1-3.8-0.1-5.6-0.3c-2.7-0.3-5.2-1.3-7.2-3.2c-1-1-1.7-2.1-1.9-3.5c-0.3-2.1,0.4-3.9,2-5.3
		c0.7-0.7,1.6-1.3,2.4-1.7c1.1-0.6,2-1.4,2.5-2.6c2.2-4.5,7-7.1,12-6.7c5.6,0.5,9.9,4.3,10.8,9.8c0.7,4-0.7,7.5-3.6,10.3
		c-2.2,2.1-5,3.2-8,3.2C32.9,30,31.8,30,30.7,30.1C30.7,30,30.7,30.1,30.7,30.1z M30.7,28.4C30.7,28.4,30.7,28.4,30.7,28.4
		c1.1-0.1,2.2-0.1,3.3-0.1c1.8,0,3.4-0.4,4.9-1.3c3.7-2.1,5.8-6.4,5-10.4c-1-4.6-4.6-7.9-9.3-8.3c-4.3-0.4-8.4,1.8-10.3,5.7
		c-0.7,1.5-1.8,2.6-3.3,3.3c-1.1,0.5-2,1.3-2.8,2.3c-0.7,0.9-1,2-0.7,3.1c0.2,1.1,0.9,2,1.7,2.7c1.7,1.5,3.8,2.3,6,2.5
		C27.1,28.3,28.9,28.3,30.7,28.4z"/>
	<path d="M8.2,30.8c1.6,0,3.1,0,4.7,0c0.2,0,0.3,0,0.5,0c0.5,0,0.8,0.3,0.8,0.8c0,0.4-0.3,0.8-0.7,0.9c-0.3,0-0.7,0-1,0
		c-2.1,0-4.2,0-6.3,0c-0.7,0-0.9-0.2-1.1-0.8c-0.5-1.6-0.8-3.2-0.8-4.9c0-0.9,0.2-1.7,0.6-2.5c0.1-0.2,0.1-0.4,0-0.7
		c-0.6-1.3-0.1-2.7,1.1-3.3c0.3-0.1,0.4-0.3,0.5-0.6c0.8-3.7,2-7.2,3.6-10.6c0.6-1.2,1.2-2.4,2-3.5c0.3-0.5,0.8-1,1.3-1.3
		c1-0.8,2-0.4,2.4,0.8c0.4,1.1,0.4,2.3,0.2,3.4c-0.5,4.5-1.7,8.8-3.4,13c-0.1,0.3-0.1,0.6,0,0.9c0.6,1.2,0.1,2.6-1.1,3.3
		c-0.1,0.1-0.3,0.2-0.3,0.3c-0.3,1.9-1.4,3.3-2.7,4.6c0,0-0.1,0.1-0.1,0.1C8.2,30.7,8.2,30.8,8.2,30.8z M14.1,5.5
		C11.8,7.2,8.7,15.8,8,20.1c0.9,0.3,1.8,0.6,2.8,0.9c0.4-1.3,0.9-2.4,1.3-3.6c1-2.9,1.8-5.9,2-9C14.2,7.4,14.1,6.5,14.1,5.5z
		 M9.4,25.8c-1.1-0.3-2.1-0.6-3.1-1c-0.8,1.8-0.3,3.5,0,5.4C7.6,28.9,9,27.7,9.4,25.8z M10,24.2c0.5,0,0.9-0.2,1-0.7
		c0.1-0.4-0.1-0.8-0.6-0.9c-1-0.3-2.1-0.7-3.1-1c-0.5-0.2-0.9,0.1-1.1,0.5c-0.2,0.4,0.1,0.9,0.6,1.1c0.8,0.3,1.7,0.5,2.6,0.8
		C9.6,24.1,9.8,24.2,10,24.2z"/>
	<path d="M17.9,32.5c-0.4,0-0.8,0-1.2,0c-0.6,0-0.9-0.4-0.9-0.9c0-0.5,0.4-0.8,0.9-0.8c0.8,0,1.6,0,2.3,0c0.5,0,0.9,0.3,0.9,0.8
		c0,0.5-0.4,0.8-0.9,0.9C18.7,32.5,18.3,32.5,17.9,32.5C17.9,32.5,17.9,32.5,17.9,32.5z"/>
	<path d="M23.4,18.3c1.9,0,3.3,1.5,3.3,3.4c0,1.8-1.5,3.3-3.3,3.3c-1.8,0-3.3-1.5-3.3-3.4C20,19.8,21.5,18.3,23.4,18.3z M23.3,20
		c-0.9,0-1.7,0.7-1.7,1.7c0,0.9,0.8,1.7,1.7,1.7c0.9,0,1.6-0.7,1.6-1.6C25,20.8,24.3,20,23.3,20z"/>
	<path d="M38.7,25c-1.6,0-2.9-1.4-2.8-3c0-1.6,1.4-2.9,3-2.9c1.6,0,2.9,1.4,2.9,2.9C41.7,23.7,40.3,25,38.7,25z M40,22.1
		c0-0.7-0.5-1.2-1.2-1.3c-0.7,0-1.2,0.5-1.3,1.2c0,0.7,0.6,1.3,1.2,1.3C39.4,23.3,40,22.8,40,22.1z"/>
	<path d="M31.2,26.7c-1.6,0-2.9-1.4-2.9-3c0-1.6,1.4-2.9,3-2.9c1.6,0,2.9,1.4,2.9,3C34.2,25.4,32.8,26.7,31.2,26.7z M31.3,25
		c0.7,0,1.2-0.6,1.2-1.2c0-0.7-0.6-1.2-1.2-1.3c-0.7,0-1.3,0.6-1.3,1.3C30,24.4,30.6,25,31.3,25z"/>
	<path d="M40.8,13.8c0,1.6-1.3,2.9-2.9,2.9c-1.6,0-2.9-1.3-2.9-2.9c0-1.6,1.3-2.9,2.9-2.9C39.5,10.8,40.8,12.1,40.8,13.8z
		 M37.9,12.5c-0.7,0-1.2,0.6-1.2,1.3c0,0.7,0.6,1.2,1.2,1.2c0.7,0,1.3-0.6,1.2-1.3C39.1,13,38.6,12.5,37.9,12.5z"/>
	<path d="M27.5,13.7c0-1.6,1.3-2.9,2.9-2.9c1.6,0,2.9,1.3,2.9,2.9c0,1.6-1.3,2.9-2.9,2.9C28.8,16.7,27.5,15.4,27.5,13.7z M31.7,13.7
		c0-0.7-0.6-1.2-1.2-1.2c-0.7,0-1.2,0.6-1.2,1.2c0,0.7,0.6,1.3,1.3,1.3C31.1,15,31.7,14.4,31.7,13.7z"/>
</g>
</svg>
