<?xml version="1.0" encoding="utf-8"?>
<!-- Generator: Adobe Illustrator 23.0.1, SVG Export Plug-In . SVG Version: 6.00 Build 0)  -->
<svg version="1.1" id="Capa_1" xmlns="http://www.w3.org/2000/svg" xmlns:xlink="http://www.w3.org/1999/xlink" x="0px" y="0px"
	 viewBox="0 0 480 480" style="enable-background:new 0 0 480 480;" xml:space="preserve">
<g>
	<g>
		<path d="M207.8,400c-2-40-24.1-76.3-58.7-96.5l-55.3-61.4c-7.4-8.4-19-12-29.8-9.2V128c0-17.7-14.3-32-32-32S0,110.3,0,128v151.4
			c0,12.2,3.1,24.3,9.1,35L80,442.1V472c0,4.4,3.6,8,8,8h112c4.4,0,8-3.6,8-8v-72H207.8z M192,464H96v-24c0-1.4-0.3-2.7-1-3.9
			L23,306.6c-4.6-8.3-7-17.7-7-27.2V128c0-8.8,7.2-16,16-16s16,7.2,16,16v114.8c-10,11.6-9.8,28.9,0.5,40.3l65.5,72.1l11.8-10.8
			l-65.5-72.1c-5.2-5.7-5-14.6,0.5-20.1c5.7-5.7,14.9-5.7,20.6,0c0.2,0.2,0.4,0.4,0.5,0.6l56.1,62.3c0.7,0.7,1.5,1.3,2.4,1.8
			c31.8,18.2,51.5,52.1,51.5,88.8V464z"/>
	</g>
</g>
<g>
	<g>
		<path d="M448,96c-17.7,0-32,14.3-32,32v104.9c-2.6-0.7-5.3-1-7.9-0.9c-8.4,0.2-16.3,3.8-21.9,10.1l-55.2,61.4
			c-34.6,20.2-56.7,56.5-58.7,96.5H272v72c0,4.4,3.6,8,8,8h112c4.4,0,8-3.6,8-8v-29.9l70.1-127c6.5-11.1,9.9-23.7,9.9-36.5V128
			C480,110.3,465.7,96,448,96z M464,278.6c0,10.1-2.7,19.9-7.8,28.6l-71.2,129c-0.6,1.2-1,2.5-1,3.9v24h-96v-58.2
			c0.1-36.8,19.9-70.8,52-89c0.7-0.4,1.4-1,2-1.6l56.1-62.4c5.4-6,14.6-6.4,20.6-1s6.4,14.6,1,20.6l-65.6,72.1l11.8,10.8l65.5-72.1
			c10.3-11.4,10.6-28.6,0.5-40.3V128c0-8.8,7.2-16,16-16s16,7.2,16,16L464,278.6L464,278.6z"/>
	</g>
</g>
<g>
	<g>
		<path d="M336,200h-16c-28.7,0-55.6,14.1-72,37.6V184h8c48.6-0.1,87.9-39.4,88-88c0-4.4-3.6-8-8-8h-16c-28.7,0-55.6,14.1-72,37.6
			V72h8c35.3,0,64-28.7,64-64c0-4.4-3.6-8-8-8h-16c-23.3,0-44.7,12.7-56,33.1C228.7,12.7,207.3,0,184,0h-16c-4.4,0-8,3.6-8,8
			c0,35.3,28.7,64,64,64h8v53.6C215.6,102.1,188.7,88,160,88h-16c-4.4,0-8,3.6-8,8c0.1,48.6,39.4,87.9,88,88h8v53.6
			c-16.4-23.5-43.3-37.6-72-37.6h-16c-4.4,0-8,3.6-8,8c0.1,48.6,39.4,87.9,88,88h8v64h16v-64h8c48.6-0.1,87.9-39.4,88-88
			C344,203.6,340.4,200,336,200z M320,104h7.6c-4.1,36.4-34.9,64-71.6,64h-7.6C252.6,131.6,283.3,104,320,104z M296,16h7.3
			c-3.9,23.1-23.9,40-47.3,40h-7.3C252.6,32.9,272.6,16,296,16z M224,56c-23.4,0-43.4-16.9-47.3-40h7.3c23.4,0,43.4,16.9,47.3,40
			H224z M224,168c-36.7,0-67.4-27.6-71.6-64h7.6c36.7,0,67.4,27.6,71.6,64H224z M224,280c-36.7,0-67.4-27.6-71.6-64h7.6
			c36.7,0,67.4,27.6,71.6,64H224z M256,280h-7.6c4.1-36.4,34.9-64,71.6-64h7.6C323.4,252.4,292.7,280,256,280z"/>
	</g>
</g>
</svg>
