<?xml version="1.0" encoding="utf-8"?>
<!-- Generator: Adobe Illustrator 23.0.1, SVG Export Plug-In . SVG Version: 6.00 Build 0)  -->
<svg version="1.1" id="Слой_1" xmlns="http://www.w3.org/2000/svg" xmlns:xlink="http://www.w3.org/1999/xlink" x="0px" y="0px"
	 viewBox="0 0 30 30" style="enable-background:new 0 0 30 30;" xml:space="preserve">
<g>
	<path d="M26.2,0H3.8c-2,0-3.7,1.7-3.7,3.7v22.6c0,2,1.7,3.7,3.7,3.7h22.3c2,0,3.7-1.7,3.7-3.7V3.7C29.9,1.7,28.2,0,26.2,0z
		 M26.4,26.3c0,0.1-0.1,0.2-0.2,0.2H3.8c-0.1,0-0.2-0.1-0.2-0.2V3.7c0-0.1,0.1-0.2,0.2-0.2h22.3c0.1,0,0.2,0.1,0.2,0.2V26.3z"/>
	<rect x="20.1" y="6.1" width="4" height="3.7"/>
	<circle cx="15" cy="16.5" r="4"/>
	<path d="M21.3,16.5c0,3.5-2.8,6.3-6.3,6.3S8.7,20,8.7,16.5l0-2.8H5.9v10.5h18.3V13.7h-2.8L21.3,16.5z"/>
</g>
</svg>
