<?xml version="1.0" encoding="utf-8"?>
<!-- Generator: Adobe Illustrator 23.0.5, SVG Export Plug-In . SVG Version: 6.00 Build 0)  -->
<svg version="1.1" id="Слой_1" xmlns="http://www.w3.org/2000/svg" xmlns:xlink="http://www.w3.org/1999/xlink" x="0px" y="0px"
	 viewBox="0 0 50 50" style="enable-background:new 0 0 50 50;" xml:space="preserve">
<g>
	<path d="M50,18.6c-0.2,0.5-0.4,1.1-1,1.4c-0.4,0.2-0.9,0.4-1.4,0.4c-2.5,0-5.1,0-7.6,0c-0.4,0-0.7,0.1-0.9,0.4
		c-1.9,2.2-4.1,3.9-7,4.7c-0.3,0.1-0.6,0.1-1,0.2c0,0.2,0,0.3,0,0.5c0,1.5,0,3.1,0,4.6c0,0.6-0.3,0.9-0.7,0.9
		c-0.4,0-0.7-0.3-0.7-0.9c0-1.9,0-3.7,0-5.6c0-0.6,0.2-0.8,0.8-0.9c1-0.1,2-0.3,2.8-0.8c2.3-1.2,4.2-2.8,5.6-5
		c0.2-0.3,0.4-0.7,0.5-1.1c0.1-0.3,0.2-0.6-0.2-0.8c-0.4-0.2-0.8-0.3-1.1,0c-0.3,0.3-0.6,0.6-0.9,0.9c-0.8,0.8-1.5,1.6-2.3,2.3
		c-1.3,1.2-2.9,1.8-4.7,1.8c-2.9,0-5.8,0-8.6,0c-0.9,0-1.7,0.2-2.5,0.7c-0.9,0.5-1.3,1.3-1.3,2.3c0,2,0,4,0,6c0,0.2,0,0.3,0,0.5
		c0,0.4-0.3,0.6-0.6,0.6c-0.4,0-0.7-0.2-0.7-0.6c0-2.5-0.1-5,0.1-7.4c0.1-1.6,1.4-2.5,2.8-3c0.7-0.3,1.5-0.3,2.2-0.4
		c0.6-0.1,1.3,0,1.9,0c0,0,0.1-0.1,0.1-0.1c-0.1,0-0.1,0-0.2,0c-2.4-1.4-3.2-4.9-2.2-7.2c0.6-1.4,1.7-2.1,3.2-2.4
		c2.5-0.4,4.5,0.8,5.1,3.1c0.4,1.8,0.1,3.6-1,5.1c-0.4,0.6-1,1-1.5,1.6c1.6-0.1,3.1,0,4.7-0.2c1.2-0.1,2.1-0.9,2.9-1.7
		c0.1-0.1,0.2-0.4,0.2-0.6c0-5,0-10,0-15c0-1.4,0.5-2.3,1.8-2.8c3.9,0,7.8,0,11.7,0c0.9,0.3,1.5,0.9,1.8,1.8C50,7.4,50,13,50,18.6z
		 M36.1,16.6c0.3-0.3,0.6-0.6,1-0.8c0.4-0.3,0.9-0.6,1.4-0.7c1.8-0.2,2.8,1.2,2.3,2.9c-0.1,0.3-0.3,0.6-0.4,1c0.2,0,0.4,0,0.5,0
		c2.2,0,4.5,0,6.7,0c0.8,0,1.1-0.3,1.1-1.1c0-5.1,0-10.2,0-15.3c0-0.9-0.3-1.2-1.2-1.2c-3.4,0-6.7,0-10.1,0c-1,0-1.3,0.2-1.3,1.2
		c0,4.5,0,9,0,13.5C36.1,16.3,36.1,16.5,36.1,16.6z M28.3,15c0-1.8-0.8-2.9-2.3-3.1c-0.6-0.1-1.2-0.1-1.7,0.1
		c-1,0.2-1.7,0.9-1.9,1.9c-0.4,1.5-0.2,2.9,0.7,4.2c1.2,1.7,3.1,1.7,4.3,0C28.1,17.1,28.3,16.1,28.3,15z"/>
	<path d="M10.3,0c0.8,0.2,1.7,0.3,2.4,0.6c2.8,1,4.8,2.9,5.5,5.8c0.7,2.8-0.1,5.2-2,7.3c-0.3,0.3-0.4,0.6-0.1,0.9
		c0.3,0.5,0.7,1,1,1.5c0.1,0.3,0.3,0.6,0.2,0.9c-0.1,0.4-0.5,0.4-0.8,0.4c-1.3,0-2.5-0.4-3.6-1.1c-0.3-0.2-0.5-0.2-0.9-0.1
		c-3.9,1-7.4,0.1-10.1-2.9c-1-1.1-1.6-2.4-1.8-3.9C0.1,9.3,0,9.3,0,9.2C0,8.6,0,8,0,7.4c0,0,0.1-0.1,0.1-0.1C0.6,4,2.6,1.9,5.5,0.7
		C6.4,0.4,7.3,0.2,8.2,0C8.9,0,9.6,0,10.3,0z M15.2,15.9c-0.2-0.4-0.4-0.8-0.6-1.2c-0.4-0.9-0.3-1,0.4-1.6c2.9-2.7,2.9-6.9,0-9.5
		c-3.1-2.8-8.2-2.9-11.3,0c-3.1,2.8-3,7.3,0.2,9.9c2.5,2,5.3,2.3,8.3,1.4c0.5-0.2,0.8-0.1,1.2,0.2C13.8,15.4,14.4,15.7,15.2,15.9z"
		/>
	<path d="M49.1,50c-0.4-0.2-0.5-0.5-0.5-0.9c0-1.2,0-2.3,0-3.5c0-0.8-0.3-1.3-1-1.6c-0.9-0.3-1.8-0.6-2.7-0.8
		c-1.8-0.3-3.7-0.2-5.5,0.4c-0.4,0.1-0.7,0.3-1.1,0.5c-0.6,0.3-0.8,0.8-0.8,1.5c0,1.2,0,2.3,0,3.5c0,0.4-0.1,0.8-0.4,1
		c-0.2,0-0.3,0-0.5,0c-0.4-0.2-0.5-0.5-0.5-0.9c0-1.2,0-2.3,0-3.5c0-1.2,0.5-2.2,1.6-2.7c0.9-0.4,1.9-0.6,2.9-0.9
		c0.2-0.1,0.4-0.1,0.7-0.1c-0.9-0.7-1.4-1.5-1.6-2.6c-0.1-0.7-0.2-1.5,0-2.3c0.2-1.5,1.4-2.4,3-2.5c1.8-0.2,3.2,0.7,3.6,2.4
		c0.4,1.8,0,3.4-1.3,4.8c-0.1,0.1-0.1,0.1-0.2,0.2c0.7,0.1,1.4,0.2,2,0.4c0.7,0.2,1.3,0.5,1.9,0.9c0.6,0.4,0.9,1,1.2,1.7
		c0,1.7,0,3.5,0,5.2C49.7,50,49.4,50,49.1,50z M45.2,38.4c0-2-1-2.9-2.7-2.5c-0.6,0.1-1.1,0.5-1.3,1.1c-0.4,1.3-0.2,2.5,0.7,3.5
		c0.7,0.8,1.7,0.8,2.4,0C45,39.8,45.2,39,45.2,38.4z"/>
	<path d="M12.8,50c-0.3-0.3-0.4-0.6-0.4-1c0-1.1,0-2.3,0-3.4c0-0.7-0.3-1.3-0.9-1.6c-0.9-0.3-1.8-0.6-2.7-0.8
		c-1.8-0.3-3.7-0.2-5.4,0.3c-0.4,0.1-0.8,0.3-1.2,0.5c-0.5,0.3-0.8,0.8-0.7,1.4c0,1.2,0,2.4,0,3.6c0,0.4-0.1,0.7-0.5,0.9
		c-0.3,0-0.6,0-0.9,0c0-1.7,0-3.5,0-5.2c0.6-1.9,2.2-2.5,3.9-2.8c0.4-0.1,0.8-0.1,1.2-0.2c-1.4-1.2-1.9-2.6-1.7-4.3
		C3.6,35.5,5,34.3,7,34.4c2,0.1,3.3,1.3,3.4,3.3c0.1,1.6-0.4,2.9-1.7,4c0.6,0.1,1.1,0.2,1.6,0.3c0.9,0.2,1.7,0.5,2.4,1
		c0.7,0.6,1.1,1.3,1.1,2.3c0,1.2,0,2.4,0,3.7c0,0.4-0.1,0.7-0.5,0.9C13.1,50,13,50,12.8,50z M4.8,38c0,0.9,0.3,1.7,0.8,2.3
		c0.8,0.9,1.9,0.9,2.6,0c0.8-1,1-2.1,0.6-3.3c-0.2-0.5-0.5-0.9-1-1.1C6.1,35.3,4.8,36.2,4.8,38z"/>
	<path d="M31,50c-0.3-0.2-0.4-0.6-0.4-1c0-1.2,0-2.3,0-3.5c0-0.7-0.3-1.4-1-1.6c-0.9-0.3-1.8-0.6-2.7-0.8c-1.8-0.3-3.7-0.2-5.5,0.3
		c-0.4,0.1-0.7,0.3-1,0.4c-0.6,0.3-0.9,0.9-0.9,1.6c0,1.2,0,2.3,0,3.5c0,0.4-0.1,0.7-0.4,1c-0.2,0-0.3,0-0.5,0
		c-0.3-0.2-0.4-0.6-0.4-1c0-1.2,0-2.3,0-3.5c0-1.3,0.5-2.2,1.6-2.7c0.9-0.4,1.9-0.6,2.9-0.9c0.2-0.1,0.4-0.1,0.6-0.1
		c-0.1-0.1-0.1-0.2-0.2-0.2c-1.3-1.2-1.7-2.8-1.4-4.5c0.3-1.8,1.8-2.8,3.6-2.6c2,0.2,3.1,1.3,3.2,3.3c0.1,1.6-0.4,3-1.7,4.1
		c0.6,0.1,1.1,0.2,1.6,0.3c0.7,0.2,1.4,0.4,2,0.7c1,0.6,1.6,1.5,1.5,2.7c0,1.2,0,2.3,0,3.5c0,0.4-0.1,0.7-0.4,1
		C31.3,50,31.1,50,31,50z M27.1,37.9c0-0.2,0-0.4-0.1-0.7c-0.2-0.9-0.9-1.4-1.9-1.5c-1.1,0-1.8,0.4-2.1,1.3
		c-0.3,1.2-0.1,2.3,0.7,3.3c0.7,0.9,1.9,0.9,2.6,0C26.9,39.6,27.1,38.9,27.1,37.9z"/>
	<path d="M21.6,27.8c0,1,0,2,0,2.9c0,0.6-0.3,0.9-0.7,0.9c-0.4,0-0.7-0.3-0.7-0.9c0-2,0-4,0-6c0-0.5,0.3-0.8,0.7-0.8
		c0.4,0,0.7,0.3,0.7,0.8C21.6,25.8,21.6,26.8,21.6,27.8z"/>
	<path d="M46.5,8.5c0,1.2,0,2.3,0,3.5c0,0.4-0.2,0.7-0.5,0.7c-0.2,0-0.5-0.1-0.7-0.3c-0.1-0.1-0.1-0.3-0.1-0.5c0-2.3,0-4.5,0-6.8
		c0-0.5,0.3-0.8,0.7-0.9c0.4,0,0.7,0.3,0.7,0.9C46.5,6.3,46.5,7.4,46.5,8.5C46.5,8.5,46.5,8.5,46.5,8.5z"/>
	<path d="M41.7,9.7c0-0.7,0-1.5,0-2.2c0-0.5,0.3-0.8,0.7-0.8c0.4,0,0.7,0.3,0.7,0.8c0,1.5,0,3.1,0,4.6c0,0.5-0.3,0.8-0.7,0.8
		c-0.4,0-0.6-0.3-0.6-0.8C41.7,11.2,41.7,10.5,41.7,9.7z"/>
	<path d="M39.6,10.8c0,0.4,0,0.8,0,1.3c0,0.4-0.3,0.7-0.7,0.7c-0.4,0-0.7-0.3-0.7-0.8c0-0.8,0-1.7,0-2.5c0-0.5,0.3-0.7,0.7-0.7
		c0.4,0,0.7,0.3,0.7,0.7C39.7,9.9,39.6,10.4,39.6,10.8C39.6,10.8,39.6,10.8,39.6,10.8z"/>
	<path d="M13.4,9.4c-0.3,0-0.6,0-0.9,0c-0.4,0-0.6-0.3-0.6-0.7c0-0.4,0.2-0.6,0.6-0.7c0.6,0,1.3,0,1.9,0c0.4,0,0.6,0.3,0.6,0.7
		c0,0.4-0.3,0.6-0.7,0.6C14,9.4,13.7,9.4,13.4,9.4C13.4,9.4,13.4,9.4,13.4,9.4z"/>
	<path d="M9.2,9.4c-0.3,0-0.6,0-0.8,0C8,9.4,7.8,9.1,7.7,8.8c0-0.4,0.2-0.7,0.6-0.7c0.6,0,1.3,0,1.9,0c0.4,0,0.6,0.3,0.6,0.7
		c0,0.4-0.3,0.6-0.6,0.6C9.8,9.4,9.5,9.4,9.2,9.4z"/>
	<path d="M5.1,9.4c-0.3,0-0.6,0-0.9,0c-0.4,0-0.6-0.3-0.6-0.6c0-0.4,0.2-0.7,0.6-0.7c0.6,0,1.3,0,1.9,0c0.4,0,0.6,0.3,0.6,0.7
		c0,0.4-0.3,0.6-0.6,0.7C5.7,9.4,5.4,9.4,5.1,9.4C5.1,9.4,5.1,9.4,5.1,9.4z"/>
</g>
</svg>
