<?xml version="1.0" encoding="utf-8"?>
<!-- Generator: Adobe Illustrator 23.0.1, SVG Export Plug-In . SVG Version: 6.00 Build 0)  -->
<svg version="1.1" id="Слой_1" xmlns="http://www.w3.org/2000/svg" xmlns:xlink="http://www.w3.org/1999/xlink" x="0px" y="0px"
	 viewBox="0 0 39 48" style="enable-background:new 0 0 39 48;" xml:space="preserve">
<g>
	<g>
		<path d="M38.4,19.7c1-1.5,0.8-3.4-0.4-4.6c-0.5-0.6-0.8-1.3-0.6-2.1c0.4-1.7-0.5-3.4-2.1-4.1c-0.7-0.3-1.2-1-1.3-1.7
			c-0.3-1.7-1.7-3-3.5-3.1c-0.8-0.1-1.5-0.5-1.9-1.1c-0.9-1.5-2.7-2.2-4.4-1.7c-0.8,0.2-1.6,0.1-2.2-0.4c-1.4-1.1-3.3-1.1-4.7,0
			c-0.6,0.5-1.4,0.6-2.2,0.4c-1.7-0.5-3.5,0.2-4.4,1.7C10.1,3.5,9.4,4,8.6,4C6.9,4.1,5.4,5.4,5.1,7.1C5,7.9,4.5,8.5,3.8,8.9
			C2.2,9.6,1.3,11.3,1.7,13c0.2,0.8-0.1,1.5-0.6,2.1c-1.2,1.3-1.4,3.2-0.4,4.6c0.4,0.6,0.5,1.4,0.2,2.2c-0.7,1.6-0.1,3.4,1.3,4.5
			c0.6,0.4,1,1.2,1,1.9C3.1,30,4.3,31.5,6,32c0.5,0.1,1,0.4,1.3,0.8l-4,9.4c-0.6,1.3,0.7,2.7,2.1,2.2l4.3-1.3c0.1,0,0.3,0,0.3,0.1
			l2.1,3.9c0.7,1.3,2.6,1.2,3.1-0.1l4.1-9.7c0.1,0,0.1,0,0.2,0l4.1,9.7c0.6,1.3,2.4,1.4,3.1,0.1l2.1-3.9c0.1-0.1,0.2-0.2,0.3-0.1
			l4.3,1.3c1.4,0.4,2.6-0.9,2.1-2.2l-4-9.4c0.3-0.4,0.8-0.7,1.3-0.8c1.7-0.4,2.9-2,2.9-3.7c0-0.8,0.4-1.5,1-1.9c1.4-1,2-2.8,1.3-4.5
			C37.9,21.2,37.9,20.4,38.4,19.7L38.4,19.7z M13.9,46.4c-0.1,0.2-0.4,0.2-0.5,0l-2.1-3.9c-0.4-0.7-1.2-1.1-2-0.8L4.9,43
			c-0.2,0.1-0.4-0.1-0.3-0.4l3.5-8.3c0.8,1.1,2.1,1.7,3.5,1.5c0.8-0.1,1.6,0.2,2.1,0.8c0.7,0.8,1.8,1.3,2.9,1.3c0.3,0,0.7,0,1-0.1
			L13.9,46.4z M34.1,43l-4.3-1.3c-0.8-0.2-1.6,0.1-2,0.8l-2.1,3.9c-0.1,0.2-0.4,0.2-0.5,0l-3.7-8.6c1.4,0.4,2.9,0,3.9-1.2
			c0.5-0.6,1.3-0.9,2.1-0.8c1.4,0.2,2.7-0.4,3.5-1.5l3.5,8.3C34.5,42.9,34.3,43.1,34.1,43L34.1,43z M37.2,18.9
			c-0.7,1-0.8,2.3-0.3,3.5c0.4,1,0.1,2.1-0.8,2.8c-1,0.7-1.6,1.9-1.6,3.1c0,1.1-0.7,2-1.8,2.3c-1,0.3-1.8,0.9-2.4,1.8c0,0,0,0,0,0
			c-0.1,0.2-0.2,0.4-0.3,0.6c-0.4,1-1.4,1.6-2.5,1.5c-1.3-0.1-2.5,0.3-3.3,1.3c-0.7,0.8-1.9,1-2.9,0.5c-0.3-0.2-0.7-0.3-1-0.4
			c0,0,0,0,0,0c-0.5-0.1-1-0.1-1.5,0c0,0,0,0,0,0c-0.4,0.1-0.7,0.2-1.1,0.4c-1,0.5-2.2,0.3-2.9-0.5c-0.7-0.8-1.8-1.3-2.9-1.3
			c-0.1,0-0.3,0-0.4,0C10.4,34.6,9.4,34,9,32.9c-0.1-0.2-0.2-0.4-0.3-0.6c0,0,0,0,0,0c-0.5-0.9-1.4-1.5-2.4-1.8
			c-1.1-0.3-1.8-1.2-1.8-2.3c0-1.2-0.6-2.4-1.6-3.1c-0.9-0.6-1.2-1.8-0.8-2.8c0.5-1.1,0.4-2.4-0.3-3.5c-0.6-0.9-0.5-2.1,0.3-2.9
			c0.9-0.9,1.2-2.1,1-3.3c-0.2-1.1,0.3-2.1,1.3-2.6c1.1-0.5,1.9-1.6,2.1-2.8c0.2-1.1,1.1-1.9,2.2-1.9c1.3-0.1,2.4-0.8,3-1.8
			c0.6-0.9,1.7-1.4,2.8-1C15.7,2.9,17,2.7,18,1.9c0.9-0.7,2.1-0.7,3,0c1,0.8,2.3,1,3.5,0.6c1.1-0.3,2.2,0.1,2.8,1
			c0.6,1.1,1.8,1.7,3,1.8c1.1,0.1,2,0.9,2.2,1.9c0.2,1.2,1,2.3,2.1,2.8c1,0.5,1.5,1.5,1.3,2.6c-0.3,1.2,0.1,2.5,1,3.3
			C37.7,16.9,37.8,18,37.2,18.9L37.2,18.9z"/>
		<path d="M5.8,18c0.4,0,0.8-0.2,0.8-0.6C7.4,11.1,13,6.3,19.5,6.3c6.5,0,12.1,4.8,12.8,11.1c0,0.4,0.4,0.6,0.7,0.6c0,0,0.1,0,0.1,0
			c0.4,0,0.7-0.4,0.6-0.8c-0.9-7-7-12.3-14.3-12.3c-7.3,0-13.4,5.3-14.3,12.3C5.2,17.6,5.5,18,5.8,18L5.8,18z"/>
		<path d="M33.2,19.9c-0.4,0-0.8,0.2-0.8,0.6c-0.8,6.3-6.3,11.1-12.8,11.1c-6.5,0-12.1-4.8-12.8-11.1c0-0.4-0.4-0.7-0.8-0.6
			c-0.4,0-0.7,0.4-0.6,0.8c0.9,7,7,12.3,14.3,12.3c7.3,0,13.4-5.3,14.3-12.3C33.8,20.3,33.5,19.9,33.2,19.9z"/>
		<path d="M29.7,16.1c-0.2-0.5-0.7-0.9-1.3-0.9l-5.7-0.2l-1.9-5.2c-0.2-0.5-0.7-0.9-1.3-0.9s-1.1,0.4-1.3,0.9l-1.9,5.2l-5.7,0.2
			c-0.6,0-1.1,0.4-1.3,0.9c-0.2,0.5,0,1.1,0.5,1.5l4.5,3.4l-1.6,5.3c-0.2,0.6,0,1.1,0.5,1.5c0.5,0.3,1.1,0.4,1.6,0l4.7-3.1l4.7,3.1
			c0.5,0.3,1.1,0.3,1.6,0c0.5-0.3,0.7-0.9,0.5-1.5l-1.6-5.3l4.5-3.4C29.7,17.2,29.9,16.6,29.7,16.1L29.7,16.1z M23.8,19.9
			c-0.4,0.3-0.6,0.9-0.5,1.4l1.5,5.2l-4.6-3c-0.2-0.2-0.5-0.2-0.8-0.2s-0.5,0.1-0.8,0.2l-4.6,3l1.5-5.2c0.2-0.5,0-1.1-0.5-1.4
			l-4.4-3.3l5.6-0.2c0.6,0,1.1-0.4,1.3-0.9l1.9-5.1l1.9,5.1c0.2,0.5,0.7,0.9,1.3,0.9l5.6,0.2L23.8,19.9z"/>
	</g>
</g>
</svg>
