<?xml version="1.0" encoding="utf-8"?>
<!-- Generator: Adobe Illustrator 23.0.5, SVG Export Plug-In . SVG Version: 6.00 Build 0)  -->
<svg version="1.1" id="Слой_1" xmlns="http://www.w3.org/2000/svg" xmlns:xlink="http://www.w3.org/1999/xlink" x="0px" y="0px"
	 viewBox="0 0 22 25" style="enable-background:new 0 0 22 25;" xml:space="preserve">
<g>
	<g>
		<path d="M10.9,13.5C10.9,13.5,11,13.5,10.9,13.5c0.1,0,0.1,0,0.1,0c0,0,0,0,0.1,0c1.5,0,2.7-0.6,3.6-1.6c2-2.2,1.7-6.1,1.6-6.5
			c-0.1-2.8-1.4-4.1-2.5-4.7C13,0.3,12.1,0,11.1,0h0c0,0,0,0,0,0h0c-0.6,0-1.7,0.1-2.8,0.7C7.1,1.3,5.8,2.6,5.6,5.4
			c0,0.4-0.4,4.2,1.6,6.5C8.2,12.9,9.4,13.4,10.9,13.5z M7,5.6C7,5.5,7,5.5,7,5.6C7.2,1.8,9.8,1.4,11,1.4h0c0,0,0,0,0,0
			c1.4,0,3.8,0.6,3.9,4.1c0,0,0,0,0,0c0,0,0.4,3.6-1.3,5.4c-0.7,0.7-1.5,1.1-2.7,1.1c0,0,0,0,0,0l0,0c0,0,0,0,0,0
			c-1.1,0-2-0.4-2.7-1.1C6.7,9.1,7,5.6,7,5.6z"/>
		<path d="M21.6,19.9C21.6,19.9,21.6,19.8,21.6,19.9c0-0.1,0-0.1,0-0.1c0-1-0.1-3.4-2.3-4.2c0,0,0,0-0.1,0c-2.3-0.6-4.3-1.9-4.3-2
			c-0.3-0.2-0.8-0.1-1,0.2c-0.2,0.3-0.1,0.8,0.2,1c0.1,0.1,2.1,1.5,4.7,2.2c1.2,0.4,1.3,1.7,1.4,2.9c0,0,0,0.1,0,0.1
			c0,0.5,0,1.2-0.1,1.6C19.3,22,16,23.6,11,23.6c-5,0-8.3-1.7-9.1-2.1c-0.1-0.4-0.1-1.1-0.1-1.6c0,0,0-0.1,0-0.1
			c0-1.2,0.2-2.5,1.4-2.9c2.6-0.7,4.6-2.1,4.7-2.2c0.3-0.2,0.4-0.7,0.2-1c-0.2-0.3-0.7-0.4-1-0.2c0,0-2,1.4-4.3,2c0,0,0,0-0.1,0
			c-2.2,0.8-2.3,3.2-2.3,4.2c0,0,0,0.1,0,0.1c0,0,0,0,0,0c0,0.3,0,1.7,0.3,2.3c0.1,0.1,0.1,0.2,0.3,0.3C1.1,22.6,4.8,25,11,25
			s10-2.4,10.1-2.5c0.1-0.1,0.2-0.2,0.3-0.3C21.6,21.5,21.6,20.1,21.6,19.9z"/>
	</g>
</g>
</svg>
