<?xml version="1.0" encoding="utf-8"?>
<!-- Generator: Adobe Illustrator 23.0.1, SVG Export Plug-In . SVG Version: 6.00 Build 0)  -->
<svg version="1.1" id="Слой_1" xmlns="http://www.w3.org/2000/svg" xmlns:xlink="http://www.w3.org/1999/xlink" x="0px" y="0px"
	 viewBox="0 0 37 48" style="enable-background:new 0 0 37 48;" xml:space="preserve">
<g>
	<path d="M36.4,34.1c0-1.2-0.5-2.2-1.4-2.9c1.2-0.7,1.9-1.9,1.9-3.3c0-2.1-1.7-3.8-3.9-3.8h-5.6l0.3-0.5c0.3-0.5,0.4-1,0.4-1.5v-1.6
		c0-0.4-0.3-0.7-0.7-0.7c-0.4,0-0.7,0.3-0.7,0.7V22c0,0.3-0.1,0.5-0.2,0.8l-0.8,1.2h-0.8c-0.4,0-0.7,0.3-0.7,0.7s0.3,0.7,0.7,0.7
		h1.2c0,0,0,0,0,0c0,0,0,0,0,0h6.9c1.4,0,2.5,1.1,2.5,2.4c0,1.3-1.1,2.4-2.5,2.4h-0.3c0,0-0.1,0-0.1,0c-0.1,0-0.1,0-0.2,0
		c-0.4,0-0.7,0.3-0.7,0.7s0.3,0.7,0.7,0.7c0.1,0,0.1,0,0.2,0c1.3,0.1,2.3,1.1,2.3,2.4c0,1.3-1.1,2.4-2.5,2.4h-0.3
		c-0.4,0-0.7,0.3-0.7,0.7s0.3,0.7,0.7,0.7h0.3c1.1,0,1.9,0.8,1.9,1.9c0,1-0.9,1.9-1.9,1.9h-1.3c-0.4,0-0.7,0.3-0.7,0.7
		c0,0.4,0.3,0.7,0.7,0.7h0.2c1,0,1.8,0.8,1.8,1.7s-0.8,1.7-1.8,1.7h-1.7c-0.4,0-0.7,0.3-0.7,0.7s0.3,0.7,0.7,0.7h1.7
		c1.8,0,3.2-1.4,3.2-3.1c0-0.8-0.3-1.5-0.7-2c1.2-0.5,2-1.7,2-3c0-1-0.5-1.9-1.2-2.5C35.7,36.6,36.4,35.5,36.4,34.1L36.4,34.1z"/>
	<path d="M26.6,46.6h-5.8c-1.5,0-3-0.6-4.1-1.7c-0.4-0.4-0.9-0.6-1.4-0.6h-4.2c0,0,0-0.1,0-0.1v-9.7c0-0.4-0.3-0.7-0.7-0.7
		c-0.4,0-0.7,0.3-0.7,0.7v9.7c0,0.8-0.6,1.4-1.4,1.4H2.8c-0.8,0-1.4-0.6-1.4-1.4V27.9c0-0.8,0.6-1.4,1.4-1.4h5.4
		c0.8,0,1.4,0.6,1.4,1.4v3.6c0,0.4,0.3,0.7,0.7,0.7s0.7-0.3,0.7-0.7v-3.6c0,0,0-0.1,0-0.1h2.3c0.2,0,0.4-0.1,0.5-0.2l6.6-6.5
		c0.4-0.4,0.6-0.9,0.6-1.5V14c0-0.5,0.4-0.9,0.9-0.9h1.8c0.8,0,1.5,0.3,2.1,0.9c0.6,0.6,0.9,1.3,0.9,2.1v1.5c0,0.4,0.3,0.7,0.7,0.7
		c0.4,0,0.7-0.3,0.7-0.7V16c0-1.2-0.5-2.2-1.3-3.1c-0.8-0.8-1.9-1.3-3.1-1.3h-1.8c-1.3,0-2.4,1-2.4,2.3v5.7c0,0.2-0.1,0.4-0.2,0.5
		l-6.4,6.3h-2.5c-0.5-0.8-1.4-1.3-2.4-1.3H2.8c-1.6,0-2.8,1.3-2.8,2.8v16.3C0,45.8,1.3,47,2.8,47h5.4c1,0,1.9-0.5,2.4-1.3h4.7
		c0.1,0,0.3,0.1,0.4,0.2c1.4,1.3,3.2,2.1,5.1,2.1h5.8c0.4,0,0.7-0.3,0.7-0.7C27.3,46.9,27,46.6,26.6,46.6L26.6,46.6z"/>
	<path d="M3.2,41.8c0,1.3,1.1,2.3,2.4,2.3c1.3,0,2.4-1,2.4-2.3s-1.1-2.3-2.4-2.3C4.3,39.5,3.2,40.5,3.2,41.8z M5.6,40.9
		c0.5,0,0.9,0.4,0.9,0.9c0,0.5-0.4,0.9-0.9,0.9s-0.9-0.4-0.9-0.9C4.6,41.3,5,40.9,5.6,40.9z"/>
	<path d="M6.3,37v-7.9c0-0.4-0.3-0.7-0.7-0.7s-0.7,0.3-0.7,0.7V37c0,0.4,0.3,0.7,0.7,0.7S6.3,37.4,6.3,37z"/>
	<path d="M18.9,5.5l1,0.7c0.1,0.1,0.1,0.2,0.1,0.3l-0.4,1.1c-0.2,0.7,0,1.4,0.6,1.9c0.3,0.2,0.6,0.3,1,0.3c0.3,0,0.7-0.1,1-0.3
		l1-0.7c0.1-0.1,0.2-0.1,0.3,0l1,0.7c0.6,0.4,1.4,0.4,2,0C27,9,27.2,8.3,27,7.6l-0.4-1.1c0-0.1,0-0.2,0.1-0.3l1-0.7
		c0.6-0.4,0.8-1.2,0.6-1.9c-0.2-0.7-0.9-1.1-1.6-1.1h-1.2c-0.1,0-0.2-0.1-0.2-0.2l-0.4-1.1C24.7,0.5,24,0,23.3,0
		c-0.7,0-1.4,0.5-1.6,1.1l-0.4,1.1c0,0.1-0.1,0.2-0.2,0.2h-1.2c-0.7,0-1.4,0.5-1.6,1.1C18,4.3,18.3,5,18.9,5.5L18.9,5.5z M19.6,4
		c0-0.1,0.1-0.2,0.2-0.2h1.2c0.7,0,1.4-0.5,1.6-1.1L23,1.6c0-0.1,0.2-0.2,0.2-0.2c0.1,0,0.2,0,0.2,0.2l0.4,1.1
		c0.2,0.7,0.9,1.1,1.6,1.1h1.2C26.9,3.9,26.9,4,27,4c0,0.1,0,0.2-0.1,0.3l-1,0.7c-0.6,0.4-0.8,1.2-0.6,1.9L25.7,8
		c0,0.1,0,0.2-0.1,0.3c-0.1,0-0.2,0.1-0.3,0l-1-0.7c-0.6-0.4-1.4-0.4-2,0l-1,0.7c-0.1,0.1-0.2,0-0.3,0c-0.1,0-0.1-0.1-0.1-0.3
		l0.4-1.1c0.2-0.7,0-1.4-0.6-1.9l-1-0.7C19.6,4.2,19.6,4.1,19.6,4L19.6,4z"/>
	<path d="M14.9,6.6h0.8c0.4,0,0.7-0.3,0.7-0.7s-0.3-0.7-0.7-0.7h-0.8c-0.4,0-0.7,0.3-0.7,0.7S14.5,6.6,14.9,6.6z"/>
	<path d="M14.9,3l0.7,0.3c0.1,0,0.2,0.1,0.3,0.1c0.3,0,0.5-0.2,0.7-0.4c0.2-0.4,0-0.8-0.4-0.9l-0.7-0.3c-0.4-0.2-0.8,0-0.9,0.4
		C14.4,2.4,14.6,2.9,14.9,3z"/>
	<path d="M15.7,8.4l-0.7,0.3c-0.4,0.2-0.5,0.6-0.4,0.9c0.1,0.3,0.4,0.4,0.7,0.4c0.1,0,0.2,0,0.3-0.1l0.7-0.3
		c0.4-0.2,0.5-0.6,0.4-0.9C16.4,8.4,16,8.2,15.7,8.4L15.7,8.4z"/>
	<path d="M30.8,5.1c-0.4,0-0.7,0.3-0.7,0.7s0.3,0.7,0.7,0.7h0.8c0.4,0,0.7-0.3,0.7-0.7c0-0.4-0.3-0.7-0.7-0.7L30.8,5.1z"/>
	<path d="M30.5,3.4c0.1,0,0.2,0,0.3-0.1L31.5,3c0.4-0.2,0.5-0.6,0.4-0.9c-0.2-0.4-0.6-0.5-0.9-0.4L30.2,2c-0.4,0.2-0.5,0.6-0.4,0.9
		C30,3.2,30.2,3.4,30.5,3.4z"/>
	<path d="M30.2,9.7l0.7,0.3c0.1,0,0.2,0.1,0.3,0.1c0.3,0,0.5-0.2,0.7-0.4c0.2-0.4,0-0.8-0.4-0.9l-0.7-0.3c-0.4-0.2-0.8,0-0.9,0.4
		C29.7,9.1,29.9,9.5,30.2,9.7z"/>
</g>
</svg>
