<?xml version="1.0" encoding="utf-8"?>
<!-- Generator: Adobe Illustrator 23.0.5, SVG Export Plug-In . SVG Version: 6.00 Build 0)  -->
<svg version="1.1" id="Слой_1" xmlns="http://www.w3.org/2000/svg" xmlns:xlink="http://www.w3.org/1999/xlink" x="0px" y="0px"
	 viewBox="0 0 50 35" style="enable-background:new 0 0 50 35;" xml:space="preserve">
<g>
	<g>
		<path d="M38.1,16.5v-4.7c0-1.8-1.5-3.3-3.3-3.3h-6c-1.1,0-2,0.5-2.7,1.3c-0.6-0.8-1.6-1.3-2.7-1.3h-6.7c-1.1,0-2,0.5-2.7,1.3
			c-0.6-0.8-1.6-1.3-2.7-1.3h-6C3.5,8.5,2,10,2,11.8v4.7c-1.2,0.3-2,1.4-2,2.6v12.6c0,0.2,0.1,0.3,0.2,0.5c0.1,0.1,0.3,0.2,0.5,0.2
			V33c0,1.1,0.9,2,2,2h2c1.1,0,2-0.9,2-2v-0.7h26.7V33c0,1.1,0.9,2,2,2h2c1.1,0,2-0.9,2-2v-0.7c0.2,0,0.3-0.1,0.5-0.2
			c0.1-0.1,0.2-0.3,0.2-0.5V19.1C40.1,17.9,39.3,16.8,38.1,16.5z M26.7,11.8c0-1.1,0.9-2,2-2h6c1.1,0,2,0.9,2,2v4.7
			c-1.2,0.3-2,1.4-2,2.6v1c-0.3-0.2-0.7-0.3-1.1-0.3c-0.1,0-0.2,0-0.3,0h-5.3c-0.5,0-0.9,0.1-1.3,0.4V11.8z M26.7,22.4
			c0-0.7,0.6-1.3,1.3-1.3h5.3c0,0,0.1,0,0.1,0c0.7,0.1,1.2,0.6,1.2,1.3v2.7h-8L26.7,22.4L26.7,22.4z M14.7,11.8c0-1.1,0.9-2,2-2h6.7
			c1.1,0,2,0.9,2,2v8.3c-0.3-0.2-0.7-0.3-1.1-0.3c-0.1,0-0.2,0-0.3,0h-8c-0.5,0-0.9,0.1-1.3,0.4V11.8z M14.7,22.4
			c0-0.7,0.6-1.3,1.3-1.3h8c0,0,0.1,0,0.1,0c0.7,0.1,1.2,0.6,1.2,1.3v1.3v1.3H14.7V22.4z M13.4,25.1h-8v-2.7c0-0.7,0.6-1.3,1.3-1.3
			H12c0,0,0.1,0,0.1,0c0.7,0.1,1.2,0.6,1.2,1.3v0.7V25.1z M3.3,11.8c0-1.1,0.9-2,2-2h6c1.1,0,2,0.9,2,2v8.3
			c-0.3-0.2-0.7-0.3-1.1-0.3c-0.1,0-0.2,0-0.3,0H6.7c-0.5,0-0.9,0.1-1.3,0.4v-1c0-1.2-0.8-2.3-2-2.6L3.3,11.8L3.3,11.8z M1.3,19.1
			c0-0.7,0.6-1.3,1.3-1.3S4,18.4,4,19.1V31H1.3V19.1z M5.3,33c0,0.4-0.3,0.7-0.7,0.7h-2C2.3,33.7,2,33.4,2,33v-0.7h3.3L5.3,33
			L5.3,33z M5.3,31v-4.6h29.4V31h-0.7H5.3z M38.1,33c0,0.4-0.3,0.7-0.7,0.7h-2c-0.4,0-0.7-0.3-0.7-0.7v-0.7h3.3V33z M38.8,31h-2.7
			V19.1c0-0.7,0.6-1.3,1.3-1.3c0.7,0,1.3,0.6,1.3,1.3L38.8,31L38.8,31z"/>
	</g>
</g>
<g>
	<path d="M30.2,7c0.3,0,0.7-0.2,1-0.2c0.1,0,0.1-0.1,0.2-0.1c1.6-1.1,1.6-1.1,3.3,0c0-0.2-0.1-0.3-0.1-0.4c-0.5-1.5-0.5-1.5,0.8-2.4
		c1.7-1.2,3.4-2.3,5.1-3.5c1-0.7,1.5-0.6,2,0.5c0.8,1.8,1.7,3.6,2.5,5.4c0.1,0.3,0.4,0.5,0.7,0.7c0.2,0.2,0.4,0.3,0.5,0.5
		c0.7,1.1,1.5,2.1,2.2,3.2c0.5,0.7,0.4,1.1-0.3,1.6c-0.6,0.4-1.3,0.9-1.9,1.3c-0.4,0.2-0.5,0.5-0.2,0.8c0.4,0.6,0.8,1.1,1.3,1.6
		c0.6,0.6,1.4,1.1,2,1.7c1.1,1.1,0.9,2.7-0.3,3.6c-0.3,0.2-0.6,0.4-1,0.6c-1.2,0.6-2.6,0.2-3.2-1c-0.4-0.9-0.6-1.8-1-2.7
		c-0.3-0.6-0.7-1.2-1.1-1.8c-0.1-0.1-0.5,0-0.7-0.1c0,0,0,0-0.1,0c-1.2,0.6-1.8,1.5-2,2.9 M35.3,5.3c0.3,0.9,0.6,1.7,0.9,2.6
		c0.1,0.2-0.1,0.5-0.1,0.7c-0.2,0-0.5,0-0.7-0.2c-0.6-0.5-1.2-1-1.9-1.5c-0.1-0.1-0.4-0.2-0.5-0.2c-0.5,0.3-0.9,0.6-1.4,0.9
		c1.7,1.7,3.4,3.4,5,5c2.7-1.8,5.3-3.6,7.9-5.4c-1-2.1-1.9-4.2-2.9-6.2c-1.1,0.7-2,1.4-3.1,2c0.4,0.7,0.8,1.5,1.3,2.3
		c0.3,0.5,0.6,1,0.9,1.6c0.2,0.3,0.3,0.6-0.1,0.8c-0.2,0.1-0.5-0.2-0.7-0.3c-0.1-0.1-0.1-0.2-0.2-0.3c-0.7-1.2-1.3-2.3-2-3.5
		C36.9,4.2,36.1,4.7,35.3,5.3z M37,13.8c0.8,1.1,1.5,2.3,2.3,3.3c2.8-1.9,5.6-3.8,8.4-5.7c-0.8-1.1-1.5-2.2-2.3-3.4
		C42.5,10,39.7,11.9,37,13.8z M43.2,15.8c1.1,0.9,1.5,2.1,1.8,3.4c0.1,0.5,0.4,1,0.6,1.5c0.4,0.8,1.2,1,1.9,0.6
		c1.3-0.7,1.8-1.5,1.3-2.4c-0.1-0.2-0.2-0.3-0.3-0.4c-0.3-0.3-0.6-0.6-0.9-0.8c-1.1-0.8-2.3-1.7-2.7-3.1
		C44.3,15,43.8,15.3,43.2,15.8z"/>
</g>
</svg>
