<?xml version="1.0" encoding="utf-8"?>
<!-- Generator: Adobe Illustrator 23.0.5, SVG Export Plug-In . SVG Version: 6.00 Build 0)  -->
<svg version="1.1" id="Слой_1" xmlns="http://www.w3.org/2000/svg" xmlns:xlink="http://www.w3.org/1999/xlink" x="0px" y="0px"
	 viewBox="0 0 23.6 23.6" style="enable-background:new 0 0 23.6 23.6;" xml:space="preserve">
<style type="text/css">
	.st0{clip-path:url(#SVGID_2_);}
</style>
<g>
	<defs>
		<rect id="SVGID_1_" y="0" width="23.6" height="23.6"/>
	</defs>
	<clipPath id="SVGID_2_">
		<use xlink:href="#SVGID_1_"  style="overflow:visible;"/>
	</clipPath>
	<path class="st0" d="M1,9.5c0-1.2,0.2-2.3,0.6-3.3c0.4-1,1-1.9,1.8-2.7s1.7-1.4,2.7-1.8C7.2,1.2,8.3,1,9.5,1c1.2,0,2.3,0.2,3.3,0.6
		c1,0.4,1.9,1,2.7,1.8s1.4,1.7,1.8,2.7c0.4,1,0.7,2.1,0.7,3.3s-0.2,2.3-0.7,3.3c-0.4,1-1.1,1.9-1.8,2.7c-0.8,0.8-1.7,1.4-2.7,1.8
		c-1,0.4-2.1,0.7-3.3,0.7c-1.2,0-2.3-0.2-3.3-0.7s-1.9-1.1-2.7-1.8c-0.8-0.8-1.4-1.7-1.8-2.7C1.2,11.8,1,10.7,1,9.5z M23.6,22.3
		l-6.8-6.8c0.4-0.4,0.7-0.8,0.9-1.3c0.3-0.5,0.5-1,0.7-1.5c0.2-0.5,0.3-1,0.4-1.6C18.9,10.6,19,10,19,9.5c0-1.3-0.3-2.6-0.8-3.7
		c-0.5-1.2-1.2-2.2-2.1-3c-0.9-0.9-1.9-1.5-3-2C12,0.2,10.8,0,9.5,0C8.2,0,6.9,0.2,5.8,0.7c-1.2,0.5-2.2,1.2-3,2
		c-0.9,0.9-1.5,1.9-2,3C0.2,6.9,0,8.2,0,9.5c0,1.3,0.2,2.5,0.7,3.7c0.5,1.2,1.2,2.2,2,3c0.9,0.9,1.9,1.5,3,2.1S8.2,19,9.5,19
		c0.5,0,1.1,0,1.7-0.1s1.1-0.2,1.6-0.4c0.5-0.2,1-0.4,1.5-0.7s0.9-0.6,1.3-0.9l6.8,6.8L23.6,22.3z"/>
</g>
</svg>
