<?xml version="1.0" encoding="utf-8"?>
<!-- Generator: Adobe Illustrator 23.0.1, SVG Export Plug-In . SVG Version: 6.00 Build 0)  -->
<svg version="1.1" id="Слой_1" xmlns="http://www.w3.org/2000/svg" xmlns:xlink="http://www.w3.org/1999/xlink" x="0px" y="0px"
	 viewBox="0 0 30 30" style="enable-background:new 0 0 30 30;" xml:space="preserve">
<g>
	<g>
		<path d="M28.5,0.1L13.2,7.2c-0.4,0.2-0.6,0.7-0.4,1.1c0.2,0.4,0.7,0.6,1.1,0.4l9.5-4.4L18.7,8L8.2,16.5L2.4,14l8.1-3.8
			c0.4-0.2,0.6-0.7,0.4-1.1c-0.2-0.4-0.7-0.6-1.1-0.4l-8.7,4.1c-0.5,0.2-0.8,0.7-0.7,1.2c0,0.5,0.3,0.9,0.8,1.1L7.6,18l1.9,11.3
			c0.1,0.7,1.1,0.9,1.5,0.3l5.4-8.2l10.1,4.7c0.8,0.4,1.8-0.2,1.8-1.1l1.4-24.3c0,0,0,0,0-0.1C29.6,0.2,29-0.2,28.5,0.1z M10.4,25.2
			l-1.2-7.4L21.7,7.6l-9.6,10.8c-0.1,0.1-0.2,0.2-0.2,0.3L10.4,25.2z M12.1,25l1.2-4.9l1.6,0.7L12.1,25z M15.7,19.4L14,18.7l8.3-9.3
			l-1.2,1.8L15.7,19.4z M26.7,24.6l-9.5-4.4L27.9,3.7L26.7,24.6z"/>
	</g>
</g>
</svg>
