<?xml version="1.0" encoding="utf-8"?>
<!-- Generator: Adobe Illustrator 23.0.1, SVG Export Plug-In . SVG Version: 6.00 Build 0)  -->
<svg version="1.1" id="Слой_1" xmlns="http://www.w3.org/2000/svg" xmlns:xlink="http://www.w3.org/1999/xlink" x="0px" y="0px"
	 viewBox="0 0 53 30" style="enable-background:new 0 0 53 30;" xml:space="preserve">
<g>
	<path d="M52.5,27.1c-0.1-0.1-0.1-0.3-0.2-0.3c-0.9-1.7-2.6-3.7-5.2-6l-0.1-0.1l0,0l0,0h0c-1.2-1.1-1.9-1.9-2.2-2.2
		c-0.6-0.7-0.7-1.5-0.4-2.2c0.2-0.6,1-1.8,2.5-3.6c0.8-1,1.3-1.7,1.8-2.3c3.2-4.2,4.5-6.9,4.1-8l-0.2-0.3c-0.1-0.2-0.4-0.3-0.8-0.5
		c-0.5-0.1-1-0.1-1.7-0.1l-7.9,0.1c-0.1-0.1-0.3,0-0.6,0c-0.2,0.1-0.3,0.1-0.3,0.1L41,1.6l-0.1,0.1c-0.1,0.1-0.2,0.1-0.3,0.3
		c-0.1,0.1-0.2,0.3-0.3,0.5c-0.9,2.2-1.8,4.3-2.9,6.2c-0.7,1.1-1.3,2.1-1.9,2.9c-0.6,0.8-1,1.5-1.4,1.8c-0.4,0.4-0.7,0.7-1,1
		c-0.3,0.2-0.6,0.3-0.7,0.3c-0.2,0-0.3-0.1-0.5-0.1c-0.3-0.2-0.5-0.4-0.6-0.7c-0.1-0.3-0.3-0.6-0.3-1.1c-0.1-0.4-0.1-0.8-0.1-1.1
		c0-0.3,0-0.8,0-1.3c0-0.6,0-1,0-1.2c0-0.7,0-1.5,0-2.3c0-0.8,0.1-1.5,0.1-1.9c0-0.5,0-1,0-1.5s0-1-0.1-1.2s-0.1-0.6-0.3-0.9
		c-0.1-0.3-0.3-0.5-0.6-0.7c-0.2-0.1-0.6-0.3-0.9-0.4C28.3,0.1,27,0,25.5,0C22.1,0,20,0.2,19,0.7c-0.4,0.2-0.7,0.5-1,0.8
		c-0.3,0.4-0.4,0.6-0.1,0.7c1.1,0.2,1.9,0.6,2.3,1.2l0.2,0.3c0.1,0.2,0.3,0.7,0.4,1.2c0.1,0.6,0.2,1.3,0.2,2c0.1,1.3,0.1,2.5,0,3.4
		s-0.2,1.7-0.3,2.2s-0.2,1-0.4,1.3c-0.2,0.3-0.3,0.5-0.3,0.6s-0.1,0.1-0.1,0.1c-0.2,0.1-0.5,0.1-0.7,0.1c-0.3,0-0.6-0.1-0.9-0.4
		c-0.4-0.3-0.8-0.6-1.1-1c-0.4-0.4-0.8-1.1-1.3-1.9c-0.5-0.8-1-1.7-1.5-2.8l-0.4-0.8c-0.3-0.5-0.6-1.2-1.1-2.2
		c-0.5-1-0.9-1.9-1.2-2.8C11.2,2.3,11,2,10.7,1.8l-0.1-0.1c-0.1-0.1-0.2-0.1-0.4-0.2C9.9,1.4,9.7,1.4,9.5,1.3L2,1.4
		c-0.8,0-1.3,0.2-1.6,0.5L0.3,2.1C0.2,2.2,0.2,2.3,0.2,2.5S0.3,3,0.4,3.3c1.1,2.6,2.3,5.1,3.6,7.4c1.3,2.4,2.4,4.3,3.3,5.8
		c1,1.5,1.9,2.8,2.9,4.1c1,1.3,1.6,2.1,1.9,2.5c0.3,0.4,0.6,0.6,0.8,0.8l0.7,0.7c0.4,0.4,1.1,1,1.9,1.6c0.8,0.6,1.8,1.2,2.8,1.8
		c1,0.6,2.2,1.1,3.6,1.5c1.4,0.4,2.7,0.5,4,0.5h3.2c0.6-0.1,1.1-0.3,1.5-0.6l0.1-0.1c0.1-0.1,0.1-0.3,0.2-0.5
		c0.1-0.2,0.1-0.5,0.1-0.8c0-0.8,0-1.5,0.2-2.1c0.1-0.6,0.3-1.1,0.5-1.4c0.2-0.3,0.4-0.6,0.6-0.8c0.2-0.2,0.4-0.3,0.5-0.4
		c0.1-0.1,0.2-0.1,0.2-0.1c0.4-0.1,1,0,1.5,0.4c0.6,0.4,1.2,1,1.7,1.6c0.5,0.6,1.1,1.3,1.9,2.1c0.7,0.8,1.4,1.4,1.9,1.7l0.6,0.3
		c0.4,0.2,0.8,0.4,1.4,0.6C42.4,30,43,30,43.4,30l7-0.1c0.7,0,1.2-0.1,1.6-0.3c0.4-0.2,0.6-0.5,0.7-0.8c0.1-0.3,0.1-0.6,0-0.9
		C52.7,27.5,52.6,27.2,52.5,27.1z"/>
</g>
</svg>
