<?xml version="1.0" standalone="no"?>
<!DOCTYPE svg PUBLIC "-//W3C//DTD SVG 20010904//EN"
 "http://www.w3.org/TR/2001/REC-SVG-20010904/DTD/svg10.dtd">
<svg version="1.0" xmlns="http://www.w3.org/2000/svg"
 width="700.000000pt" height="700.000000pt" viewBox="0 0 700.000000 700.000000"
 preserveAspectRatio="xMidYMid meet">
<metadata>
Created by potrace 1.11, written by Peter Selinger 2001-2013
</metadata>
<g transform="translate(0.000000,700.000000) scale(0.100000,-0.100000)"
fill="#000000" stroke="none">
<path d="M3490 6402 c-55 -9 -102 -66 -94 -114 2 -14 -5 -18 -34 -18 -41 -1
-63 -13 -80 -47 -19 -35 -14 -63 17 -94 37 -36 70 -37 112 -2 l32 28 -6 -39
c-18 -110 -148 -176 -250 -127 -24 12 -52 30 -61 40 -16 17 -16 21 0 53 15 33
15 37 -1 71 -29 61 -109 64 -145 5 -18 -30 -18 -43 2 -84 12 -26 49 -45 77
-39 18 3 21 -1 21 -27 0 -82 -82 -155 -165 -146 -24 3 -57 15 -74 27 l-31 23
30 28 c49 46 35 116 -28 138 -32 11 -92 -8 -92 -30 -1 -7 -11 0 -24 15 -31 38
-88 57 -132 44 -19 -6 -34 -14 -34 -17 0 -4 25 -27 55 -50 84 -65 216 -209
255 -278 58 -104 48 -99 121 -62 171 87 345 128 544 128 195 1 366 -38 533
-119 42 -20 80 -35 83 -33 4 2 22 30 39 62 60 105 159 216 278 310 l54 42 -32
14 c-46 19 -98 5 -132 -35 -22 -26 -28 -29 -33 -16 -9 23 -54 35 -92 25 -70
-18 -77 -107 -14 -155 14 -11 14 -13 -4 -27 -59 -46 -144 -44 -200 5 -54 48
-74 142 -28 135 48 -8 103 57 88 104 -19 60 -96 80 -140 35 -29 -28 -33 -79
-10 -105 13 -15 13 -19 -5 -38 -65 -70 -177 -77 -250 -16 -37 32 -56 66 -65
119 l-7 40 21 -32 c36 -57 114 -55 145 5 30 58 -16 127 -80 120 -28 -3 -31 -1
-32 24 -1 25 -8 43 -30 75 -12 19 -74 40 -102 35z"/>
<path d="M3400 5608 c-291 -27 -534 -172 -648 -387 -107 -201 -120 -451 -35
-656 101 -242 288 -393 557 -451 189 -41 523 -11 731 67 l50 19 -2 242 c-1
134 1 255 4 271 4 18 18 34 44 49 28 15 39 28 39 45 l0 23 -217 1 c-120 1
-224 1 -230 0 -7 -1 -13 4 -14 11 -3 40 3 296 7 310 3 11 22 19 57 25 37 6 53
13 55 26 4 19 -17 20 -313 17 -197 -2 -252 -12 -312 -57 -85 -65 -83 -221 6
-312 52 -53 114 -73 236 -76 76 -1 85 2 85 30 0 21 -4 23 -88 27 -101 5 -138
23 -167 84 -23 48 -17 143 11 181 43 57 65 66 182 71 101 4 109 3 114 -14 11
-41 3 -733 -8 -744 -10 -10 -43 -18 -86 -19 -11 -1 -18 -9 -18 -21 0 -19 7
-20 180 -20 173 0 180 1 180 20 0 14 -7 20 -22 21 -96 3 -96 3 -98 206 l-1
176 91 -6 c99 -7 125 -16 133 -47 8 -33 6 -413 -3 -436 -6 -15 -31 -30 -78
-48 -88 -34 -162 -47 -290 -50 -288 -9 -485 99 -598 328 -120 245 -101 561 45
756 172 229 571 303 881 164 91 -41 96 -50 99 -187 1 -48 1 -48 34 -45 l32 3
6 85 c3 47 12 111 18 144 7 32 9 62 4 66 -16 17 -144 59 -235 79 -157 33 -276
42 -418 29z"/>
<path d="M4635 3237 c-7 -12 -21 -47 -30 -77 -9 -30 -19 -62 -22 -70 -12 -32
-15 -47 -16 -98 0 -40 4 -56 19 -68 10 -8 12 -12 4 -8 -21 9 32 -41 57 -54 27
-15 72 -22 77 -13 3 4 -19 26 -49 47 -57 41 -70 62 -66 104 3 33 52 203 62
214 5 5 51 10 104 11 80 1 95 -1 96 -14 1 -16 2 -24 14 -71 13 -48 17 -111 10
-146 -6 -37 -91 -134 -110 -127 -6 2 -20 -5 -32 -16 -11 -11 -23 -17 -27 -14
-6 6 -28 -42 -31 -69 -1 -10 2 -18 7 -18 5 0 4 -9 -2 -20 -6 -11 -7 -20 -3
-20 4 0 7 -19 7 -42 -1 -24 3 -49 10 -57 8 -11 8 -13 -1 -7 -9 5 -11 2 -7 -9
4 -9 11 -14 17 -12 17 5 24 44 26 142 1 49 4 92 7 96 2 4 19 10 37 13 50 9
112 54 133 95 24 49 26 142 4 235 -10 42 -21 80 -24 83 -4 4 -63 8 -132 9
-118 2 -126 1 -139 -19z"/>
<path d="M410 3234 c0 -6 -18 -9 -40 -8 -22 1 -42 -1 -45 -6 -2 -4 -17 -5 -31
-2 -20 4 -25 2 -19 -8 6 -9 4 -11 -4 -5 -14 8 -63 -33 -55 -46 3 -5 1 -9 -5
-9 -17 0 -33 -73 -18 -82 9 -6 9 -8 -1 -8 -32 0 8 -178 87 -392 27 -73 90
-244 140 -379 103 -281 116 -311 142 -327 16 -10 21 -10 25 3 6 15 -18 115
-39 165 -6 14 -12 30 -12 35 -1 6 -6 19 -10 30 -43 108 -55 140 -55 152 0 7
-5 13 -11 13 -5 0 -7 4 -4 10 3 5 -3 29 -14 53 -11 23 -23 56 -27 72 -4 17
-10 35 -14 40 -3 6 -13 30 -20 55 -7 25 -17 50 -22 56 -4 6 -5 14 -1 17 3 4 0
7 -7 7 -7 0 -11 3 -7 6 3 4 0 19 -9 35 -8 16 -12 29 -9 29 3 0 -1 13 -10 30
-8 16 -15 31 -15 32 2 4 -10 40 -21 63 -5 11 -11 34 -13 50 -2 17 -5 30 -6 30
-4 0 -9 36 -13 96 -5 65 4 82 59 106 34 15 75 16 314 15 369 -3 455 -8 491
-29 16 -10 29 -20 29 -23 0 -4 8 -15 18 -26 27 -30 106 -154 130 -204 12 -25
46 -101 76 -170 30 -69 60 -126 65 -128 6 -2 7 8 1 27 -5 17 -6 31 -2 31 4 0
2 4 -4 8 -5 4 -21 34 -34 67 -13 33 -27 65 -32 71 -5 7 -10 20 -12 31 -5 25
-95 210 -121 248 -24 36 -95 110 -95 99 0 -4 -7 1 -16 12 -8 10 -12 13 -9 5 6
-10 2 -10 -16 2 -13 8 -32 13 -41 12 -10 -2 -18 2 -18 8 0 7 -5 5 -10 -3 -6
-10 -10 -11 -10 -2 0 6 -5 12 -11 12 -5 0 -7 -5 -3 -12 5 -7 3 -8 -7 -2 -13 8
-43 11 -156 17 -23 1 -45 6 -49 10 -4 4 -13 2 -21 -4 -10 -9 -13 -8 -13 2 0
11 -2 11 -10 -1 -5 -8 -10 -10 -10 -4 0 6 -23 10 -57 9 -32 0 -64 3 -70 8 -8
6 -13 5 -13 -2 0 -6 -5 -11 -11 -11 -5 0 -8 3 -6 8 3 4 -26 7 -63 7 -37 0 -66
-3 -63 -7 7 -13 -12 -9 -25 4 -7 7 -12 8 -12 2z"/>
<path d="M2313 3219 c-32 -17 -126 -219 -109 -236 3 -4 6 2 6 12 0 10 2 16 5
13 4 -3 3 -18 -1 -33 -4 -17 -9 -23 -14 -15 -4 7 -10 -8 -14 -34 -9 -59 15
-112 63 -140 19 -11 31 -15 27 -8 -5 8 -2 10 8 6 9 -3 14 -10 11 -14 -3 -5 3
-7 12 -5 10 1 24 -2 30 -7 7 -6 22 -8 33 -5 15 4 20 0 20 -15 0 -10 -4 -17 -9
-14 -11 7 -9 -47 3 -56 14 -10 15 -80 0 -74 -15 6 -13 -36 3 -49 9 -7 10 -14
2 -25 -9 -13 -10 -12 -5 3 3 10 2 15 -3 12 -14 -8 -9 -46 4 -41 7 2 12 -2 12
-8 0 -10 -86 -13 -394 -15 -217 -1 -401 -5 -409 -8 -19 -7 -48 -107 -47 -163
1 -27 -2 -38 -6 -26 -10 27 -103 -480 -96 -524 4 -27 3 -30 -4 -15 -9 19 -10
19 -10 -2 -1 -13 4 -23 11 -23 7 0 5 -5 -4 -12 -16 -13 -44 -145 -33 -156 3
-3 5 4 5 16 0 11 4 23 9 26 13 9 1 -37 -14 -49 -14 -12 -36 -125 -23 -125 4 0
8 -10 7 -22 0 -21 -1 -22 -8 -3 -7 16 -9 14 -14 -14 -9 -45 -9 -73 1 -67 5 3
6 -9 3 -27 -4 -31 -5 -31 -11 -7 -5 20 -8 14 -14 -30 -4 -30 -14 -65 -21 -76
-12 -19 -12 -24 3 -36 14 -12 68 -14 302 -14 l284 1 7 34 c4 19 10 149 14 290
15 549 15 579 -13 589 -22 7 -31 -45 -37 -205 -4 -87 -8 -187 -10 -223 -2 -36
-4 -148 -4 -249 l-1 -184 -226 6 c-124 3 -228 8 -231 11 -3 2 7 72 22 153 46
253 64 356 71 398 12 83 86 464 110 570 14 61 32 117 41 125 9 8 13 10 9 3 -4
-7 6 -11 34 -10 22 1 40 7 40 12 0 6 3 6 8 0 4 -6 16 -11 27 -11 11 0 23 5 27
11 5 7 8 6 8 -1 0 -14 31 -14 49 0 11 8 13 8 7 -1 -4 -8 -2 -13 6 -13 8 0 20
6 27 13 9 7 11 8 7 0 -4 -8 6 -11 34 -10 22 1 40 7 40 12 0 6 3 6 8 0 4 -6 16
-11 27 -11 11 0 23 5 27 11 5 7 8 7 8 -1 0 -13 90 -13 90 1 0 7 3 6 8 0 4 -6
16 -11 27 -11 11 0 23 5 27 11 5 7 8 7 8 -1 0 -13 90 -13 90 1 0 7 3 6 8 0 4
-6 16 -11 27 -11 11 0 23 5 27 11 5 7 8 7 8 -1 0 -13 90 -13 90 1 0 7 3 6 8 0
4 -6 16 -11 27 -11 11 0 23 5 27 11 5 7 8 6 8 -1 0 -14 31 -14 49 0 11 8 13 8
7 -1 -4 -8 -2 -13 6 -13 8 0 20 6 27 13 9 7 11 8 7 0 -4 -8 6 -11 34 -10 22 1
40 7 40 12 0 6 3 6 8 0 4 -6 16 -11 27 -11 11 0 23 5 27 11 5 7 8 6 8 -1 0
-14 31 -14 49 0 11 8 13 8 7 -1 -4 -8 -2 -13 6 -13 8 0 20 6 27 13 10 8 12 8
7 0 -4 -8 3 -11 23 -11 19 1 28 5 24 12 -5 8 -3 8 8 0 17 -13 118 -13 138 0
10 6 12 6 7 -2 -10 -16 16 -15 33 1 9 7 11 8 7 0 -4 -8 6 -11 34 -10 22 1 40
7 40 12 0 6 3 6 8 0 4 -6 16 -11 27 -11 11 0 23 5 27 11 5 7 8 6 8 -1 0 -14
31 -14 49 0 11 8 13 8 7 -1 -4 -8 -2 -13 6 -13 8 0 20 6 27 13 8 7 11 7 8 1
-9 -15 105 -14 115 1 5 7 8 6 8 -1 0 -12 49 -13 69 0 10 6 12 6 7 -2 -10 -16
16 -15 33 1 10 8 12 8 7 0 -7 -13 60 -13 81 0 6 4 14 3 17 -2 7 -10 31 -9 42
2 4 4 12 7 18 7 6 0 4 -5 -4 -10 -12 -8 -11 -10 5 -10 12 0 27 6 34 13 11 10
13 10 7 0 -9 -17 16 -17 33 0 10 8 12 8 7 0 -7 -13 60 -13 81 0 6 4 14 3 17
-2 7 -10 31 -9 42 2 4 4 12 7 18 7 6 0 4 -5 -4 -10 -11 -7 -1 -9 32 -7 26 2
51 7 55 10 3 4 11 7 17 7 6 0 4 -5 -4 -10 -10 -6 4 -8 43 -6 31 2 57 -1 57 -6
0 -15 -182 -422 -194 -434 -6 -7 -91 -37 -189 -69 -97 -31 -186 -64 -198 -74
l-20 -16 36 -105 c48 -141 111 -335 125 -387 16 -63 35 -62 249 13 85 30 158
54 162 54 11 0 16 -47 7 -65 -6 -10 -6 -21 1 -29 6 -7 7 -16 2 -22 -5 -5 -12
-45 -15 -89 -3 -44 -6 -81 -6 -82 0 0 -47 0 -105 0 -58 1 -105 -2 -105 -7 0
-5 -6 -4 -12 1 -15 11 -103 9 -132 -3 -12 -4 -17 -4 -13 3 7 11 -22 11 -40 0
-20 -12 -133 -6 -126 7 5 7 2 7 -8 0 -10 -8 -81 -11 -239 -10 -124 2 -235 -1
-248 -6 -14 -5 -21 -4 -17 1 3 6 -9 9 -27 8 l-32 -2 -2 177 c-1 98 -4 184 -8
193 -3 8 -1 15 5 15 6 0 7 5 3 12 -4 6 -8 125 -8 264 -1 139 -5 256 -9 260 -4
4 -7 16 -7 26 0 30 -18 20 -30 -16 -14 -43 -12 -415 2 -433 7 -9 7 -13 -1 -13
-7 0 -9 -10 -7 -22 3 -13 8 -104 11 -203 4 -99 8 -196 11 -215 2 -19 4 -47 4
-61 0 -36 22 -52 65 -46 19 3 38 0 41 -5 4 -6 10 -5 15 3 5 8 9 9 9 3 0 -6 10
-10 23 -8 12 1 22 3 22 4 0 1 12 3 28 4 15 1 27 -2 27 -7 0 -4 9 -3 20 3 14 8
20 8 20 0 0 -6 5 -8 12 -4 6 4 89 8 184 8 184 1 184 1 184 -47 1 -36 35 -99
73 -137 67 -66 108 -96 92 -69 -5 8 4 1 18 -14 15 -15 32 -25 37 -22 6 3 10 1
10 -6 0 -7 3 -9 6 -6 4 4 19 -3 35 -14 15 -10 31 -19 36 -18 4 1 21 -3 37 -10
16 -6 31 -9 34 -6 3 3 14 -3 25 -12 15 -13 18 -14 12 -3 -8 13 -6 13 8 2 9 -8
21 -11 27 -7 5 3 10 1 10 -5 0 -6 5 -8 10 -5 6 3 10 2 10 -2 0 -5 -83 -8 -185
-7 -135 1 -183 -1 -178 -10 3 -6 0 -6 -8 2 -14 13 -63 17 -55 4 3 -5 -1 -9 -9
-9 -8 0 -12 4 -9 9 3 4 -7 8 -23 7 -25 0 -26 -1 -8 -9 19 -8 19 -9 -2 -9 -13
-1 -23 4 -23 9 0 6 -10 10 -22 9 -22 0 -22 -1 -3 -9 16 -7 17 -9 3 -9 -9 -1
-20 4 -23 9 -3 6 -21 9 -38 9 l-32 -2 35 -7 35 -7 -37 -2 c-21 0 -38 4 -38 9
0 6 -5 10 -11 10 -5 0 -7 -4 -4 -10 7 -11 -38 -14 -49 -3 -10 11 -37 12 -30 2
3 -5 1 -9 -5 -9 -5 0 -12 6 -14 13 -4 9 -6 9 -6 0 -1 -7 -10 -13 -22 -13 -11
0 -17 5 -14 10 4 6 -5 5 -20 -2 -22 -10 -28 -9 -36 3 -6 10 -9 10 -9 2 0 -7
-5 -13 -11 -13 -5 0 -7 5 -3 12 5 7 3 8 -7 2 -20 -13 -189 -12 -179 1 5 6 23
12 41 13 17 1 37 6 43 9 6 4 17 8 25 10 32 4 131 46 131 55 0 5 4 7 9 4 17
-11 112 75 152 136 44 69 49 89 19 81 -12 -3 -18 -8 -15 -11 6 -7 -110 -122
-123 -122 -5 0 -15 -7 -22 -15 -7 -8 -16 -13 -20 -10 -4 3 -11 -2 -14 -11 -4
-9 -13 -14 -21 -10 -8 3 -15 1 -15 -5 0 -6 -4 -7 -10 -4 -5 3 -10 1 -10 -6 0
-7 -3 -9 -7 -6 -3 4 -11 2 -18 -3 -6 -5 -20 -11 -31 -13 -10 -1 -25 -6 -31
-10 -7 -5 -17 -5 -23 -2 -5 3 -10 2 -10 -4 0 -5 -9 -8 -20 -6 -11 2 -20 -1
-20 -7 0 -6 -3 -8 -7 -5 -3 4 -13 1 -21 -6 -13 -10 -14 -9 -7 3 8 13 7 13 -10
0 -10 -8 -20 -14 -22 -12 -1 1 -4 2 -5 1 -14 -3 -67 -10 -80 -10 -10 0 -18 -4
-18 -9 0 -4 -11 -7 -25 -6 -15 2 -22 -1 -18 -7 4 -7 0 -8 -12 -4 -23 9 -45 -9
-45 -38 0 -19 5 -22 33 -22 18 1 39 -3 46 -7 8 -5 17 -3 22 5 6 10 9 11 9 2 0
-10 39 -13 163 -13 117 0 167 4 176 13 9 8 12 8 7 0 -4 -8 9 -12 49 -12 40 0
53 4 49 12 -5 8 -2 8 7 0 17 -17 32 -17 23 0 -6 9 -4 9 7 0 17 -17 32 -17 23
-1 -5 9 -2 9 9 -1 14 -11 17 -11 17 0 0 11 2 11 10 -1 8 -12 11 -13 19 -1 7
11 9 11 14 0 4 -12 7 -11 16 1 8 12 11 12 11 1 0 -10 3 -11 13 -2 10 8 17 7
25 -1 9 -9 12 -9 12 3 0 11 2 12 9 0 6 -9 11 -10 15 -2 4 6 14 8 24 3 21 -9
43 -9 60 1 7 5 12 3 12 -4 0 -8 4 -9 13 0 10 8 17 7 25 -1 9 -9 12 -9 12 1 0
7 5 9 12 5 13 -8 226 -6 239 2 5 3 9 -1 9 -8 0 -10 2 -10 8 -1 5 7 13 9 21 3
8 -4 24 -4 36 0 14 5 27 4 33 -2 6 -6 12 -6 17 2 5 8 10 8 21 -1 11 -9 14 -8
14 2 0 11 2 11 10 -1 7 -11 10 -11 10 -2 0 8 5 10 13 5 17 -11 38 -13 32 -3
-6 10 15 8 32 -3 6 -4 14 -3 17 2 3 5 15 7 26 4 11 -3 25 -3 32 0 7 2 16 4 19
3 12 -2 47 35 52 55 6 23 -32 56 -44 38 -5 -8 -9 -8 -14 1 -4 6 -25 11 -49 9
-22 -1 -48 1 -56 4 -33 12 -194 36 -203 30 -6 -3 -7 -2 -4 4 7 12 -62 35 -76
26 -6 -3 -7 -1 -3 5 4 7 1 12 -7 12 -8 0 -43 19 -78 42 -35 23 -68 41 -74 39
-5 -1 -7 0 -4 4 4 3 -4 18 -18 33 -29 31 -47 65 -57 105 l-6 27 98 0 c65 0
103 4 111 13 11 10 13 10 7 0 -4 -7 -2 -13 3 -13 6 0 11 3 11 8 0 4 43 6 96 4
54 -2 94 0 91 5 -3 5 6 8 21 6 37 -5 54 9 57 46 3 39 12 49 50 53 28 3 30 1
37 -46 4 -27 11 -52 17 -55 19 -12 405 0 420 12 10 8 12 8 8 1 -4 -7 20 -10
78 -9 102 2 129 18 115 66 -8 27 -6 389 2 406 2 5 3 37 3 72 -1 62 0 64 31 77
17 7 43 15 58 18 23 4 26 2 25 -22 0 -24 -1 -25 -9 -7 -5 12 -9 14 -9 6 -1 -8
7 -23 17 -34 9 -11 11 -17 5 -13 -10 5 -13 -4 -12 -36 l2 -43 7 35 c7 34 7 34
9 -12 0 -27 -2 -48 -6 -48 -5 0 -6 -24 -4 -52 l5 -53 6 40 6 40 5 -52 c3 -35
1 -49 -6 -43 -7 6 -10 -3 -7 -27 3 -24 7 -31 13 -22 6 9 9 1 9 -24 0 -21 -3
-36 -7 -34 -5 3 -6 -18 -3 -46 l4 -52 7 45 6 45 1 -55 c1 -30 -2 -61 -7 -69
-9 -14 4 -49 24 -63 6 -5 5 -8 -3 -8 -7 0 -17 11 -22 25 -11 30 -20 33 -13 5
8 -31 28 -43 52 -30 12 6 21 7 21 3 0 -4 5 -2 12 5 14 14 32 16 24 4 -3 -5 1
-9 9 -9 8 0 15 3 15 7 0 8 49 4 57 -4 4 -3 13 0 21 7 9 6 13 7 9 1 -4 -7 9
-10 41 -9 26 1 55 -2 66 -8 13 -6 16 -6 12 2 -4 6 -3 11 3 11 5 0 13 -5 16
-10 4 -6 11 -7 17 -4 17 11 52 11 60 0 4 -6 12 -5 21 2 7 7 17 8 21 4 11 -11
118 -11 140 0 16 9 17 17 12 66 -10 83 -34 229 -61 372 -114 598 -178 907
-190 919 -12 13 -229 15 -1522 15 l-1508 1 0 65 c0 36 2 98 5 139 l5 75 36 1
c93 4 154 74 153 175 -1 64 -33 262 -45 282 -11 17 -233 23 -266 7z m242 -64
c-2 -14 0 -25 4 -25 4 0 6 -13 5 -30 -1 -16 1 -30 5 -30 6 0 5 -173 -1 -215
-12 -82 -304 -61 -325 23 -6 26 20 119 52 187 8 17 21 46 29 66 12 33 16 35
62 38 27 1 49 3 51 4 1 1 28 3 61 5 58 2 59 2 57 -23z m-277 -10 c-6 -14 -13
-23 -15 -21 -5 5 15 46 22 46 3 0 -1 -11 -7 -25z m-37 -82 c-12 -20 -14 -14
-5 12 4 9 9 14 11 11 3 -2 0 -13 -6 -23z m-37 -162 c-2 -33 17 -76 44 -99 15
-12 14 -12 -8 0 -28 17 -57 86 -47 111 9 25 13 21 11 -12z m193 -206 c0 -8 -4
-12 -9 -9 -5 3 -6 10 -3 15 9 13 12 11 12 -6z m-804 -260 c-3 -9 -8 -14 -10
-11 -3 3 -2 9 2 15 9 16 15 13 8 -4z m2818 -95 c57 -45 125 -98 152 -117 26
-19 47 -36 47 -38 0 -8 -531 -178 -536 -172 -3 3 5 29 19 59 13 29 52 121 87
204 l64 151 31 -2 c23 -2 61 -26 136 -85z m842 78 c53 -2 97 -1 97 3 0 4 11 2
24 -4 24 -12 36 -43 36 -94 0 -13 4 -22 9 -19 4 3 7 -7 5 -21 -1 -15 0 -32 4
-38 3 -5 7 -19 7 -30 0 -11 3 -24 6 -30 4 -5 5 -18 4 -27 -2 -10 0 -18 4 -18
5 0 6 -11 3 -25 -2 -14 0 -25 5 -25 5 0 9 -10 10 -22 2 -46 8 -78 14 -78 3 0
5 -13 4 -30 -1 -16 1 -30 4 -30 4 0 7 -8 8 -17 1 -29 15 -97 21 -107 3 -6 7
-19 8 -30 3 -33 13 -86 24 -141 6 -27 13 -63 16 -80 3 -16 11 -36 17 -44 10
-12 9 -13 -2 -6 -11 6 -13 4 -7 -11 5 -10 9 -25 9 -31 0 -7 3 -13 7 -13 3 0 5
-13 4 -30 -1 -16 2 -30 6 -30 5 0 7 -12 4 -26 -3 -14 -1 -23 4 -21 4 3 9 -15
10 -41 1 -26 6 -48 11 -50 4 -1 7 -17 5 -34 -2 -17 0 -36 5 -42 7 -8 -56 -11
-235 -11 -155 0 -244 4 -245 10 0 6 -2 17 -3 25 -2 8 -7 65 -11 125 -4 61 -8
126 -10 145 -2 19 -6 82 -10 140 -4 57 -9 108 -11 112 -3 4 16 18 42 30 66 32
73 46 50 110 -93 266 -151 416 -164 431 -19 22 -15 23 -204 -37 -89 -28 -153
-44 -161 -39 -8 4 -71 51 -141 103 -81 61 -121 96 -112 100 15 5 651 3 829 -2z
m-3676 -30 c-3 -8 -6 -5 -6 6 -1 11 2 17 5 13 3 -3 4 -12 1 -19z m-35 -165
c-3 -16 -7 -22 -10 -15 -4 13 4 42 11 42 2 0 2 -12 -1 -27z m3459 -10 c57
-146 136 -394 127 -399 -6 -4 -309 -107 -674 -229 l-663 -222 -17 56 c-8 31
-39 119 -69 196 -29 77 -55 147 -58 156 -4 12 121 58 667 241 369 125 672 227
674 227 1 1 7 -11 13 -26z m-3474 -45 c-3 -8 -6 -5 -6 6 -1 11 2 17 5 13 3 -3
4 -12 1 -19z m-6 -55 c-4 -28 -6 -32 -9 -15 -3 22 3 52 11 52 1 0 1 -17 -2
-37z m-14 -65 c-3 -8 -6 -5 -6 6 -1 11 2 17 5 13 3 -3 4 -12 1 -19z m-10 -55
c-3 -10 -5 -4 -5 12 0 17 2 24 5 18 2 -7 2 -21 0 -30z m423 -3 c0 -11 -4 -20
-9 -20 -5 0 -7 9 -4 20 3 11 7 20 9 20 2 0 4 -9 4 -20z m-433 -52 c-3 -7 -5
-2 -5 12 0 14 2 19 5 13 2 -7 2 -19 0 -25z m420 -85 c-2 -21 -4 -4 -4 37 0 41
2 58 4 38 2 -21 2 -55 0 -75z m-430 25 c-3 -7 -5 -2 -5 12 0 14 2 19 5 13 2
-7 2 -19 0 -25z m-10 -50 c-3 -7 -5 -2 -5 12 0 14 2 19 5 13 2 -7 2 -19 0 -25z
m-4 -38 c-3 -11 -7 -20 -9 -20 -2 0 -4 9 -4 20 0 11 4 20 9 20 5 0 7 -9 4 -20z
m445 -10 c-1 -17 -4 -33 -8 -35 -4 -2 -5 6 -4 18 1 12 3 28 3 35 2 26 10 10 9
-18z m-11 -102 c-3 -7 -5 -2 -5 12 0 14 2 19 5 13 2 -7 2 -19 0 -25z m-460
-30 c-3 -7 -5 -2 -5 12 0 14 2 19 5 13 2 -7 2 -19 0 -25z m460 -70 c-2 -18 -4
-6 -4 27 0 33 2 48 4 33 2 -15 2 -42 0 -60z m2972 -135 c2 -109 4 -222 5 -250
3 -63 4 -62 -116 -60 -55 2 -88 -1 -88 -8 0 -7 -3 -7 -8 0 -4 6 -70 10 -162
10 l-155 0 0 140 c-1 216 -30 184 250 280 132 46 247 84 256 84 14 1 16 -22
18 -196z m-3442 165 c-3 -8 -6 -5 -6 6 -1 11 2 17 5 13 3 -3 4 -12 1 -19z
m470 -120 c-2 -13 -4 -5 -4 17 -1 22 1 32 4 23 2 -10 2 -28 0 -40z m-490 10
c-3 -8 -6 -5 -6 6 -1 11 2 17 5 13 3 -3 4 -12 1 -19z m-10 -65 c-3 -10 -5 -2
-5 17 0 19 2 27 5 18 2 -10 2 -26 0 -35z m499 1 c1 -9 0 -13 -4 -10 -3 4 -7
14 -8 22 -1 9 0 13 4 10 3 -4 7 -14 8 -22z m2389 -94 c0 -98 -4 -110 -42 -110
-22 0 -23 4 -24 73 -2 126 3 140 46 135 18 -3 20 -11 20 -98z m-2398 38 c-3
-7 -5 -2 -5 12 0 14 2 19 5 13 2 -7 2 -19 0 -25z m-510 -50 c-3 -7 -5 -2 -5
12 0 14 2 19 5 13 2 -7 2 -19 0 -25z m510 -120 c-2 -29 -3 -6 -3 52 0 58 1 81
3 53 2 -29 2 -77 0 -105z m-536 -39 c-6 -17 -8 -36 -4 -43 4 -7 2 -8 -5 -1 -8
7 -7 22 1 53 6 24 13 39 15 33 2 -7 -1 -25 -7 -42z m2986 -555 c-3 -3 -12 -4
-19 -1 -8 3 -5 6 6 6 11 1 17 -2 13 -5z"/>
<path d="M5224 2076 c-3 -15 8 -62 31 -128 64 -178 93 -233 113 -214 18 19
-78 340 -108 356 -26 14 -29 13 -36 -14z"/>
<path d="M4830 2113 c-37 -8 -72 -23 -82 -34 -15 -17 -15 -24 -1 -76 8 -32 28
-91 45 -131 l31 -74 36 6 c53 9 131 47 131 64 0 12 -10 14 -52 8 -29 -3 -63
-9 -75 -12 -18 -5 -25 0 -35 21 -11 25 -10 29 12 44 74 49 79 73 10 54 -45
-11 -53 -6 -64 40 -6 27 -4 30 54 55 33 15 60 32 60 39 0 7 -1 13 -2 12 -2 0
-32 -7 -68 -16z"/>
<path d="M4465 1928 c13 -61 77 -217 96 -234 17 -16 22 -15 73 6 58 23 82 43
72 59 -4 6 -24 5 -54 -4 -61 -19 -71 -19 -79 3 -24 69 -68 179 -76 190 -5 6
-16 12 -24 12 -11 0 -13 -8 -8 -32z"/>
<path d="M4196 1871 c-14 -22 -31 -307 -19 -314 23 -14 47 42 31 69 -5 7 15
22 48 40 l55 29 39 -43 c25 -27 44 -40 54 -36 9 3 16 10 16 16 0 27 -63 111
-75 100 -4 -4 -5 -2 -3 4 2 6 -18 41 -44 78 -37 50 -54 66 -72 66 -14 0 -27
-4 -30 -9z m52 -81 c7 -12 16 -19 20 -16 4 2 9 -6 10 -20 1 -18 -5 -28 -23
-36 -35 -16 -45 -2 -38 50 6 47 12 51 31 22z"/>
<path d="M3871 1792 c-52 -25 -75 -87 -49 -135 19 -36 40 -46 94 -47 54 0 74
-12 74 -45 0 -38 -17 -50 -65 -48 -42 1 -44 0 -34 -18 25 -47 102 -44 129 5
24 46 20 78 -15 113 -29 29 -40 33 -83 33 -41 0 -54 4 -66 22 -9 12 -16 26
-16 31 0 19 55 57 81 57 22 0 29 5 29 20 0 11 -3 20 -7 21 -5 0 -15 2 -24 4
-9 1 -31 -4 -48 -13z"/>
<path d="M5934 3205 c-77 -16 -114 -35 -148 -76 -27 -32 -78 -123 -82 -147 -1
-7 -10 -24 -19 -38 -9 -13 -13 -30 -9 -36 4 -6 3 -8 -3 -5 -10 6 -29 -37 -25
-55 1 -5 -3 -8 -9 -8 -5 0 -7 -4 -4 -10 3 -5 2 -10 -4 -10 -5 0 -13 -10 -16
-21 -4 -12 -26 -60 -48 -108 -46 -97 -50 -110 -37 -131 7 -12 14 -12 27 -4 21
13 65 92 58 104 -3 5 -1 10 4 12 8 3 81 149 168 336 36 79 68 107 143 128 70
18 330 27 330 10 0 -5 7 -3 15 4 8 7 15 9 15 4 0 -5 28 -9 63 -10 95 -1 338
-14 372 -20 16 -3 34 -9 40 -14 15 -13 10 -119 -8 -163 -9 -21 -11 -35 -6 -31
6 3 3 -5 -6 -19 -9 -15 -14 -31 -10 -37 3 -5 1 -10 -4 -10 -6 0 -10 -3 -9 -7
1 -5 -5 -28 -12 -53 -8 -25 -14 -47 -14 -50 -1 -3 -4 -9 -7 -15 -6 -10 -22
-68 -20 -73 1 -1 -6 -16 -14 -32 -9 -17 -13 -30 -9 -30 4 0 1 -6 -5 -13 -6 -8
-12 -22 -14 -33 -2 -10 -7 -27 -11 -36 -4 -9 -9 -22 -10 -30 -2 -7 -6 -20 -9
-28 -22 -51 -36 -104 -30 -113 3 -6 1 -7 -5 -3 -8 5 -12 -1 -12 -16 0 -13 -5
-29 -12 -36 -7 -7 -8 -12 -4 -12 5 0 4 -6 -1 -12 -9 -11 -14 -28 -25 -75 -1
-5 -7 -19 -14 -32 -7 -14 -11 -28 -8 -33 3 -4 0 -8 -6 -8 -7 0 -10 -7 -6 -15
3 -8 2 -15 -3 -15 -4 0 -8 -7 -9 -15 -1 -8 -3 -22 -4 -30 -1 -8 -4 -15 -8 -15
-4 0 -7 -6 -8 -12 -1 -7 -5 -28 -8 -45 -15 -77 40 3 61 90 4 15 11 30 16 33 5
3 9 12 9 20 0 8 27 90 61 182 34 92 62 172 63 177 1 6 4 15 7 20 5 8 39 105
44 125 1 3 5 14 9 25 4 11 13 34 18 50 6 17 17 44 24 60 14 35 54 158 59 183
2 9 4 17 6 17 4 0 10 53 12 107 3 97 -37 122 -213 133 -52 3 -117 8 -145 10
-240 22 -455 26 -531 10z"/>
<path d="M3547 3164 c-1 -1 -31 -4 -67 -8 -108 -10 -215 -45 -317 -102 -35
-19 -63 -40 -63 -45 0 -6 -4 -7 -10 -4 -15 9 -159 -140 -210 -218 -41 -63 -56
-97 -42 -97 3 0 55 51 116 114 61 63 131 127 156 144 55 36 172 97 182 94 4
-1 20 3 35 9 15 6 39 13 53 15 14 3 32 7 40 10 19 8 232 12 245 5 6 -3 21 -6
35 -7 14 -1 45 -7 70 -14 25 -7 50 -13 57 -14 7 -1 16 -5 19 -9 4 -4 16 -7 26
-7 10 0 18 -5 18 -11 0 -5 4 -8 9 -4 5 3 12 1 16 -5 4 -6 11 -8 16 -5 5 4 9 3
9 -2 0 -4 14 -14 30 -22 17 -7 53 -30 79 -51 27 -22 52 -36 56 -32 4 4 5 3 4
-3 -2 -5 20 -34 49 -62 28 -29 52 -57 52 -63 0 -5 4 -10 8 -10 5 0 17 -15 27
-34 11 -19 22 -33 26 -30 4 2 9 -2 12 -8 6 -17 41 2 45 24 6 31 -168 221 -253
277 -22 14 -46 32 -53 39 -24 22 -175 90 -238 106 -58 15 -111 23 -197 30 -20
1 -38 2 -40 0z"/>
<path d="M6963 3032 c-15 -16 -38 -57 -50 -93 -12 -35 -49 -143 -82 -239 -34
-96 -70 -206 -82 -245 -39 -135 -61 -210 -64 -225 -2 -8 -4 -15 -5 -15 -1 0
-3 -7 -5 -15 -2 -8 -15 -58 -28 -110 -14 -52 -24 -96 -23 -98 2 -1 10 0 18 3
13 5 47 79 37 81 -2 0 1 7 8 15 14 17 114 277 116 302 1 9 4 17 8 17 4 0 10
15 14 33 4 17 9 34 10 37 1 3 7 19 14 35 7 17 13 38 14 48 1 9 5 17 9 17 4 0
7 3 7 8 -1 4 0 10 1 15 1 4 3 10 4 15 1 4 21 64 44 134 23 70 43 135 45 145 2
10 9 37 16 60 9 34 13 103 5 103 -2 0 -15 -13 -31 -28z"/>
<path d="M28 2980 c-17 -11 -23 -70 -6 -70 5 0 7 -4 4 -8 -3 -5 0 -19 7 -33 7
-13 28 -62 47 -109 18 -47 38 -88 43 -91 5 -3 8 -10 8 -15 -1 -17 10 -44 20
-44 5 0 9 -3 8 -7 -2 -16 14 -53 22 -53 5 0 9 -7 9 -15 0 -19 26 -20 33 -1 8
19 -127 413 -149 437 -19 22 -23 22 -46 9z"/>
<path d="M2377 2653 c-9 -9 -9 -43 1 -43 4 0 7 11 7 25 0 14 0 25 -1 25 0 0
-4 -3 -7 -7z"/>
<path d="M3913 2632 c-13 -2 -23 -7 -23 -12 0 -12 37 -23 50 -15 5 3 10 1 10
-6 0 -8 4 -8 15 1 12 10 15 10 15 0 0 -10 3 -10 14 -1 10 8 16 9 21 1 4 -7 12
-7 25 0 13 7 21 7 26 -1 4 -8 9 -7 15 2 5 8 9 9 9 4 0 -7 60 -11 174 -10 96 0
172 -3 169 -7 -2 -5 1 -8 6 -8 6 0 11 4 11 10 0 6 9 6 26 0 19 -7 23 -7 18 2
-5 7 -2 9 9 5 23 -9 28 17 6 31 -14 9 -94 12 -297 10 -152 -2 -287 -4 -299 -6z"/>
<path d="M2755 2596 l-20 -15 20 -15 c15 -11 43 -14 107 -13 49 1 88 5 88 9 0
4 20 4 43 2 32 -4 47 -1 57 11 7 8 11 16 9 16 -11 3 -75 8 -174 14 -89 5 -114
3 -130 -9z"/>
<path d="M2198 2133 c-32 -37 -48 -160 -63 -503 -4 -82 -17 -351 -18 -380 -1
-15 -9 -26 -21 -28 -10 -2 -16 0 -13 5 3 4 -19 9 -49 9 -30 1 -54 -3 -54 -8 0
-5 -5 -6 -11 -2 -7 4 -10 -1 -7 -12 3 -17 13 -19 78 -18 l75 1 1 -58 c0 -32 3
-61 5 -64 14 -14 180 -24 469 -30 244 -6 280 -3 280 23 0 15 -2 15 -10 2 -8
-13 -10 -12 -10 3 0 9 5 17 10 17 6 0 10 7 10 16 0 8 -4 13 -8 10 -5 -3 -9 1
-9 9 0 8 4 12 9 9 4 -3 8 3 8 13 0 13 8 19 28 21 35 3 82 22 82 33 0 5 -27 9
-59 9 -35 0 -63 5 -67 12 -5 7 -3 8 7 3 12 -8 12 -6 0 8 -9 11 -10 17 -2 17 6
0 11 5 11 11 0 5 -5 7 -11 3 -7 -4 -7 1 1 16 8 15 8 20 1 16 -6 -4 -11 -3 -11
3 0 5 6 11 13 14 9 3 9 7 -1 19 -9 12 -10 18 -2 23 8 5 8 10 0 20 -8 10 -8 15
1 20 8 6 8 9 -1 15 -8 5 -9 13 -2 26 5 11 6 28 2 39 -4 11 -4 28 1 37 6 11 5
18 -4 21 -9 3 -9 7 2 20 7 10 10 17 5 17 -5 0 -9 13 -10 30 -1 17 3 27 9 23 6
-3 7 -2 4 4 -11 18 -16 63 -6 68 5 4 4 15 -2 28 -9 16 -9 22 -1 25 7 2 9 10 4
20 -5 9 -7 73 -6 140 1 72 -2 118 -7 110 -5 -7 -9 -8 -9 -3 0 6 5 16 10 21 7
7 4 18 -10 34 -20 23 -20 23 -41 5 -22 -21 -21 7 -4 -365 2 -41 6 -133 9 -205
16 -345 18 -391 23 -398 3 -5 -98 -5 -223 -1 -126 4 -276 8 -334 8 l-105 1 0
30 c1 17 5 37 10 44 5 10 4 12 -3 7 -7 -4 -12 -2 -12 3 0 6 4 11 9 11 5 0 8
17 6 38 -1 20 2 45 7 56 7 14 7 16 -2 11 -9 -5 -10 -2 -3 11 6 11 9 34 8 52 0
17 3 32 7 32 5 0 7 18 4 39 -3 21 -2 42 2 45 6 7 11 65 14 163 1 28 4 50 8 48
3 -2 5 21 5 51 -1 30 2 54 5 54 3 0 5 23 4 50 0 28 3 50 8 50 4 0 8 5 8 11 0
5 -6 7 -12 3 -10 -6 -10 -4 -2 7 15 20 12 195 -3 192 -7 -2 -10 4 -7 12 8 21
-10 19 -28 -2z"/>
<path d="M1085 1939 c-66 -4 -208 -10 -315 -13 -107 -3 -207 -8 -222 -10 -28
-3 -62 -25 -54 -34 3 -2 0 -14 -6 -26 -12 -22 -18 -113 -9 -131 3 -5 7 -19 8
-30 2 -10 9 -23 16 -27 19 -13 578 11 674 28 29 6 51 28 35 37 -4 2 -36 4 -72
5 -45 1 -60 -2 -50 -8 8 -5 10 -10 4 -10 -6 0 -14 3 -18 7 -12 13 -67 13 -59
0 4 -7 -1 -6 -10 2 -14 11 -17 11 -17 0 0 -9 -3 -10 -11 -2 -6 6 -26 7 -47 4
-20 -3 -69 -6 -109 -5 -49 0 -70 -3 -66 -10 4 -6 -1 -5 -11 3 -15 13 -19 13
-27 0 -7 -11 -9 -11 -9 0 0 10 -3 11 -13 3 -8 -7 -18 -7 -27 -2 -8 5 -18 6
-24 3 -17 -11 -107 -9 -116 2 -5 6 -11 37 -12 68 -2 31 -7 57 -13 58 -5 1 6 5
25 9 24 6 37 5 42 -3 6 -9 8 -8 8 2 0 11 3 11 15 1 10 -9 15 -9 15 -1 0 6 5
11 11 11 5 0 8 -4 4 -9 -3 -6 4 -8 17 -4 13 3 48 7 78 8 30 2 55 4 55 5 0 1
16 3 35 4 19 1 41 5 49 10 11 7 12 6 6 -5 -8 -12 -6 -12 8 0 14 11 17 11 17 0
0 -9 3 -10 8 -4 4 6 18 10 32 10 14 -1 35 2 48 7 14 5 21 4 18 -1 -6 -10 12
-9 29 1 6 3 27 4 47 3 23 -2 36 1 32 7 -4 6 4 5 16 -2 12 -7 20 -7 16 -2 -4 7
6 9 26 8 18 -2 39 2 47 8 12 9 13 8 7 -3 -6 -9 -1 -8 17 3 20 13 26 14 30 4 4
-10 6 -10 6 0 2 31 3 31 -184 21z"/>
<path d="M5968 1853 c-21 -5 -24 -22 -5 -24 34 -3 161 -8 327 -14 102 -3 194
-7 205 -9 31 -5 39 -83 11 -111 -23 -23 -2 -23 -396 -11 -204 6 -230 4 -230
-20 0 -15 0 -15 46 -19 17 -1 35 -5 41 -8 5 -3 15 -2 23 3 9 5 19 5 27 -2 10
-8 13 -7 13 3 0 10 3 10 12 1 7 -7 17 -8 30 -1 13 7 18 6 18 -2 0 -8 4 -8 15
1 12 10 15 10 15 0 0 -10 3 -10 15 0 8 7 15 8 15 3 0 -5 7 -10 15 -10 8 0 15
4 15 9 0 5 6 6 13 1 17 -11 60 -11 75 0 8 6 12 5 12 -3 0 -9 3 -10 13 -1 10 8
17 7 25 -1 9 -9 12 -9 12 3 0 12 2 12 10 -1 8 -12 10 -12 10 -1 0 11 3 11 17
0 9 -8 14 -9 10 -3 -7 12 41 12 61 0 7 -4 12 -2 12 6 0 9 3 9 10 -2 8 -12 10
-12 10 -1 0 11 3 11 15 1 12 -10 15 -10 15 1 0 11 2 11 10 -1 9 -13 10 -13 10
0 0 13 1 13 10 0 6 -10 10 -11 10 -2 0 6 6 11 13 10 7 -2 12 6 11 19 0 12 4
19 9 16 6 -4 8 2 5 14 -3 11 -1 28 4 37 6 11 5 16 -4 16 -9 0 -9 3 0 12 15 15
16 31 0 22 -7 -4 -8 -3 -4 5 4 6 5 19 1 30 -12 38 -46 42 -324 40 -146 -1
-274 -4 -283 -6z"/>
<path d="M586 1613 c-14 -13 -17 -14 -12 -3 4 8 1 6 -8 -4 -8 -10 -13 -22 -11
-27 3 -4 1 -9 -5 -11 -5 -1 -10 -18 -12 -35 -1 -18 -5 -33 -8 -33 -4 0 -7 -6
-8 -12 -1 -19 -9 -50 -20 -79 -6 -15 -8 -30 -5 -33 4 -3 1 -6 -4 -6 -6 0 -10
-8 -8 -17 1 -10 -2 -23 -7 -30 -5 -7 -7 -17 -3 -23 3 -5 1 -10 -5 -10 -7 0
-10 -7 -6 -15 3 -8 2 -15 -3 -15 -5 0 -11 -12 -14 -27 -3 -16 -8 -38 -11 -50
-14 -53 -18 -69 -18 -80 -1 -7 -6 -13 -11 -13 -5 0 -7 -7 -3 -15 3 -8 1 -15
-3 -15 -5 0 -8 -8 -6 -17 1 -10 0 -22 -4 -28 -6 -11 -12 -32 -13 -52 -1 -7 -6
-13 -11 -13 -5 0 -7 -7 -4 -15 4 -8 2 -17 -4 -20 -5 -4 -8 -12 -7 -18 1 -7 -4
-23 -11 -36 -11 -19 -11 -22 1 -15 10 6 11 5 1 -7 -7 -9 -14 -24 -16 -35 -1
-10 -6 -25 -11 -32 -4 -7 -6 -16 -3 -18 3 -3 -1 -17 -8 -31 -8 -15 -12 -30 -9
-34 6 -11 -29 -46 -42 -42 -5 2 -18 -3 -28 -10 -18 -13 -18 -15 4 -35 13 -12
26 -19 30 -17 3 2 28 5 56 6 56 2 118 24 109 38 -3 6 -21 13 -40 17 -20 3 -37
10 -40 14 -4 7 10 60 81 305 48 166 196 581 214 600 25 27 25 41 1 55 -27 14
-34 13 -55 -7z"/>
<path d="M6335 1610 c-4 -6 3 -18 14 -28 11 -9 22 -29 25 -44 3 -15 8 -33 13
-40 4 -7 8 -15 8 -18 1 -10 68 -205 74 -215 3 -5 6 -14 7 -20 2 -9 47 -137 61
-175 3 -8 7 -19 9 -25 2 -11 52 -151 61 -175 4 -8 7 -17 8 -20 5 -20 39 -117
44 -125 11 -19 6 -40 -11 -53 -42 -31 -10 -61 62 -58 25 1 51 5 59 10 10 6 12
5 7 -2 -5 -8 -2 -10 8 -6 29 11 14 54 -18 54 -31 0 -46 13 -52 46 -14 81 -106
354 -172 514 -6 14 -39 99 -73 190 -34 91 -68 173 -77 183 -17 19 -47 23 -57
7z"/>
<path d="M4947 1183 c-4 -3 -7 -13 -7 -20 0 -13 38 -14 132 -4 4 1 5 8 2 16
-5 11 -22 15 -63 15 -32 0 -61 -3 -64 -7z"/>
<path d="M5003 1048 c-16 -21 -42 -95 -36 -102 4 -3 1 -6 -5 -6 -6 0 -9 -9 -7
-20 2 -11 -1 -20 -7 -20 -6 0 -9 -3 -5 -6 3 -4 0 -22 -8 -41 -8 -19 -12 -39
-9 -44 3 -5 1 -9 -4 -9 -5 0 -9 -6 -10 -12 0 -7 -3 -24 -7 -38 -3 -14 -7 -29
-9 -35 -5 -25 -28 -55 -40 -55 -8 0 -19 -7 -26 -15 -12 -15 -4 -20 23 -16 4 0
7 -4 7 -10 0 -5 4 -8 8 -5 5 3 32 7 60 10 64 6 77 13 61 32 -6 7 -15 12 -19 9
-25 -15 -15 54 20 140 15 36 51 173 54 202 2 27 -9 53 -24 53 -4 0 -12 -6 -17
-12z"/>
<path d="M1842 1016 c-8 -19 -8 -26 1 -30 9 -3 8 -5 -1 -5 -8 -1 -10 -6 -5
-13 4 -7 9 -24 11 -38 2 -13 9 -31 15 -39 10 -12 9 -13 -1 -7 -11 6 -11 4 -3
-13 6 -12 16 -30 21 -41 7 -13 7 -20 0 -20 -7 0 -7 -6 -1 -17 14 -26 24 -57
22 -66 0 -4 3 -17 9 -27 10 -19 4 -25 -21 -22 -4 1 -15 -8 -25 -20 -14 -15
-16 -22 -6 -25 6 -3 12 -10 12 -17 0 -17 132 -15 138 2 2 6 9 9 16 6 8 -3 16
2 20 11 5 15 -1 19 -60 39 -6 2 -19 44 -28 92 -39 192 -67 274 -96 274 -4 0
-12 -11 -18 -24z"/>
<path d="M5255 996 c-14 -20 -51 -172 -70 -279 -3 -21 -15 -46 -26 -55 -45
-39 4 -74 71 -50 46 16 35 48 -14 39 -5 -1 -5 6 -2 16 12 30 74 246 81 280 7
35 -1 73 -15 73 -5 0 -16 -11 -25 -24z"/>
<path d="M2288 933 c0 -10 -2 -25 -2 -33 -2 -13 2 -32 19 -105 3 -11 7 -31 10
-45 3 -14 9 -40 14 -58 9 -30 8 -34 -14 -42 -29 -11 -37 -23 -29 -44 5 -14 21
-16 93 -14 78 3 86 5 86 23 0 14 -10 22 -35 29 -19 5 -36 10 -38 11 -3 2 -10
31 -18 75 -2 14 -7 36 -10 50 -3 14 -8 36 -10 50 -10 57 -36 120 -50 120 -8 0
-15 -8 -16 -17z"/>
</g>
</svg>
